G04*
G04 #@! TF.GenerationSoftware,Altium Limited,Altium Designer,23.7.1 (13)*
G04*
G04 Layer_Color=32896*
%FSAX43Y43*%
%MOMM*%
G71*
G04*
G04 #@! TF.SameCoordinates,4B3962D1-0CE0-4DC0-8A0A-AB0838D88EC4*
G04*
G04*
G04 #@! TF.FilePolarity,Positive*
G04*
G01*
G75*
%ADD11C,0.127*%
D11*
X0001300Y0059431D02*
X0006300D01*
Y0056931D02*
Y0059431D01*
X0001300Y0048431D02*
X0006300D01*
Y0050931D01*
X0001300Y0059431D02*
X0006300D01*
Y0056931D02*
Y0059431D01*
Y0048431D02*
Y0050931D01*
X0001300Y0048431D02*
X0006300D01*
X0001300Y0034820D02*
X0006300D01*
Y0032320D02*
Y0034820D01*
X0001300Y0023820D02*
X0006300D01*
Y0026320D01*
X0001300Y0034820D02*
X0006300D01*
Y0032320D02*
Y0034820D01*
Y0023820D02*
Y0026320D01*
X0001300Y0023820D02*
X0006300D01*
X0001300Y0047075D02*
X0006300D01*
Y0044575D02*
Y0047075D01*
X0001300Y0036075D02*
X0006300D01*
Y0038575D01*
X0001300Y0047075D02*
X0006300D01*
Y0044575D02*
Y0047075D01*
Y0036075D02*
Y0038575D01*
X0001300Y0036075D02*
X0006300D01*
X0001300Y0022615D02*
X0006300D01*
Y0020115D02*
Y0022615D01*
X0001300Y0011615D02*
X0006300D01*
Y0014115D01*
X0001300Y0022615D02*
X0006300D01*
Y0020115D02*
Y0022615D01*
Y0011615D02*
Y0014115D01*
X0001300Y0011615D02*
X0006300D01*
M02*
