G04*
G04 #@! TF.GenerationSoftware,Altium Limited,Altium Designer,23.7.1 (13)*
G04*
G04 Layer_Physical_Order=3*
G04 Layer_Color=1265191*
%FSAX43Y43*%
%MOMM*%
G71*
G04*
G04 #@! TF.SameCoordinates,4B3962D1-0CE0-4DC0-8A0A-AB0838D88EC4*
G04*
G04*
G04 #@! TF.FilePolarity,Positive*
G04*
G01*
G75*
%ADD10C,0.254*%
%ADD12C,0.200*%
%ADD45C,0.300*%
%ADD58C,0.650*%
G36*
X0095127Y0097873D02*
X0094769Y0097612D01*
X0094388Y0097231D01*
X0094071Y0096795D01*
X0093826Y0096315D01*
X0093659Y0095802D01*
X0093575Y0095270D01*
Y0094730D01*
X0093659Y0094198D01*
X0093826Y0093685D01*
X0094071Y0093205D01*
X0094388Y0092769D01*
X0094769Y0092388D01*
X0095205Y0092071D01*
X0095685Y0091826D01*
X0096198Y0091659D01*
X0096730Y0091575D01*
X0097270D01*
X0097802Y0091659D01*
X0098315Y0091826D01*
X0098795Y0092071D01*
X0099231Y0092388D01*
X0099612Y0092769D01*
X0099873Y0093127D01*
X0100000Y0093086D01*
Y0051252D01*
X0099950Y0051239D01*
X0099700Y0051094D01*
X0099495Y0050889D01*
X0099350Y0050639D01*
X0099275Y0050359D01*
Y0050069D01*
X0099350Y0049789D01*
X0099495Y0049539D01*
X0099700Y0049334D01*
X0099950Y0049189D01*
X0100000Y0049176D01*
Y0041092D01*
X0099950Y0041079D01*
X0099700Y0040934D01*
X0099495Y0040729D01*
X0099350Y0040479D01*
X0099275Y0040199D01*
Y0039909D01*
X0099350Y0039629D01*
X0099495Y0039379D01*
X0099700Y0039174D01*
X0099950Y0039029D01*
X0100000Y0039016D01*
Y0028252D01*
X0099950Y0028239D01*
X0099700Y0028094D01*
X0099495Y0027889D01*
X0099350Y0027639D01*
X0099275Y0027359D01*
Y0027069D01*
X0099350Y0026789D01*
X0099495Y0026539D01*
X0099700Y0026334D01*
X0099950Y0026189D01*
X0100000Y0026176D01*
Y0018092D01*
X0099950Y0018079D01*
X0099700Y0017934D01*
X0099495Y0017729D01*
X0099350Y0017479D01*
X0099275Y0017199D01*
Y0016909D01*
X0099350Y0016629D01*
X0099495Y0016379D01*
X0099700Y0016174D01*
X0099950Y0016029D01*
X0100000Y0016016D01*
Y0006914D01*
X0099873Y0006873D01*
X0099612Y0007231D01*
X0099231Y0007612D01*
X0098795Y0007929D01*
X0098315Y0008174D01*
X0097802Y0008341D01*
X0097270Y0008425D01*
X0096730D01*
X0096198Y0008341D01*
X0095685Y0008174D01*
X0095205Y0007929D01*
X0094769Y0007612D01*
X0094388Y0007231D01*
X0094071Y0006795D01*
X0093826Y0006315D01*
X0093659Y0005802D01*
X0093575Y0005270D01*
Y0004730D01*
X0093659Y0004198D01*
X0093826Y0003685D01*
X0094071Y0003205D01*
X0094388Y0002769D01*
X0094769Y0002388D01*
X0095127Y0002127D01*
X0095086Y0002000D01*
X0006814Y0002000D01*
X0006773Y0002127D01*
X0007131Y0002388D01*
X0007512Y0002769D01*
X0007829Y0003205D01*
X0008074Y0003685D01*
X0008241Y0004198D01*
X0008325Y0004730D01*
Y0005270D01*
X0008241Y0005802D01*
X0008074Y0006315D01*
X0007829Y0006795D01*
X0007512Y0007231D01*
X0007131Y0007612D01*
X0006695Y0007929D01*
X0006215Y0008174D01*
X0005702Y0008341D01*
X0005170Y0008425D01*
X0004630D01*
X0004098Y0008341D01*
X0003585Y0008174D01*
X0003105Y0007929D01*
X0002669Y0007612D01*
X0002288Y0007231D01*
X0002027Y0006873D01*
X0001900Y0006914D01*
Y0011336D01*
X0002027Y0011362D01*
X0002052Y0011300D01*
X0002179Y0011174D01*
X0002344Y0011105D01*
X0002523D01*
X0002689Y0011174D01*
X0002815Y0011300D01*
X0002884Y0011466D01*
Y0011645D01*
X0002815Y0011810D01*
X0002689Y0011937D01*
X0002523Y0012005D01*
X0002344D01*
X0002179Y0011937D01*
X0002052Y0011810D01*
X0002027Y0011749D01*
X0001900Y0011774D01*
Y0014061D01*
X0002027Y0014087D01*
X0002052Y0014025D01*
X0002179Y0013899D01*
X0002344Y0013830D01*
X0002523D01*
X0002689Y0013899D01*
X0002815Y0014025D01*
X0002884Y0014191D01*
Y0014370D01*
X0002815Y0014535D01*
X0002689Y0014662D01*
X0002523Y0014730D01*
X0002344D01*
X0002179Y0014662D01*
X0002052Y0014535D01*
X0002027Y0014474D01*
X0001900Y0014499D01*
Y0019856D01*
X0002027Y0019882D01*
X0002052Y0019820D01*
X0002179Y0019694D01*
X0002344Y0019625D01*
X0002523D01*
X0002689Y0019694D01*
X0002815Y0019820D01*
X0002884Y0019986D01*
Y0020165D01*
X0002815Y0020330D01*
X0002689Y0020457D01*
X0002523Y0020525D01*
X0002344D01*
X0002179Y0020457D01*
X0002052Y0020330D01*
X0002027Y0020269D01*
X0001900Y0020294D01*
Y0022581D01*
X0002027Y0022607D01*
X0002052Y0022545D01*
X0002179Y0022419D01*
X0002344Y0022350D01*
X0002523D01*
X0002689Y0022419D01*
X0002815Y0022545D01*
X0002884Y0022711D01*
Y0022890D01*
X0002815Y0023055D01*
X0002689Y0023182D01*
X0002618Y0023211D01*
Y0023349D01*
X0002689Y0023378D01*
X0002815Y0023505D01*
X0002884Y0023670D01*
Y0023849D01*
X0002815Y0024015D01*
X0002689Y0024141D01*
X0002523Y0024210D01*
X0002344D01*
X0002179Y0024141D01*
X0002052Y0024015D01*
X0002027Y0023954D01*
X0001900Y0023979D01*
Y0026266D01*
X0002027Y0026291D01*
X0002052Y0026230D01*
X0002179Y0026103D01*
X0002344Y0026035D01*
X0002523D01*
X0002689Y0026103D01*
X0002815Y0026230D01*
X0002884Y0026395D01*
Y0026574D01*
X0002815Y0026740D01*
X0002689Y0026866D01*
X0002523Y0026935D01*
X0002344D01*
X0002179Y0026866D01*
X0002052Y0026740D01*
X0002027Y0026679D01*
X0001900Y0026704D01*
Y0032061D01*
X0002027Y0032086D01*
X0002052Y0032025D01*
X0002179Y0031898D01*
X0002344Y0031830D01*
X0002523D01*
X0002689Y0031898D01*
X0002815Y0032025D01*
X0002884Y0032190D01*
Y0032369D01*
X0002815Y0032535D01*
X0002689Y0032661D01*
X0002523Y0032730D01*
X0002344D01*
X0002179Y0032661D01*
X0002052Y0032535D01*
X0002027Y0032474D01*
X0001900Y0032499D01*
Y0034786D01*
X0002027Y0034811D01*
X0002052Y0034750D01*
X0002179Y0034623D01*
X0002344Y0034555D01*
X0002523D01*
X0002689Y0034623D01*
X0002815Y0034750D01*
X0002884Y0034915D01*
Y0035094D01*
X0002815Y0035260D01*
X0002689Y0035386D01*
X0002544Y0035446D01*
X0002541Y0035462D01*
Y0035558D01*
X0002544Y0035573D01*
X0002689Y0035633D01*
X0002815Y0035760D01*
X0002884Y0035925D01*
Y0036104D01*
X0002815Y0036270D01*
X0002689Y0036396D01*
X0002523Y0036465D01*
X0002344D01*
X0002179Y0036396D01*
X0002052Y0036270D01*
X0002027Y0036208D01*
X0001900Y0036234D01*
Y0038521D01*
X0002027Y0038546D01*
X0002052Y0038485D01*
X0002179Y0038358D01*
X0002344Y0038290D01*
X0002523D01*
X0002689Y0038358D01*
X0002815Y0038485D01*
X0002884Y0038650D01*
Y0038829D01*
X0002815Y0038995D01*
X0002689Y0039121D01*
X0002523Y0039190D01*
X0002344D01*
X0002179Y0039121D01*
X0002052Y0038995D01*
X0002027Y0038933D01*
X0001900Y0038959D01*
Y0044316D01*
X0002027Y0044341D01*
X0002052Y0044280D01*
X0002179Y0044153D01*
X0002344Y0044085D01*
X0002523D01*
X0002689Y0044153D01*
X0002815Y0044280D01*
X0002884Y0044445D01*
Y0044624D01*
X0002815Y0044790D01*
X0002689Y0044916D01*
X0002523Y0044985D01*
X0002344D01*
X0002179Y0044916D01*
X0002052Y0044790D01*
X0002027Y0044728D01*
X0001900Y0044754D01*
Y0047041D01*
X0002027Y0047066D01*
X0002052Y0047005D01*
X0002179Y0046878D01*
X0002344Y0046810D01*
X0002523D01*
X0002689Y0046878D01*
X0002815Y0047005D01*
X0002884Y0047170D01*
Y0047349D01*
X0002815Y0047515D01*
X0002689Y0047641D01*
X0002523Y0047710D01*
X0002344D01*
X0002179Y0047641D01*
X0002052Y0047515D01*
X0002027Y0047453D01*
X0001900Y0047479D01*
Y0048152D01*
X0002027Y0048177D01*
X0002052Y0048116D01*
X0002179Y0047990D01*
X0002344Y0047921D01*
X0002523D01*
X0002689Y0047990D01*
X0002815Y0048116D01*
X0002884Y0048282D01*
Y0048461D01*
X0002815Y0048626D01*
X0002689Y0048753D01*
X0002523Y0048821D01*
X0002344D01*
X0002179Y0048753D01*
X0002052Y0048626D01*
X0002027Y0048565D01*
X0001900Y0048590D01*
Y0050877D01*
X0002027Y0050902D01*
X0002052Y0050841D01*
X0002179Y0050715D01*
X0002344Y0050646D01*
X0002523D01*
X0002689Y0050715D01*
X0002815Y0050841D01*
X0002884Y0051007D01*
Y0051186D01*
X0002815Y0051351D01*
X0002689Y0051478D01*
X0002523Y0051546D01*
X0002344D01*
X0002179Y0051478D01*
X0002052Y0051351D01*
X0002027Y0051290D01*
X0001900Y0051315D01*
Y0056695D01*
X0002027Y0056720D01*
X0002069Y0056620D01*
X0002195Y0056494D01*
X0002360Y0056425D01*
X0002540D01*
X0002705Y0056494D01*
X0002831Y0056620D01*
X0002900Y0056785D01*
Y0056965D01*
X0002831Y0057130D01*
X0002705Y0057256D01*
X0002540Y0057325D01*
X0002360D01*
X0002195Y0057256D01*
X0002069Y0057130D01*
X0002027Y0057030D01*
X0001900Y0057055D01*
Y0059420D01*
X0002027Y0059445D01*
X0002069Y0059345D01*
X0002195Y0059219D01*
X0002360Y0059150D01*
X0002540D01*
X0002705Y0059219D01*
X0002831Y0059345D01*
X0002900Y0059510D01*
Y0059690D01*
X0002831Y0059855D01*
X0002705Y0059981D01*
X0002540Y0060050D01*
X0002360D01*
X0002195Y0059981D01*
X0002069Y0059855D01*
X0002027Y0059755D01*
X0001900Y0059780D01*
Y0067384D01*
X0001998Y0067464D01*
X0002094Y0067445D01*
X0002406D01*
X0002711Y0067506D01*
X0002998Y0067625D01*
X0003257Y0067798D01*
X0003477Y0068018D01*
X0003650Y0068277D01*
X0003769Y0068564D01*
X0003830Y0068869D01*
Y0069181D01*
X0003769Y0069486D01*
X0003650Y0069773D01*
X0003477Y0070032D01*
X0003257Y0070252D01*
X0002998Y0070425D01*
X0002711Y0070544D01*
X0002406Y0070605D01*
X0002094D01*
X0001998Y0070586D01*
X0001900Y0070666D01*
Y0083834D01*
X0001998Y0083914D01*
X0002094Y0083895D01*
X0002406D01*
X0002711Y0083956D01*
X0002998Y0084075D01*
X0003257Y0084248D01*
X0003477Y0084468D01*
X0003650Y0084727D01*
X0003769Y0085014D01*
X0003830Y0085319D01*
Y0085631D01*
X0003769Y0085936D01*
X0003650Y0086223D01*
X0003477Y0086482D01*
X0003257Y0086702D01*
X0002998Y0086875D01*
X0002711Y0086994D01*
X0002406Y0087055D01*
X0002094D01*
X0001998Y0087036D01*
X0001900Y0087116D01*
Y0093086D01*
X0002027Y0093127D01*
X0002288Y0092769D01*
X0002669Y0092388D01*
X0003105Y0092071D01*
X0003585Y0091826D01*
X0004098Y0091659D01*
X0004630Y0091575D01*
X0005170D01*
X0005702Y0091659D01*
X0006215Y0091826D01*
X0006695Y0092071D01*
X0007131Y0092388D01*
X0007512Y0092769D01*
X0007829Y0093205D01*
X0008074Y0093685D01*
X0008241Y0094198D01*
X0008325Y0094730D01*
Y0095270D01*
X0008241Y0095802D01*
X0008074Y0096315D01*
X0007829Y0096795D01*
X0007512Y0097231D01*
X0007131Y0097612D01*
X0006773Y0097873D01*
X0006814Y0098000D01*
X0095086D01*
X0095127Y0097873D01*
D02*
G37*
%LPC*%
G36*
X0040590Y0093225D02*
X0040410D01*
X0040245Y0093156D01*
X0040119Y0093030D01*
X0040050Y0092865D01*
Y0092685D01*
X0040119Y0092520D01*
X0040245Y0092394D01*
X0040410Y0092325D01*
X0040590D01*
X0040755Y0092394D01*
X0040881Y0092520D01*
X0040950Y0092685D01*
Y0092865D01*
X0040881Y0093030D01*
X0040755Y0093156D01*
X0040590Y0093225D01*
D02*
G37*
G36*
X0042390Y0092000D02*
X0042210D01*
X0042045Y0091931D01*
X0041919Y0091805D01*
X0041850Y0091640D01*
Y0091460D01*
X0041919Y0091295D01*
X0042045Y0091169D01*
X0042210Y0091100D01*
X0042390D01*
X0042555Y0091169D01*
X0042681Y0091295D01*
X0042750Y0091460D01*
Y0091640D01*
X0042681Y0091805D01*
X0042555Y0091931D01*
X0042390Y0092000D01*
D02*
G37*
G36*
X0039890Y0090900D02*
X0039710D01*
X0039545Y0090831D01*
X0039419Y0090705D01*
X0039350Y0090540D01*
Y0090360D01*
X0039419Y0090195D01*
X0039545Y0090069D01*
X0039710Y0090000D01*
X0039890D01*
X0040055Y0090069D01*
X0040181Y0090195D01*
X0040250Y0090360D01*
Y0090540D01*
X0040181Y0090705D01*
X0040055Y0090831D01*
X0039890Y0090900D01*
D02*
G37*
G36*
X0055776Y0090500D02*
X0055597D01*
X0055431Y0090431D01*
X0055305Y0090305D01*
X0055236Y0090140D01*
Y0089960D01*
X0055305Y0089795D01*
X0055431Y0089669D01*
X0055597Y0089600D01*
X0055776D01*
X0055941Y0089669D01*
X0056068Y0089795D01*
X0056136Y0089960D01*
Y0090140D01*
X0056068Y0090305D01*
X0055941Y0090431D01*
X0055776Y0090500D01*
D02*
G37*
G36*
X0042390Y0088450D02*
X0042210D01*
X0042045Y0088381D01*
X0041919Y0088255D01*
X0041850Y0088090D01*
Y0087910D01*
X0041919Y0087745D01*
X0042045Y0087619D01*
X0042210Y0087550D01*
X0042390D01*
X0042555Y0087619D01*
X0042681Y0087745D01*
X0042750Y0087910D01*
Y0088090D01*
X0042681Y0088255D01*
X0042555Y0088381D01*
X0042390Y0088450D01*
D02*
G37*
G36*
X0038715Y0086800D02*
X0038535D01*
X0038370Y0086731D01*
X0038244Y0086605D01*
X0038175Y0086440D01*
Y0086260D01*
X0038244Y0086095D01*
X0038370Y0085969D01*
X0038535Y0085900D01*
X0038715D01*
X0038880Y0085969D01*
X0039006Y0086095D01*
X0039075Y0086260D01*
Y0086440D01*
X0039006Y0086605D01*
X0038880Y0086731D01*
X0038715Y0086800D01*
D02*
G37*
G36*
X0036715Y0086775D02*
X0036535D01*
X0036370Y0086706D01*
X0036244Y0086580D01*
X0036175Y0086415D01*
Y0086235D01*
X0036244Y0086070D01*
X0036370Y0085944D01*
X0036535Y0085875D01*
X0036715D01*
X0036880Y0085944D01*
X0037006Y0086070D01*
X0037075Y0086235D01*
Y0086415D01*
X0037006Y0086580D01*
X0036880Y0086706D01*
X0036715Y0086775D01*
D02*
G37*
G36*
X0017706Y0087055D02*
X0017394D01*
X0017089Y0086994D01*
X0016802Y0086875D01*
X0016543Y0086702D01*
X0016323Y0086482D01*
X0016150Y0086223D01*
X0016031Y0085936D01*
X0015970Y0085631D01*
Y0085319D01*
X0016031Y0085014D01*
X0016150Y0084727D01*
X0016323Y0084468D01*
X0016543Y0084248D01*
X0016802Y0084075D01*
X0017089Y0083956D01*
X0017394Y0083895D01*
X0017706D01*
X0018011Y0083956D01*
X0018298Y0084075D01*
X0018557Y0084248D01*
X0018777Y0084468D01*
X0018950Y0084727D01*
X0019069Y0085014D01*
X0019130Y0085319D01*
Y0085631D01*
X0019069Y0085936D01*
X0018950Y0086223D01*
X0018777Y0086482D01*
X0018557Y0086702D01*
X0018298Y0086875D01*
X0018011Y0086994D01*
X0017706Y0087055D01*
D02*
G37*
G36*
X0062740Y0083125D02*
X0062560D01*
X0062395Y0083056D01*
X0062269Y0082930D01*
X0062200Y0082765D01*
Y0082585D01*
X0062269Y0082420D01*
X0062395Y0082294D01*
X0062560Y0082225D01*
X0062740D01*
X0062905Y0082294D01*
X0063031Y0082420D01*
X0063100Y0082585D01*
Y0082765D01*
X0063031Y0082930D01*
X0062905Y0083056D01*
X0062740Y0083125D01*
D02*
G37*
G36*
X0058090D02*
X0057910D01*
X0057745Y0083056D01*
X0057619Y0082930D01*
X0057550Y0082765D01*
Y0082585D01*
X0057619Y0082420D01*
X0057745Y0082294D01*
X0057910Y0082225D01*
X0058090D01*
X0058255Y0082294D01*
X0058381Y0082420D01*
X0058450Y0082585D01*
Y0082765D01*
X0058381Y0082930D01*
X0058255Y0083056D01*
X0058090Y0083125D01*
D02*
G37*
G36*
X0040015Y0082400D02*
X0039835D01*
X0039670Y0082331D01*
X0039544Y0082205D01*
X0039475Y0082040D01*
Y0081860D01*
X0039544Y0081695D01*
X0039670Y0081569D01*
X0039835Y0081500D01*
X0040015D01*
X0040180Y0081569D01*
X0040306Y0081695D01*
X0040375Y0081860D01*
Y0082040D01*
X0040306Y0082205D01*
X0040180Y0082331D01*
X0040015Y0082400D01*
D02*
G37*
G36*
X0052575Y0088135D02*
X0043900D01*
X0043804Y0088096D01*
X0042454Y0086746D01*
X0042415Y0086650D01*
Y0082413D01*
X0042288Y0082349D01*
X0042165Y0082400D01*
X0041985D01*
X0041820Y0082331D01*
X0041694Y0082205D01*
X0041625Y0082040D01*
Y0081860D01*
X0041694Y0081695D01*
X0041820Y0081569D01*
X0041985Y0081500D01*
X0042165D01*
X0042288Y0081551D01*
X0042415Y0081487D01*
Y0080175D01*
X0042454Y0080079D01*
X0045391Y0077142D01*
X0045353Y0077001D01*
X0045245Y0076956D01*
X0045119Y0076830D01*
X0045050Y0076665D01*
Y0076485D01*
X0045119Y0076320D01*
X0045245Y0076194D01*
X0045410Y0076125D01*
X0045590D01*
X0045755Y0076194D01*
X0045881Y0076320D01*
X0045926Y0076428D01*
X0046067Y0076466D01*
X0049040Y0073494D01*
Y0072701D01*
X0048913Y0072649D01*
X0048855Y0072706D01*
X0048690Y0072775D01*
X0048510D01*
X0048345Y0072706D01*
X0048219Y0072580D01*
X0048150Y0072415D01*
Y0072235D01*
X0048219Y0072070D01*
X0048345Y0071944D01*
X0048510Y0071875D01*
X0048690D01*
X0048855Y0071944D01*
X0048913Y0072001D01*
X0049040Y0071949D01*
Y0070781D01*
X0047519Y0069260D01*
X0042550D01*
X0042454Y0069221D01*
X0038894Y0065660D01*
X0026025D01*
X0025929Y0065621D01*
X0013454Y0053146D01*
X0013415Y0053050D01*
X0013415Y0044325D01*
X0013454Y0044229D01*
X0015715Y0041969D01*
Y0037750D01*
X0015754Y0037654D01*
X0016129Y0037279D01*
X0016225Y0037240D01*
X0016928D01*
X0017012Y0037113D01*
X0016975Y0037024D01*
Y0036845D01*
X0017044Y0036680D01*
X0017170Y0036553D01*
X0017335Y0036485D01*
X0017515D01*
X0017680Y0036553D01*
X0017806Y0036680D01*
X0017875Y0036845D01*
Y0037024D01*
X0017838Y0037113D01*
X0017922Y0037240D01*
X0018075D01*
X0018171Y0037279D01*
X0018571Y0037679D01*
X0018610Y0037775D01*
X0018610Y0042825D01*
X0018571Y0042921D01*
X0015835Y0045656D01*
Y0047974D01*
X0015962Y0048026D01*
X0016045Y0047944D01*
X0016210Y0047875D01*
X0016390D01*
X0016555Y0047944D01*
X0016681Y0048070D01*
X0016750Y0048235D01*
Y0048415D01*
X0016681Y0048580D01*
X0016555Y0048706D01*
X0016390Y0048775D01*
X0016210D01*
X0016045Y0048706D01*
X0015962Y0048624D01*
X0015835Y0048676D01*
Y0051144D01*
X0016306Y0051615D01*
X0017600D01*
X0017696Y0051654D01*
X0019246Y0053204D01*
X0019285Y0053300D01*
Y0054994D01*
X0027406Y0063115D01*
X0042300D01*
X0042396Y0063154D01*
X0044181Y0064940D01*
X0046994D01*
X0049344Y0062590D01*
X0049379Y0062504D01*
X0053641Y0058242D01*
X0053596Y0058108D01*
X0053470Y0058056D01*
X0053344Y0057930D01*
X0053275Y0057765D01*
Y0057585D01*
X0053344Y0057420D01*
X0053470Y0057294D01*
X0053635Y0057225D01*
X0053815D01*
X0053980Y0057294D01*
X0054106Y0057420D01*
X0054158Y0057546D01*
X0054292Y0057591D01*
X0058004Y0053879D01*
X0058100Y0053840D01*
X0077925D01*
X0078021Y0053879D01*
X0078971Y0054829D01*
X0079010Y0054925D01*
Y0056850D01*
X0078971Y0056946D01*
X0078596Y0057321D01*
X0078500Y0057360D01*
X0075650D01*
X0075554Y0057321D01*
X0074644Y0056410D01*
X0067605D01*
X0067580Y0056537D01*
X0067655Y0056569D01*
X0067781Y0056695D01*
X0067850Y0056860D01*
Y0057040D01*
X0067781Y0057205D01*
X0067655Y0057331D01*
X0067490Y0057400D01*
X0067310D01*
X0067145Y0057331D01*
X0067019Y0057205D01*
X0066950Y0057040D01*
Y0056860D01*
X0067019Y0056695D01*
X0067145Y0056569D01*
X0067220Y0056537D01*
X0067195Y0056410D01*
X0065551D01*
X0065499Y0056537D01*
X0065581Y0056620D01*
X0065650Y0056785D01*
Y0056965D01*
X0065581Y0057130D01*
X0065455Y0057256D01*
X0065290Y0057325D01*
X0065110D01*
X0064945Y0057256D01*
X0064819Y0057130D01*
X0064750Y0056965D01*
Y0056785D01*
X0064819Y0056620D01*
X0064901Y0056537D01*
X0064849Y0056410D01*
X0063426D01*
X0063374Y0056537D01*
X0063431Y0056595D01*
X0063500Y0056760D01*
Y0056940D01*
X0063431Y0057105D01*
X0063305Y0057231D01*
X0063140Y0057300D01*
X0062960D01*
X0062795Y0057231D01*
X0062669Y0057105D01*
X0062600Y0056940D01*
Y0056760D01*
X0062669Y0056595D01*
X0062726Y0056537D01*
X0062674Y0056410D01*
X0061276D01*
X0061224Y0056537D01*
X0061256Y0056570D01*
X0061325Y0056735D01*
Y0056915D01*
X0061256Y0057080D01*
X0061130Y0057206D01*
X0060965Y0057275D01*
X0060785D01*
X0060620Y0057206D01*
X0060494Y0057080D01*
X0060425Y0056915D01*
Y0056735D01*
X0060471Y0056625D01*
X0060363Y0056553D01*
X0058814Y0058102D01*
X0058814Y0058102D01*
X0058773Y0058120D01*
X0058800Y0058185D01*
Y0058365D01*
X0058731Y0058530D01*
X0058605Y0058656D01*
X0058440Y0058725D01*
X0058260D01*
X0058195Y0058698D01*
X0058177Y0058739D01*
X0058177Y0058739D01*
X0056858Y0060058D01*
X0056880Y0060169D01*
X0057006Y0060295D01*
X0057075Y0060460D01*
Y0060640D01*
X0057006Y0060805D01*
X0056880Y0060931D01*
X0056715Y0061000D01*
X0056535D01*
X0056370Y0060931D01*
X0056244Y0060805D01*
X0056133Y0060783D01*
X0051785Y0065131D01*
Y0074575D01*
X0051746Y0074671D01*
X0046412Y0080005D01*
X0046399Y0080010D01*
X0046391Y0080021D01*
X0046353Y0080029D01*
X0046316Y0080044D01*
X0046242Y0080081D01*
X0046200Y0080115D01*
Y0080140D01*
X0046131Y0080305D01*
X0046005Y0080431D01*
X0045840Y0080500D01*
X0045815D01*
X0045781Y0080542D01*
X0045744Y0080616D01*
X0045729Y0080653D01*
X0045721Y0080691D01*
X0045710Y0080699D01*
X0045705Y0080712D01*
X0044685Y0081731D01*
Y0084894D01*
X0045562Y0085771D01*
X0045567Y0085783D01*
X0045579Y0085791D01*
X0045586Y0085830D01*
X0045602Y0085866D01*
X0045665Y0085973D01*
X0045667Y0085975D01*
X0045715D01*
X0045856Y0086033D01*
X0045891Y0085948D01*
X0045910Y0085929D01*
X0045920Y0085904D01*
X0045945Y0085894D01*
X0045964Y0085875D01*
X0045991D01*
X0046016Y0085865D01*
X0047439D01*
X0047466Y0085876D01*
X0047495Y0085877D01*
X0047512Y0085895D01*
X0047535Y0085904D01*
X0047546Y0085931D01*
X0047566Y0085953D01*
X0047575Y0085977D01*
X0047685Y0086025D01*
X0047865D01*
X0047975Y0085977D01*
X0047984Y0085953D01*
X0048004Y0085931D01*
X0048015Y0085904D01*
X0048038Y0085895D01*
X0048055Y0085877D01*
X0048084Y0085876D01*
X0048111Y0085865D01*
X0050344D01*
X0055029Y0081179D01*
X0055125Y0081140D01*
X0056200D01*
X0056296Y0081179D01*
X0057221Y0082104D01*
X0057260Y0082200D01*
Y0083450D01*
X0057221Y0083546D01*
X0052671Y0088096D01*
X0052575Y0088135D01*
D02*
G37*
G36*
X0048040Y0080525D02*
X0047860D01*
X0047695Y0080456D01*
X0047569Y0080330D01*
X0047500Y0080165D01*
Y0079985D01*
X0047569Y0079820D01*
X0047695Y0079694D01*
X0047860Y0079625D01*
X0048040D01*
X0048205Y0079694D01*
X0048331Y0079820D01*
X0048400Y0079985D01*
Y0080165D01*
X0048331Y0080330D01*
X0048205Y0080456D01*
X0048040Y0080525D01*
D02*
G37*
G36*
X0038790Y0080500D02*
X0038610D01*
X0038445Y0080431D01*
X0038319Y0080305D01*
X0038250Y0080140D01*
Y0079960D01*
X0038319Y0079795D01*
X0038445Y0079669D01*
X0038610Y0079600D01*
X0038790D01*
X0038955Y0079669D01*
X0039081Y0079795D01*
X0039150Y0079960D01*
Y0080140D01*
X0039081Y0080305D01*
X0038955Y0080431D01*
X0038790Y0080500D01*
D02*
G37*
G36*
X0036790Y0080475D02*
X0036610D01*
X0036445Y0080406D01*
X0036319Y0080280D01*
X0036250Y0080115D01*
Y0079935D01*
X0036319Y0079770D01*
X0036445Y0079644D01*
X0036610Y0079575D01*
X0036790D01*
X0036955Y0079644D01*
X0037081Y0079770D01*
X0037150Y0079935D01*
Y0080115D01*
X0037081Y0080280D01*
X0036955Y0080406D01*
X0036790Y0080475D01*
D02*
G37*
G36*
X0058090Y0090525D02*
X0057910D01*
X0057745Y0090456D01*
X0057619Y0090330D01*
X0057550Y0090165D01*
Y0090022D01*
X0056909Y0089380D01*
X0041725D01*
X0041618Y0089359D01*
X0041527Y0089298D01*
X0041527Y0089298D01*
X0040836Y0088607D01*
X0040775Y0088516D01*
X0040754Y0088409D01*
X0040770Y0088328D01*
Y0084781D01*
X0040669Y0084680D01*
X0040600Y0084515D01*
Y0084335D01*
X0040669Y0084170D01*
X0040770Y0084069D01*
Y0080231D01*
X0040669Y0080130D01*
X0040600Y0079965D01*
Y0079785D01*
X0040669Y0079620D01*
X0040795Y0079494D01*
X0040960Y0079425D01*
X0041140D01*
X0041305Y0079494D01*
X0041431Y0079620D01*
X0041500Y0079785D01*
Y0079965D01*
X0041431Y0080130D01*
X0041330Y0080231D01*
Y0084069D01*
X0041431Y0084170D01*
X0041500Y0084335D01*
Y0084515D01*
X0041431Y0084680D01*
X0041330Y0084781D01*
Y0088309D01*
X0041841Y0088820D01*
X0057025D01*
X0057132Y0088841D01*
X0057223Y0088902D01*
X0057947Y0089625D01*
X0058090D01*
X0058255Y0089694D01*
X0058381Y0089820D01*
X0058450Y0089985D01*
Y0090165D01*
X0058381Y0090330D01*
X0058255Y0090456D01*
X0058090Y0090525D01*
D02*
G37*
G36*
X0024790Y0079525D02*
X0024610D01*
X0024445Y0079456D01*
X0024337Y0079349D01*
X0024230Y0079456D01*
X0024065Y0079525D01*
X0023885D01*
X0023720Y0079456D01*
X0023594Y0079330D01*
X0023583Y0079328D01*
X0023480Y0079431D01*
X0023315Y0079500D01*
X0023135D01*
X0022970Y0079431D01*
X0022844Y0079305D01*
X0022775Y0079140D01*
Y0078960D01*
X0022844Y0078795D01*
X0022970Y0078669D01*
X0023135Y0078600D01*
X0023315D01*
X0023480Y0078669D01*
X0023606Y0078795D01*
X0023617Y0078797D01*
X0023720Y0078694D01*
X0023885Y0078625D01*
X0024065D01*
X0024230Y0078694D01*
X0024337Y0078801D01*
X0024445Y0078694D01*
X0024610Y0078625D01*
X0024790D01*
X0024955Y0078694D01*
X0025081Y0078820D01*
X0025150Y0078985D01*
Y0079165D01*
X0025081Y0079330D01*
X0024955Y0079456D01*
X0024790Y0079525D01*
D02*
G37*
G36*
X0060675Y0091210D02*
X0059300D01*
X0059204Y0091171D01*
X0058779Y0090746D01*
X0058740Y0090650D01*
Y0082206D01*
X0055394Y0078860D01*
X0054206D01*
X0048885Y0084181D01*
Y0084650D01*
X0048846Y0084746D01*
X0048371Y0085221D01*
X0048275Y0085260D01*
X0045552D01*
X0045505Y0085241D01*
X0045457Y0085221D01*
X0045076Y0084844D01*
X0045056Y0084797D01*
X0045035Y0084749D01*
X0045020Y0083375D01*
X0045020Y0083374D01*
X0045020Y0083374D01*
X0045039Y0083326D01*
X0045058Y0083279D01*
X0045058Y0083279D01*
X0045059Y0083278D01*
X0045551Y0082780D01*
X0045552Y0082780D01*
X0045552Y0082779D01*
X0045599Y0082760D01*
X0045647Y0082740D01*
X0045647Y0082740D01*
X0045647Y0082740D01*
X0047019D01*
X0057190Y0072569D01*
Y0064825D01*
X0057229Y0064729D01*
X0058004Y0063954D01*
X0058100Y0063915D01*
X0061350D01*
X0061446Y0063954D01*
X0064356Y0066865D01*
X0075169Y0066865D01*
X0078366Y0063667D01*
X0078335Y0063519D01*
X0078245Y0063481D01*
X0078119Y0063355D01*
X0078050Y0063190D01*
Y0063010D01*
X0078119Y0062845D01*
X0078245Y0062719D01*
X0078410Y0062650D01*
X0078590D01*
X0078755Y0062719D01*
X0078881Y0062845D01*
X0078919Y0062935D01*
X0079067Y0062966D01*
X0079444Y0062590D01*
X0079444Y0062590D01*
X0079444Y0062590D01*
X0079446Y0062587D01*
X0079490Y0062544D01*
X0079490Y0062473D01*
X0079490Y0054306D01*
X0077069Y0051885D01*
X0034856Y0051885D01*
X0031921Y0054821D01*
X0031825Y0054860D01*
X0024750D01*
X0024654Y0054821D01*
X0024004Y0054171D01*
X0023965Y0054075D01*
Y0048681D01*
X0021754Y0046471D01*
X0021715Y0046375D01*
Y0041925D01*
X0021754Y0041829D01*
X0023415Y0040169D01*
Y0032631D01*
X0021679Y0030896D01*
X0021640Y0030800D01*
Y0029200D01*
X0021679Y0029104D01*
X0031954Y0018829D01*
X0032050Y0018790D01*
X0036644Y0018790D01*
X0037315Y0018119D01*
Y0014975D01*
X0037354Y0014879D01*
X0037754Y0014479D01*
X0037850Y0014440D01*
X0039000D01*
X0039096Y0014479D01*
X0039446Y0014829D01*
X0039485Y0014925D01*
Y0020975D01*
X0039446Y0021071D01*
X0038896Y0021621D01*
X0038800Y0021660D01*
X0032706D01*
X0026210Y0028156D01*
Y0030750D01*
Y0030947D01*
X0026248Y0030967D01*
X0026337Y0030986D01*
X0026445Y0030878D01*
X0026610Y0030810D01*
X0026790D01*
X0026955Y0030878D01*
X0027081Y0031005D01*
X0027150Y0031170D01*
Y0031349D01*
X0027081Y0031514D01*
X0026955Y0031641D01*
X0026790Y0031710D01*
X0026610D01*
X0026445Y0031641D01*
X0026337Y0031533D01*
X0026248Y0031552D01*
X0026210Y0031572D01*
Y0036372D01*
X0026248Y0036392D01*
X0026337Y0036411D01*
X0026445Y0036303D01*
X0026610Y0036235D01*
X0026790D01*
X0026955Y0036303D01*
X0027081Y0036430D01*
X0027150Y0036595D01*
Y0036774D01*
X0027081Y0036939D01*
X0026955Y0037066D01*
X0026790Y0037135D01*
X0026610D01*
X0026445Y0037066D01*
X0026337Y0036958D01*
X0026248Y0036977D01*
X0026210Y0036997D01*
Y0041000D01*
X0026171Y0041096D01*
X0024260Y0043006D01*
Y0044469D01*
X0026340Y0046549D01*
X0026420Y0046469D01*
X0026585Y0046400D01*
X0026765D01*
X0026930Y0046469D01*
X0027056Y0046595D01*
X0027125Y0046760D01*
Y0046940D01*
X0027056Y0047105D01*
X0026930Y0047231D01*
X0026765Y0047300D01*
X0026585D01*
X0026535Y0047334D01*
X0026535Y0050869D01*
X0027281Y0051615D01*
X0029219D01*
X0031504Y0049329D01*
X0031600Y0049290D01*
X0072431Y0049290D01*
X0072444Y0049295D01*
X0072458Y0049292D01*
X0072491Y0049314D01*
X0072527Y0049329D01*
X0072641Y0049293D01*
X0072653Y0049285D01*
X0072695Y0049244D01*
X0072860Y0049175D01*
X0073040D01*
X0073205Y0049244D01*
X0073247Y0049285D01*
X0073259Y0049293D01*
X0073373Y0049329D01*
X0073409Y0049314D01*
X0073442Y0049292D01*
X0073456Y0049295D01*
X0073469Y0049290D01*
X0074443D01*
X0074456Y0049295D01*
X0074469Y0049292D01*
X0074539Y0049329D01*
X0074644Y0049269D01*
X0074645Y0049269D01*
X0074695Y0049219D01*
X0074860Y0049150D01*
X0075040D01*
X0075205Y0049219D01*
X0075270Y0049284D01*
X0075286Y0049292D01*
X0075386Y0049326D01*
X0075451Y0049303D01*
X0075470Y0049291D01*
X0075481Y0049294D01*
X0075492Y0049290D01*
X0077000D01*
X0077025Y0049300D01*
X0077069Y0049195D01*
X0077195Y0049069D01*
X0077360Y0049000D01*
X0077540D01*
X0077705Y0049069D01*
X0077831Y0049195D01*
X0077875Y0049300D01*
X0077900Y0049290D01*
X0078475D01*
X0078571Y0049329D01*
X0079024Y0049782D01*
X0079119Y0049705D01*
X0079050Y0049540D01*
Y0049360D01*
X0079119Y0049195D01*
X0079245Y0049069D01*
X0079410Y0049000D01*
X0079590D01*
X0079755Y0049069D01*
X0079881Y0049195D01*
X0079950Y0049360D01*
Y0049540D01*
X0079881Y0049705D01*
X0079755Y0049831D01*
X0079590Y0049900D01*
X0079410D01*
X0079245Y0049831D01*
X0079168Y0049926D01*
X0079358Y0050116D01*
X0079363Y0050129D01*
X0079374Y0050137D01*
X0079382Y0050175D01*
X0079397Y0050212D01*
X0079508Y0050275D01*
X0079565D01*
X0079730Y0050344D01*
X0079856Y0050470D01*
X0079925Y0050635D01*
Y0050693D01*
X0079946Y0050741D01*
X0079997Y0050812D01*
X0080036Y0050828D01*
X0080078Y0050838D01*
X0080083Y0050848D01*
X0080093Y0050852D01*
X0082296Y0053054D01*
X0082335Y0053150D01*
Y0063869D01*
X0085031Y0066565D01*
X0086975D01*
X0087071Y0066604D01*
X0087421Y0066954D01*
X0087460Y0067050D01*
Y0068475D01*
X0087421Y0068571D01*
X0087133Y0068858D01*
X0087037Y0068898D01*
X0076488D01*
X0076457Y0068885D01*
X0062850D01*
X0062754Y0068846D01*
X0060819Y0066910D01*
X0059831D01*
X0059310Y0067431D01*
Y0074075D01*
X0059271Y0074171D01*
X0057460Y0075981D01*
Y0076919D01*
X0060971Y0080429D01*
X0061010Y0080525D01*
Y0082495D01*
X0060995Y0082531D01*
X0060987Y0082570D01*
X0060976Y0082578D01*
X0060971Y0082591D01*
X0060937Y0082605D01*
X0060930Y0082626D01*
Y0082724D01*
X0060937Y0082745D01*
X0060971Y0082759D01*
X0060976Y0082772D01*
X0060987Y0082780D01*
X0060995Y0082819D01*
X0061010Y0082855D01*
Y0089219D01*
X0061296Y0089504D01*
X0061335Y0089600D01*
Y0090550D01*
X0061296Y0090646D01*
X0060771Y0091171D01*
X0060675Y0091210D01*
D02*
G37*
G36*
X0043815Y0077025D02*
X0043635D01*
X0043470Y0076956D01*
X0043344Y0076830D01*
X0043275Y0076665D01*
Y0076485D01*
X0043344Y0076320D01*
X0043470Y0076194D01*
X0043635Y0076125D01*
X0043815D01*
X0043980Y0076194D01*
X0044106Y0076320D01*
X0044175Y0076485D01*
Y0076665D01*
X0044106Y0076830D01*
X0043980Y0076956D01*
X0043815Y0077025D01*
D02*
G37*
G36*
X0042090D02*
X0041910D01*
X0041745Y0076956D01*
X0041619Y0076830D01*
X0041550Y0076665D01*
Y0076485D01*
X0041619Y0076320D01*
X0041745Y0076194D01*
X0041910Y0076125D01*
X0042090D01*
X0042255Y0076194D01*
X0042381Y0076320D01*
X0042450Y0076485D01*
Y0076665D01*
X0042381Y0076830D01*
X0042255Y0076956D01*
X0042090Y0077025D01*
D02*
G37*
G36*
X0040340Y0077000D02*
X0040160D01*
X0039995Y0076931D01*
X0039869Y0076805D01*
X0039800Y0076640D01*
Y0076460D01*
X0039869Y0076295D01*
X0039995Y0076169D01*
X0040160Y0076100D01*
X0040340D01*
X0040505Y0076169D01*
X0040631Y0076295D01*
X0040700Y0076460D01*
Y0076640D01*
X0040631Y0076805D01*
X0040505Y0076931D01*
X0040340Y0077000D01*
D02*
G37*
G36*
X0046565Y0073625D02*
X0046385D01*
X0046220Y0073556D01*
X0046094Y0073430D01*
X0046025Y0073265D01*
Y0073085D01*
X0046094Y0072920D01*
X0046220Y0072794D01*
X0046385Y0072725D01*
X0046565D01*
X0046730Y0072794D01*
X0046856Y0072920D01*
X0046925Y0073085D01*
Y0073265D01*
X0046856Y0073430D01*
X0046730Y0073556D01*
X0046565Y0073625D01*
D02*
G37*
G36*
X0039365Y0073600D02*
X0039185D01*
X0039020Y0073531D01*
X0038894Y0073405D01*
X0038825Y0073240D01*
Y0073060D01*
X0038894Y0072895D01*
X0039020Y0072769D01*
X0039185Y0072700D01*
X0039365D01*
X0039530Y0072769D01*
X0039656Y0072895D01*
X0039725Y0073060D01*
Y0073240D01*
X0039656Y0073405D01*
X0039530Y0073531D01*
X0039365Y0073600D01*
D02*
G37*
G36*
X0036240Y0072750D02*
X0036060D01*
X0035895Y0072681D01*
X0035769Y0072555D01*
X0035700Y0072390D01*
Y0072210D01*
X0035769Y0072045D01*
X0035895Y0071919D01*
X0036060Y0071850D01*
X0036240D01*
X0036405Y0071919D01*
X0036531Y0072045D01*
X0036600Y0072210D01*
Y0072390D01*
X0036531Y0072555D01*
X0036405Y0072681D01*
X0036240Y0072750D01*
D02*
G37*
G36*
X0034265Y0072725D02*
X0034085D01*
X0033920Y0072656D01*
X0033794Y0072530D01*
X0033725Y0072365D01*
Y0072185D01*
X0033794Y0072020D01*
X0033920Y0071894D01*
X0034085Y0071825D01*
X0034265D01*
X0034430Y0071894D01*
X0034556Y0072020D01*
X0034625Y0072185D01*
Y0072365D01*
X0034556Y0072530D01*
X0034430Y0072656D01*
X0034265Y0072725D01*
D02*
G37*
G36*
X0042640Y0072175D02*
X0042460D01*
X0042295Y0072106D01*
X0042169Y0071980D01*
X0042100Y0071815D01*
Y0071635D01*
X0042169Y0071470D01*
X0042295Y0071344D01*
X0042460Y0071275D01*
X0042640D01*
X0042805Y0071344D01*
X0042931Y0071470D01*
X0043000Y0071635D01*
Y0071815D01*
X0042931Y0071980D01*
X0042805Y0072106D01*
X0042640Y0072175D01*
D02*
G37*
G36*
X0039365Y0071600D02*
X0039185D01*
X0039020Y0071531D01*
X0038894Y0071405D01*
X0038825Y0071240D01*
Y0071060D01*
X0038894Y0070895D01*
X0039020Y0070769D01*
X0039185Y0070700D01*
X0039365D01*
X0039530Y0070769D01*
X0039656Y0070895D01*
X0039725Y0071060D01*
Y0071240D01*
X0039656Y0071405D01*
X0039530Y0071531D01*
X0039365Y0071600D01*
D02*
G37*
G36*
X0046540Y0071575D02*
X0046360D01*
X0046195Y0071506D01*
X0046069Y0071380D01*
X0046000Y0071215D01*
Y0071035D01*
X0046069Y0070870D01*
X0046195Y0070744D01*
X0046360Y0070675D01*
X0046540D01*
X0046705Y0070744D01*
X0046831Y0070870D01*
X0046900Y0071035D01*
Y0071215D01*
X0046831Y0071380D01*
X0046705Y0071506D01*
X0046540Y0071575D01*
D02*
G37*
G36*
X0017706Y0070605D02*
X0017394D01*
X0017089Y0070544D01*
X0016802Y0070425D01*
X0016543Y0070252D01*
X0016323Y0070032D01*
X0016150Y0069773D01*
X0016031Y0069486D01*
X0015970Y0069181D01*
Y0068869D01*
X0016031Y0068564D01*
X0016150Y0068277D01*
X0016323Y0068018D01*
X0016543Y0067798D01*
X0016802Y0067625D01*
X0017089Y0067506D01*
X0017394Y0067445D01*
X0017706D01*
X0018011Y0067506D01*
X0018298Y0067625D01*
X0018557Y0067798D01*
X0018777Y0068018D01*
X0018950Y0068277D01*
X0019069Y0068564D01*
X0019130Y0068869D01*
Y0069181D01*
X0019069Y0069486D01*
X0018950Y0069773D01*
X0018777Y0070032D01*
X0018557Y0070252D01*
X0018298Y0070425D01*
X0018011Y0070544D01*
X0017706Y0070605D01*
D02*
G37*
G36*
X0066190Y0066225D02*
X0066010D01*
X0065845Y0066156D01*
X0065718Y0066030D01*
X0065650Y0065865D01*
Y0065685D01*
X0065718Y0065520D01*
X0065845Y0065394D01*
X0066010Y0065325D01*
X0066190D01*
X0066355Y0065394D01*
X0066481Y0065520D01*
X0066550Y0065685D01*
Y0065865D01*
X0066481Y0066030D01*
X0066355Y0066156D01*
X0066190Y0066225D01*
D02*
G37*
G36*
X0086340Y0066200D02*
X0086160D01*
X0085995Y0066131D01*
X0085868Y0066005D01*
X0085800Y0065840D01*
Y0065660D01*
X0085868Y0065495D01*
X0085995Y0065369D01*
X0086160Y0065300D01*
X0086340D01*
X0086505Y0065369D01*
X0086631Y0065495D01*
X0086700Y0065660D01*
Y0065840D01*
X0086631Y0066005D01*
X0086505Y0066131D01*
X0086340Y0066200D01*
D02*
G37*
G36*
X0067765Y0064175D02*
X0067585D01*
X0067420Y0064106D01*
X0067294Y0063980D01*
X0067225Y0063815D01*
Y0063635D01*
X0067294Y0063470D01*
X0067420Y0063344D01*
X0067585Y0063275D01*
X0067765D01*
X0067930Y0063344D01*
X0068056Y0063470D01*
X0068125Y0063635D01*
Y0063815D01*
X0068056Y0063980D01*
X0067930Y0064106D01*
X0067765Y0064175D01*
D02*
G37*
G36*
X0087915Y0064150D02*
X0087735D01*
X0087570Y0064081D01*
X0087443Y0063955D01*
X0087375Y0063790D01*
Y0063610D01*
X0087443Y0063445D01*
X0087570Y0063319D01*
X0087735Y0063250D01*
X0087915D01*
X0088080Y0063319D01*
X0088206Y0063445D01*
X0088275Y0063610D01*
Y0063790D01*
X0088206Y0063955D01*
X0088080Y0064081D01*
X0087915Y0064150D01*
D02*
G37*
G36*
X0065413Y0063619D02*
X0065234D01*
X0065069Y0063550D01*
X0064942Y0063424D01*
X0064874Y0063258D01*
Y0063079D01*
X0064942Y0062914D01*
X0065069Y0062787D01*
X0065234Y0062719D01*
X0065413D01*
X0065578Y0062787D01*
X0065705Y0062914D01*
X0065774Y0063079D01*
Y0063258D01*
X0065705Y0063424D01*
X0065578Y0063550D01*
X0065413Y0063619D01*
D02*
G37*
G36*
X0085563Y0063594D02*
X0085384D01*
X0085219Y0063525D01*
X0085092Y0063399D01*
X0085024Y0063233D01*
Y0063054D01*
X0085092Y0062889D01*
X0085219Y0062762D01*
X0085384Y0062694D01*
X0085563D01*
X0085728Y0062762D01*
X0085855Y0062889D01*
X0085924Y0063054D01*
Y0063233D01*
X0085855Y0063399D01*
X0085728Y0063525D01*
X0085563Y0063594D01*
D02*
G37*
G36*
X0058440Y0063575D02*
X0058260D01*
X0058095Y0063506D01*
X0057969Y0063380D01*
X0057900Y0063215D01*
Y0063035D01*
X0057969Y0062870D01*
X0058095Y0062744D01*
X0058260Y0062675D01*
X0058440D01*
X0058605Y0062744D01*
X0058731Y0062870D01*
X0058800Y0063035D01*
Y0063215D01*
X0058731Y0063380D01*
X0058605Y0063506D01*
X0058440Y0063575D01*
D02*
G37*
G36*
X0076865Y0060975D02*
X0076685D01*
X0076520Y0060906D01*
X0076394Y0060780D01*
X0076325Y0060615D01*
Y0060435D01*
X0076394Y0060270D01*
X0076520Y0060144D01*
X0076685Y0060075D01*
X0076865D01*
X0077030Y0060144D01*
X0077156Y0060270D01*
X0077225Y0060435D01*
Y0060615D01*
X0077156Y0060780D01*
X0077030Y0060906D01*
X0076865Y0060975D01*
D02*
G37*
G36*
X0072915Y0060950D02*
X0072735D01*
X0072570Y0060881D01*
X0072444Y0060755D01*
X0072375Y0060590D01*
Y0060410D01*
X0072444Y0060245D01*
X0072570Y0060119D01*
X0072735Y0060050D01*
X0072915D01*
X0073080Y0060119D01*
X0073206Y0060245D01*
X0073275Y0060410D01*
Y0060590D01*
X0073206Y0060755D01*
X0073080Y0060881D01*
X0072915Y0060950D01*
D02*
G37*
G36*
X0041024Y0061205D02*
X0040656D01*
X0040300Y0061110D01*
X0039980Y0060925D01*
X0039720Y0060665D01*
X0039535Y0060345D01*
X0039440Y0059989D01*
Y0059621D01*
X0039535Y0059265D01*
X0039720Y0058945D01*
X0039980Y0058685D01*
X0040300Y0058500D01*
X0040656Y0058405D01*
X0041024D01*
X0041380Y0058500D01*
X0041700Y0058685D01*
X0041960Y0058945D01*
X0042145Y0059265D01*
X0042240Y0059621D01*
Y0059989D01*
X0042145Y0060345D01*
X0041960Y0060665D01*
X0041700Y0060925D01*
X0041380Y0061110D01*
X0041024Y0061205D01*
D02*
G37*
G36*
X0035944D02*
X0035576D01*
X0035220Y0061110D01*
X0034900Y0060925D01*
X0034640Y0060665D01*
X0034455Y0060345D01*
X0034360Y0059989D01*
Y0059621D01*
X0034455Y0059265D01*
X0034640Y0058945D01*
X0034900Y0058685D01*
X0035220Y0058500D01*
X0035576Y0058405D01*
X0035944D01*
X0036300Y0058500D01*
X0036620Y0058685D01*
X0036880Y0058945D01*
X0037065Y0059265D01*
X0037160Y0059621D01*
Y0059989D01*
X0037065Y0060345D01*
X0036880Y0060665D01*
X0036620Y0060925D01*
X0036300Y0061110D01*
X0035944Y0061205D01*
D02*
G37*
G36*
X0078590Y0058700D02*
X0078410D01*
X0078245Y0058631D01*
X0078119Y0058505D01*
X0078050Y0058340D01*
Y0058160D01*
X0078119Y0057995D01*
X0078245Y0057869D01*
X0078410Y0057800D01*
X0078590D01*
X0078755Y0057869D01*
X0078881Y0057995D01*
X0078950Y0058160D01*
Y0058340D01*
X0078881Y0058505D01*
X0078755Y0058631D01*
X0078590Y0058700D01*
D02*
G37*
G36*
X0005515Y0058625D02*
X0005335D01*
X0005170Y0058556D01*
X0005044Y0058430D01*
X0004975Y0058265D01*
Y0058085D01*
X0005044Y0057920D01*
X0005170Y0057794D01*
X0005335Y0057725D01*
X0005515D01*
X0005680Y0057794D01*
X0005806Y0057920D01*
X0005875Y0058085D01*
Y0058265D01*
X0005806Y0058430D01*
X0005680Y0058556D01*
X0005515Y0058625D01*
D02*
G37*
G36*
X0087640Y0057375D02*
X0087460D01*
X0087295Y0057306D01*
X0087169Y0057180D01*
X0087100Y0057015D01*
Y0056835D01*
X0087169Y0056670D01*
X0087295Y0056544D01*
X0087460Y0056475D01*
X0087640D01*
X0087805Y0056544D01*
X0087931Y0056670D01*
X0088000Y0056835D01*
Y0057015D01*
X0087931Y0057180D01*
X0087805Y0057306D01*
X0087640Y0057375D01*
D02*
G37*
G36*
X0085440Y0057300D02*
X0085260D01*
X0085095Y0057231D01*
X0084969Y0057105D01*
X0084900Y0056940D01*
Y0056760D01*
X0084969Y0056595D01*
X0085095Y0056469D01*
X0085260Y0056400D01*
X0085440D01*
X0085605Y0056469D01*
X0085731Y0056595D01*
X0085800Y0056760D01*
Y0056940D01*
X0085731Y0057105D01*
X0085605Y0057231D01*
X0085440Y0057300D01*
D02*
G37*
G36*
X0083290Y0057275D02*
X0083110D01*
X0082945Y0057206D01*
X0082819Y0057080D01*
X0082750Y0056915D01*
Y0056735D01*
X0082819Y0056570D01*
X0082945Y0056444D01*
X0083110Y0056375D01*
X0083290D01*
X0083455Y0056444D01*
X0083581Y0056570D01*
X0083650Y0056735D01*
Y0056915D01*
X0083581Y0057080D01*
X0083455Y0057206D01*
X0083290Y0057275D01*
D02*
G37*
G36*
X0038465Y0058515D02*
X0038135D01*
X0037818Y0058430D01*
X0037532Y0058265D01*
X0037300Y0058033D01*
X0037135Y0057747D01*
X0037050Y0057430D01*
Y0057100D01*
X0037135Y0056783D01*
X0037300Y0056497D01*
X0037532Y0056265D01*
X0037818Y0056100D01*
X0038135Y0056015D01*
X0038465D01*
X0038782Y0056100D01*
X0039068Y0056265D01*
X0039300Y0056497D01*
X0039465Y0056783D01*
X0039550Y0057100D01*
Y0057430D01*
X0039465Y0057747D01*
X0039300Y0058033D01*
X0039068Y0058265D01*
X0038782Y0058430D01*
X0038465Y0058515D01*
D02*
G37*
G36*
X0021090Y0055775D02*
X0020910D01*
X0020745Y0055706D01*
X0020619Y0055580D01*
X0020550Y0055415D01*
Y0055235D01*
X0020619Y0055070D01*
X0020745Y0054944D01*
X0020910Y0054875D01*
X0021090D01*
X0021255Y0054944D01*
X0021381Y0055070D01*
X0021450Y0055235D01*
Y0055415D01*
X0021381Y0055580D01*
X0021255Y0055706D01*
X0021090Y0055775D01*
D02*
G37*
G36*
X0046265Y0055725D02*
X0046085D01*
X0045920Y0055656D01*
X0045794Y0055530D01*
X0045725Y0055365D01*
Y0055185D01*
X0045794Y0055020D01*
X0045920Y0054894D01*
X0046085Y0054825D01*
X0046265D01*
X0046430Y0054894D01*
X0046556Y0055020D01*
X0046625Y0055185D01*
Y0055365D01*
X0046556Y0055530D01*
X0046430Y0055656D01*
X0046265Y0055725D01*
D02*
G37*
G36*
X0041024Y0056125D02*
X0040656D01*
X0040300Y0056030D01*
X0039980Y0055845D01*
X0039720Y0055585D01*
X0039535Y0055265D01*
X0039440Y0054909D01*
Y0054541D01*
X0039535Y0054185D01*
X0039720Y0053865D01*
X0039980Y0053605D01*
X0040300Y0053420D01*
X0040656Y0053325D01*
X0041024D01*
X0041380Y0053420D01*
X0041700Y0053605D01*
X0041960Y0053865D01*
X0042145Y0054185D01*
X0042240Y0054541D01*
Y0054909D01*
X0042145Y0055265D01*
X0041960Y0055585D01*
X0041700Y0055845D01*
X0041380Y0056030D01*
X0041024Y0056125D01*
D02*
G37*
G36*
X0035944D02*
X0035576D01*
X0035220Y0056030D01*
X0034900Y0055845D01*
X0034640Y0055585D01*
X0034455Y0055265D01*
X0034360Y0054909D01*
Y0054541D01*
X0034455Y0054185D01*
X0034640Y0053865D01*
X0034900Y0053605D01*
X0035220Y0053420D01*
X0035576Y0053325D01*
X0035944D01*
X0036300Y0053420D01*
X0036620Y0053605D01*
X0036880Y0053865D01*
X0037065Y0054185D01*
X0037160Y0054541D01*
Y0054909D01*
X0037065Y0055265D01*
X0036880Y0055585D01*
X0036620Y0055845D01*
X0036300Y0056030D01*
X0035944Y0056125D01*
D02*
G37*
G36*
X0046290Y0054075D02*
X0046110D01*
X0045945Y0054006D01*
X0045819Y0053880D01*
X0045750Y0053715D01*
Y0053535D01*
X0045819Y0053370D01*
X0045945Y0053244D01*
X0046110Y0053175D01*
X0046290D01*
X0046455Y0053244D01*
X0046581Y0053370D01*
X0046650Y0053535D01*
Y0053715D01*
X0046581Y0053880D01*
X0046455Y0054006D01*
X0046290Y0054075D01*
D02*
G37*
G36*
X0021090Y0053775D02*
X0020910D01*
X0020745Y0053706D01*
X0020619Y0053580D01*
X0020550Y0053415D01*
Y0053235D01*
X0020619Y0053070D01*
X0020745Y0052944D01*
X0020910Y0052875D01*
X0021090D01*
X0021255Y0052944D01*
X0021381Y0053070D01*
X0021450Y0053235D01*
Y0053415D01*
X0021381Y0053580D01*
X0021255Y0053706D01*
X0021090Y0053775D01*
D02*
G37*
G36*
X0022065Y0052550D02*
X0021885D01*
X0021720Y0052481D01*
X0021594Y0052355D01*
X0021525Y0052190D01*
Y0052010D01*
X0021594Y0051845D01*
X0021720Y0051719D01*
X0021885Y0051650D01*
X0022065D01*
X0022230Y0051719D01*
X0022356Y0051845D01*
X0022425Y0052010D01*
Y0052190D01*
X0022356Y0052355D01*
X0022230Y0052481D01*
X0022065Y0052550D01*
D02*
G37*
G36*
X0020465Y0051800D02*
X0020285D01*
X0020120Y0051731D01*
X0019994Y0051605D01*
X0019925Y0051440D01*
Y0051260D01*
X0019994Y0051095D01*
X0020120Y0050969D01*
X0020285Y0050900D01*
X0020465D01*
X0020630Y0050969D01*
X0020756Y0051095D01*
X0020825Y0051260D01*
Y0051440D01*
X0020756Y0051605D01*
X0020630Y0051731D01*
X0020465Y0051800D01*
D02*
G37*
G36*
X0084090Y0051650D02*
X0083910D01*
X0083745Y0051581D01*
X0083619Y0051455D01*
X0083550Y0051290D01*
Y0051110D01*
X0083619Y0050945D01*
X0083745Y0050819D01*
X0083910Y0050750D01*
X0084090D01*
X0084255Y0050819D01*
X0084381Y0050945D01*
X0084450Y0051110D01*
Y0051290D01*
X0084381Y0051455D01*
X0084255Y0051581D01*
X0084090Y0051650D01*
D02*
G37*
G36*
X0082040D02*
X0081860D01*
X0081695Y0051581D01*
X0081569Y0051455D01*
X0081500Y0051290D01*
Y0051110D01*
X0081569Y0050945D01*
X0081695Y0050819D01*
X0081860Y0050750D01*
X0082040D01*
X0082205Y0050819D01*
X0082331Y0050945D01*
X0082400Y0051110D01*
Y0051290D01*
X0082331Y0051455D01*
X0082205Y0051581D01*
X0082040Y0051650D01*
D02*
G37*
G36*
X0092340Y0050350D02*
X0092160D01*
X0091995Y0050281D01*
X0091869Y0050155D01*
X0091800Y0049990D01*
Y0049810D01*
X0091869Y0049645D01*
X0091995Y0049519D01*
X0092160Y0049450D01*
X0092340D01*
X0092505Y0049519D01*
X0092631Y0049645D01*
X0092700Y0049810D01*
Y0049990D01*
X0092631Y0050155D01*
X0092505Y0050281D01*
X0092340Y0050350D01*
D02*
G37*
G36*
X0096040Y0050325D02*
X0095860D01*
X0095695Y0050256D01*
X0095569Y0050130D01*
X0095500Y0049965D01*
Y0049785D01*
X0095569Y0049620D01*
X0095695Y0049494D01*
X0095860Y0049425D01*
X0096040D01*
X0096205Y0049494D01*
X0096331Y0049620D01*
X0096400Y0049785D01*
Y0049965D01*
X0096331Y0050130D01*
X0096205Y0050256D01*
X0096040Y0050325D01*
D02*
G37*
G36*
X0005498Y0050121D02*
X0005319D01*
X0005154Y0050053D01*
X0005027Y0049926D01*
X0004959Y0049761D01*
Y0049582D01*
X0005027Y0049416D01*
X0005154Y0049290D01*
X0005319Y0049221D01*
X0005498D01*
X0005664Y0049290D01*
X0005790Y0049416D01*
X0005859Y0049582D01*
Y0049761D01*
X0005790Y0049926D01*
X0005664Y0050053D01*
X0005498Y0050121D01*
D02*
G37*
G36*
X0097765Y0049400D02*
X0097585D01*
X0097420Y0049331D01*
X0097294Y0049205D01*
X0097225Y0049040D01*
Y0048860D01*
X0097294Y0048695D01*
X0097420Y0048569D01*
X0097585Y0048500D01*
X0097765D01*
X0097930Y0048569D01*
X0098056Y0048695D01*
X0098125Y0048860D01*
Y0049040D01*
X0098056Y0049205D01*
X0097930Y0049331D01*
X0097765Y0049400D01*
D02*
G37*
G36*
X0094190Y0049375D02*
X0094010D01*
X0093845Y0049306D01*
X0093719Y0049180D01*
X0093650Y0049015D01*
Y0048835D01*
X0093719Y0048670D01*
X0093845Y0048544D01*
X0094010Y0048475D01*
X0094190D01*
X0094355Y0048544D01*
X0094481Y0048670D01*
X0094550Y0048835D01*
Y0049015D01*
X0094481Y0049180D01*
X0094355Y0049306D01*
X0094190Y0049375D01*
D02*
G37*
G36*
X0090640D02*
X0090460D01*
X0090295Y0049306D01*
X0090169Y0049180D01*
X0090100Y0049015D01*
Y0048835D01*
X0090169Y0048670D01*
X0090295Y0048544D01*
X0090460Y0048475D01*
X0090640D01*
X0090805Y0048544D01*
X0090931Y0048670D01*
X0091000Y0048835D01*
Y0049015D01*
X0090931Y0049180D01*
X0090805Y0049306D01*
X0090640Y0049375D01*
D02*
G37*
G36*
X0092340Y0048450D02*
X0092160D01*
X0091995Y0048381D01*
X0091869Y0048255D01*
X0091800Y0048090D01*
Y0047910D01*
X0091869Y0047745D01*
X0091995Y0047619D01*
X0092160Y0047550D01*
X0092340D01*
X0092505Y0047619D01*
X0092631Y0047745D01*
X0092700Y0047910D01*
Y0048090D01*
X0092631Y0048255D01*
X0092505Y0048381D01*
X0092340Y0048450D01*
D02*
G37*
G36*
X0096065Y0048400D02*
X0095885D01*
X0095720Y0048331D01*
X0095594Y0048205D01*
X0095525Y0048040D01*
Y0047860D01*
X0095594Y0047695D01*
X0095720Y0047569D01*
X0095885Y0047500D01*
X0096065D01*
X0096230Y0047569D01*
X0096356Y0047695D01*
X0096425Y0047860D01*
Y0048040D01*
X0096356Y0048205D01*
X0096230Y0048331D01*
X0096065Y0048400D01*
D02*
G37*
G36*
X0018590Y0047125D02*
X0018410D01*
X0018245Y0047056D01*
X0018119Y0046930D01*
X0018050Y0046765D01*
Y0046585D01*
X0018119Y0046420D01*
X0018245Y0046294D01*
X0018410Y0046225D01*
X0018590D01*
X0018755Y0046294D01*
X0018881Y0046420D01*
X0018950Y0046585D01*
Y0046765D01*
X0018881Y0046930D01*
X0018755Y0047056D01*
X0018590Y0047125D01*
D02*
G37*
G36*
X0017490Y0046775D02*
X0017310D01*
X0017145Y0046706D01*
X0017019Y0046580D01*
X0016950Y0046415D01*
Y0046235D01*
X0017019Y0046070D01*
X0017145Y0045944D01*
X0017310Y0045875D01*
X0017490D01*
X0017655Y0045944D01*
X0017781Y0046070D01*
X0017850Y0046235D01*
Y0046415D01*
X0017781Y0046580D01*
X0017655Y0046706D01*
X0017490Y0046775D01*
D02*
G37*
G36*
X0005498Y0046285D02*
X0005319D01*
X0005154Y0046216D01*
X0005027Y0046090D01*
X0004959Y0045924D01*
Y0045745D01*
X0005027Y0045580D01*
X0005154Y0045453D01*
X0005319Y0045385D01*
X0005498D01*
X0005664Y0045453D01*
X0005790Y0045580D01*
X0005859Y0045745D01*
Y0045924D01*
X0005790Y0046090D01*
X0005664Y0046216D01*
X0005498Y0046285D01*
D02*
G37*
G36*
X0082015Y0046275D02*
X0081835D01*
X0081670Y0046206D01*
X0081544Y0046080D01*
X0081475Y0045915D01*
Y0045735D01*
X0081544Y0045570D01*
X0081670Y0045444D01*
X0081835Y0045375D01*
X0082015D01*
X0082180Y0045444D01*
X0082306Y0045570D01*
X0082375Y0045735D01*
Y0045915D01*
X0082306Y0046080D01*
X0082180Y0046206D01*
X0082015Y0046275D01*
D02*
G37*
G36*
X0080215D02*
X0080035D01*
X0079870Y0046206D01*
X0079744Y0046080D01*
X0079675Y0045915D01*
Y0045735D01*
X0079744Y0045570D01*
X0079870Y0045444D01*
X0080035Y0045375D01*
X0080215D01*
X0080380Y0045444D01*
X0080506Y0045570D01*
X0080575Y0045735D01*
Y0045915D01*
X0080506Y0046080D01*
X0080380Y0046206D01*
X0080215Y0046275D01*
D02*
G37*
G36*
X0019490Y0046000D02*
X0019310D01*
X0019145Y0045931D01*
X0019019Y0045805D01*
X0018950Y0045640D01*
Y0045460D01*
X0019019Y0045295D01*
X0019145Y0045169D01*
X0019310Y0045100D01*
X0019490D01*
X0019655Y0045169D01*
X0019781Y0045295D01*
X0019850Y0045460D01*
Y0045640D01*
X0019781Y0045805D01*
X0019655Y0045931D01*
X0019490Y0046000D01*
D02*
G37*
G36*
X0043340Y0045975D02*
X0043160D01*
X0042995Y0045906D01*
X0042869Y0045780D01*
X0042800Y0045615D01*
Y0045435D01*
X0042869Y0045270D01*
X0042995Y0045144D01*
X0043160Y0045075D01*
X0043340D01*
X0043505Y0045144D01*
X0043631Y0045270D01*
X0043700Y0045435D01*
Y0045615D01*
X0043631Y0045780D01*
X0043505Y0045906D01*
X0043340Y0045975D01*
D02*
G37*
G36*
X0086665Y0045850D02*
X0086485D01*
X0086320Y0045781D01*
X0086194Y0045655D01*
X0086125Y0045490D01*
Y0045310D01*
X0086194Y0045145D01*
X0086320Y0045019D01*
X0086485Y0044950D01*
X0086665D01*
X0086830Y0045019D01*
X0086956Y0045145D01*
X0087025Y0045310D01*
Y0045490D01*
X0086956Y0045655D01*
X0086830Y0045781D01*
X0086665Y0045850D01*
D02*
G37*
G36*
X0075790Y0045500D02*
X0075610D01*
X0075445Y0045431D01*
X0075319Y0045305D01*
X0075250Y0045140D01*
Y0044960D01*
X0075319Y0044795D01*
X0075445Y0044669D01*
X0075610Y0044600D01*
X0075790D01*
X0075955Y0044669D01*
X0076081Y0044795D01*
X0076150Y0044960D01*
Y0045140D01*
X0076081Y0045305D01*
X0075955Y0045431D01*
X0075790Y0045500D01*
D02*
G37*
G36*
X0079290Y0045450D02*
X0079110D01*
X0078945Y0045381D01*
X0078819Y0045255D01*
X0078750Y0045090D01*
Y0044910D01*
X0078819Y0044745D01*
X0078945Y0044619D01*
X0079110Y0044550D01*
X0079290D01*
X0079455Y0044619D01*
X0079581Y0044745D01*
X0079650Y0044910D01*
Y0045090D01*
X0079581Y0045255D01*
X0079455Y0045381D01*
X0079290Y0045450D01*
D02*
G37*
G36*
X0072165Y0045375D02*
X0071985D01*
X0071820Y0045306D01*
X0071694Y0045180D01*
X0071625Y0045015D01*
Y0044835D01*
X0071694Y0044670D01*
X0071820Y0044544D01*
X0071985Y0044475D01*
X0072165D01*
X0072330Y0044544D01*
X0072456Y0044670D01*
X0072525Y0044835D01*
Y0045015D01*
X0072456Y0045180D01*
X0072330Y0045306D01*
X0072165Y0045375D01*
D02*
G37*
G36*
X0043365Y0044425D02*
X0043185D01*
X0043020Y0044356D01*
X0042894Y0044230D01*
X0042825Y0044065D01*
Y0043885D01*
X0042894Y0043720D01*
X0043020Y0043594D01*
X0043185Y0043525D01*
X0043365D01*
X0043530Y0043594D01*
X0043656Y0043720D01*
X0043725Y0043885D01*
Y0044065D01*
X0043656Y0044230D01*
X0043530Y0044356D01*
X0043365Y0044425D01*
D02*
G37*
G36*
X0019490Y0043975D02*
X0019310D01*
X0019145Y0043906D01*
X0019019Y0043780D01*
X0018950Y0043615D01*
Y0043435D01*
X0019019Y0043270D01*
X0019145Y0043144D01*
X0019310Y0043075D01*
X0019490D01*
X0019655Y0043144D01*
X0019781Y0043270D01*
X0019850Y0043435D01*
Y0043615D01*
X0019781Y0043780D01*
X0019655Y0043906D01*
X0019490Y0043975D01*
D02*
G37*
G36*
X0053774Y0045715D02*
X0053406D01*
X0053050Y0045620D01*
X0052730Y0045435D01*
X0052470Y0045175D01*
X0052285Y0044855D01*
X0052190Y0044499D01*
Y0044131D01*
X0052285Y0043775D01*
X0052470Y0043455D01*
X0052730Y0043195D01*
X0053050Y0043010D01*
X0053406Y0042915D01*
X0053774D01*
X0054130Y0043010D01*
X0054450Y0043195D01*
X0054710Y0043455D01*
X0054895Y0043775D01*
X0054990Y0044131D01*
Y0044499D01*
X0054895Y0044855D01*
X0054710Y0045175D01*
X0054450Y0045435D01*
X0054130Y0045620D01*
X0053774Y0045715D01*
D02*
G37*
G36*
X0048694D02*
X0048326D01*
X0047970Y0045620D01*
X0047650Y0045435D01*
X0047390Y0045175D01*
X0047205Y0044855D01*
X0047110Y0044499D01*
Y0044131D01*
X0047205Y0043775D01*
X0047390Y0043455D01*
X0047650Y0043195D01*
X0047970Y0043010D01*
X0048326Y0042915D01*
X0048694D01*
X0049050Y0043010D01*
X0049370Y0043195D01*
X0049630Y0043455D01*
X0049815Y0043775D01*
X0049910Y0044131D01*
Y0044499D01*
X0049815Y0044855D01*
X0049630Y0045175D01*
X0049370Y0045435D01*
X0049050Y0045620D01*
X0048694Y0045715D01*
D02*
G37*
G36*
X0008990Y0043575D02*
X0008810D01*
X0008645Y0043506D01*
X0008519Y0043380D01*
X0008450Y0043215D01*
Y0043035D01*
X0008519Y0042870D01*
X0008645Y0042744D01*
X0008810Y0042675D01*
X0008990D01*
X0009155Y0042744D01*
X0009281Y0042870D01*
X0009350Y0043035D01*
Y0043215D01*
X0009281Y0043380D01*
X0009155Y0043506D01*
X0008990Y0043575D01*
D02*
G37*
G36*
X0041024Y0045455D02*
X0040656D01*
X0040300Y0045360D01*
X0039980Y0045175D01*
X0039720Y0044915D01*
X0039535Y0044595D01*
X0039440Y0044239D01*
Y0043871D01*
X0039535Y0043515D01*
X0039720Y0043195D01*
X0039980Y0042935D01*
X0040300Y0042750D01*
X0040656Y0042655D01*
X0041024D01*
X0041380Y0042750D01*
X0041700Y0042935D01*
X0041960Y0043195D01*
X0042145Y0043515D01*
X0042240Y0043871D01*
Y0044239D01*
X0042145Y0044595D01*
X0041960Y0044915D01*
X0041700Y0045175D01*
X0041380Y0045360D01*
X0041024Y0045455D01*
D02*
G37*
G36*
X0035944D02*
X0035576D01*
X0035220Y0045360D01*
X0034900Y0045175D01*
X0034640Y0044915D01*
X0034455Y0044595D01*
X0034360Y0044239D01*
Y0043871D01*
X0034455Y0043515D01*
X0034640Y0043195D01*
X0034900Y0042935D01*
X0035220Y0042750D01*
X0035576Y0042655D01*
X0035944D01*
X0036300Y0042750D01*
X0036620Y0042935D01*
X0036880Y0043195D01*
X0037065Y0043515D01*
X0037160Y0043871D01*
Y0044239D01*
X0037065Y0044595D01*
X0036880Y0044915D01*
X0036620Y0045175D01*
X0036300Y0045360D01*
X0035944Y0045455D01*
D02*
G37*
G36*
X0072165Y0043425D02*
X0071985D01*
X0071820Y0043356D01*
X0071694Y0043230D01*
X0071625Y0043065D01*
Y0042885D01*
X0071694Y0042720D01*
X0071820Y0042594D01*
X0071985Y0042525D01*
X0072165D01*
X0072330Y0042594D01*
X0072456Y0042720D01*
X0072525Y0042885D01*
Y0043065D01*
X0072456Y0043230D01*
X0072330Y0043356D01*
X0072165Y0043425D01*
D02*
G37*
G36*
X0075165Y0043150D02*
X0074985D01*
X0074820Y0043081D01*
X0074694Y0042955D01*
X0074625Y0042790D01*
Y0042610D01*
X0074694Y0042445D01*
X0074820Y0042319D01*
X0074985Y0042250D01*
X0075165D01*
X0075330Y0042319D01*
X0075456Y0042445D01*
X0075525Y0042610D01*
Y0042790D01*
X0075456Y0042955D01*
X0075330Y0043081D01*
X0075165Y0043150D01*
D02*
G37*
G36*
X0051215Y0043025D02*
X0050885D01*
X0050568Y0042940D01*
X0050282Y0042775D01*
X0050050Y0042543D01*
X0049885Y0042257D01*
X0049800Y0041940D01*
Y0041610D01*
X0049885Y0041293D01*
X0050050Y0041007D01*
X0050282Y0040775D01*
X0050568Y0040610D01*
X0050885Y0040525D01*
X0051215D01*
X0051532Y0040610D01*
X0051818Y0040775D01*
X0052050Y0041007D01*
X0052215Y0041293D01*
X0052300Y0041610D01*
Y0041940D01*
X0052215Y0042257D01*
X0052050Y0042543D01*
X0051818Y0042775D01*
X0051532Y0042940D01*
X0051215Y0043025D01*
D02*
G37*
G36*
X0038465Y0042765D02*
X0038135D01*
X0037818Y0042680D01*
X0037532Y0042515D01*
X0037300Y0042283D01*
X0037135Y0041997D01*
X0037050Y0041680D01*
Y0041350D01*
X0037135Y0041033D01*
X0037300Y0040747D01*
X0037532Y0040515D01*
X0037818Y0040350D01*
X0038135Y0040265D01*
X0038465D01*
X0038782Y0040350D01*
X0039068Y0040515D01*
X0039300Y0040747D01*
X0039465Y0041033D01*
X0039550Y0041350D01*
Y0041680D01*
X0039465Y0041997D01*
X0039300Y0042283D01*
X0039068Y0042515D01*
X0038782Y0042680D01*
X0038465Y0042765D01*
D02*
G37*
G36*
X0008990Y0040525D02*
X0008810D01*
X0008645Y0040456D01*
X0008519Y0040330D01*
X0008450Y0040165D01*
Y0039985D01*
X0008519Y0039820D01*
X0008645Y0039694D01*
X0008810Y0039625D01*
X0008990D01*
X0009155Y0039694D01*
X0009281Y0039820D01*
X0009350Y0039985D01*
Y0040165D01*
X0009281Y0040330D01*
X0009155Y0040456D01*
X0008990Y0040525D01*
D02*
G37*
G36*
X0021115Y0040185D02*
X0020935D01*
X0020770Y0040116D01*
X0020643Y0039989D01*
X0020575Y0039824D01*
Y0039645D01*
X0020643Y0039480D01*
X0020770Y0039353D01*
X0020935Y0039285D01*
X0021115D01*
X0021280Y0039353D01*
X0021406Y0039480D01*
X0021475Y0039645D01*
Y0039824D01*
X0021406Y0039989D01*
X0021280Y0040116D01*
X0021115Y0040185D01*
D02*
G37*
G36*
X0046265Y0039975D02*
X0046085D01*
X0045920Y0039906D01*
X0045793Y0039780D01*
X0045725Y0039615D01*
Y0039435D01*
X0045793Y0039270D01*
X0045920Y0039144D01*
X0046085Y0039075D01*
X0046265D01*
X0046430Y0039144D01*
X0046556Y0039270D01*
X0046625Y0039435D01*
Y0039615D01*
X0046556Y0039780D01*
X0046430Y0039906D01*
X0046265Y0039975D01*
D02*
G37*
G36*
X0053774Y0040635D02*
X0053406D01*
X0053050Y0040540D01*
X0052730Y0040355D01*
X0052470Y0040095D01*
X0052285Y0039775D01*
X0052190Y0039419D01*
Y0039051D01*
X0052285Y0038695D01*
X0052470Y0038375D01*
X0052730Y0038115D01*
X0053050Y0037930D01*
X0053406Y0037835D01*
X0053774D01*
X0054130Y0037930D01*
X0054450Y0038115D01*
X0054710Y0038375D01*
X0054895Y0038695D01*
X0054990Y0039051D01*
Y0039419D01*
X0054895Y0039775D01*
X0054710Y0040095D01*
X0054450Y0040355D01*
X0054130Y0040540D01*
X0053774Y0040635D01*
D02*
G37*
G36*
X0048694D02*
X0048326D01*
X0047970Y0040540D01*
X0047650Y0040355D01*
X0047390Y0040095D01*
X0047205Y0039775D01*
X0047110Y0039419D01*
Y0039051D01*
X0047205Y0038695D01*
X0047390Y0038375D01*
X0047650Y0038115D01*
X0047970Y0037930D01*
X0048326Y0037835D01*
X0048694D01*
X0049050Y0037930D01*
X0049370Y0038115D01*
X0049630Y0038375D01*
X0049815Y0038695D01*
X0049910Y0039051D01*
Y0039419D01*
X0049815Y0039775D01*
X0049630Y0040095D01*
X0049370Y0040355D01*
X0049050Y0040540D01*
X0048694Y0040635D01*
D02*
G37*
G36*
X0041024Y0040375D02*
X0040656D01*
X0040300Y0040280D01*
X0039980Y0040095D01*
X0039720Y0039835D01*
X0039535Y0039515D01*
X0039440Y0039159D01*
Y0038791D01*
X0039535Y0038435D01*
X0039720Y0038115D01*
X0039980Y0037855D01*
X0040300Y0037670D01*
X0040656Y0037575D01*
X0041024D01*
X0041380Y0037670D01*
X0041700Y0037855D01*
X0041960Y0038115D01*
X0042145Y0038435D01*
X0042240Y0038791D01*
Y0039159D01*
X0042145Y0039515D01*
X0041960Y0039835D01*
X0041700Y0040095D01*
X0041380Y0040280D01*
X0041024Y0040375D01*
D02*
G37*
G36*
X0035944D02*
X0035576D01*
X0035220Y0040280D01*
X0034900Y0040095D01*
X0034640Y0039835D01*
X0034455Y0039515D01*
X0034360Y0039159D01*
Y0038791D01*
X0034455Y0038435D01*
X0034640Y0038115D01*
X0034900Y0037855D01*
X0035220Y0037670D01*
X0035576Y0037575D01*
X0035944D01*
X0036300Y0037670D01*
X0036620Y0037855D01*
X0036880Y0038115D01*
X0037065Y0038435D01*
X0037160Y0038791D01*
Y0039159D01*
X0037065Y0039515D01*
X0036880Y0039835D01*
X0036620Y0040095D01*
X0036300Y0040280D01*
X0035944Y0040375D01*
D02*
G37*
G36*
X0046290Y0038325D02*
X0046110D01*
X0045945Y0038256D01*
X0045819Y0038130D01*
X0045750Y0037965D01*
Y0037785D01*
X0045819Y0037620D01*
X0045945Y0037494D01*
X0046110Y0037425D01*
X0046290D01*
X0046455Y0037494D01*
X0046581Y0037620D01*
X0046650Y0037785D01*
Y0037965D01*
X0046581Y0038130D01*
X0046455Y0038256D01*
X0046290Y0038325D01*
D02*
G37*
G36*
X0084790Y0038300D02*
X0084610D01*
X0084445Y0038231D01*
X0084319Y0038105D01*
X0084250Y0037940D01*
Y0037760D01*
X0084319Y0037595D01*
X0084445Y0037469D01*
X0084610Y0037400D01*
X0084790D01*
X0084955Y0037469D01*
X0085081Y0037595D01*
X0085150Y0037760D01*
Y0037940D01*
X0085081Y0038105D01*
X0084955Y0038231D01*
X0084790Y0038300D01*
D02*
G37*
G36*
X0021115Y0038185D02*
X0020935D01*
X0020770Y0038116D01*
X0020643Y0037989D01*
X0020575Y0037824D01*
Y0037645D01*
X0020643Y0037480D01*
X0020770Y0037353D01*
X0020935Y0037285D01*
X0021115D01*
X0021280Y0037353D01*
X0021406Y0037480D01*
X0021475Y0037645D01*
Y0037824D01*
X0021406Y0037989D01*
X0021280Y0038116D01*
X0021115Y0038185D01*
D02*
G37*
G36*
X0005498Y0037765D02*
X0005319D01*
X0005154Y0037696D01*
X0005027Y0037570D01*
X0004959Y0037404D01*
Y0037225D01*
X0005027Y0037060D01*
X0005154Y0036933D01*
X0005319Y0036865D01*
X0005498D01*
X0005664Y0036933D01*
X0005790Y0037060D01*
X0005859Y0037225D01*
Y0037404D01*
X0005790Y0037570D01*
X0005664Y0037696D01*
X0005498Y0037765D01*
D02*
G37*
G36*
X0022090Y0036960D02*
X0021910D01*
X0021745Y0036891D01*
X0021618Y0036764D01*
X0021550Y0036599D01*
Y0036420D01*
X0021618Y0036255D01*
X0021745Y0036128D01*
X0021910Y0036060D01*
X0022090D01*
X0022255Y0036128D01*
X0022381Y0036255D01*
X0022450Y0036420D01*
Y0036599D01*
X0022381Y0036764D01*
X0022255Y0036891D01*
X0022090Y0036960D01*
D02*
G37*
G36*
X0020490Y0036210D02*
X0020310D01*
X0020145Y0036141D01*
X0020018Y0036014D01*
X0019950Y0035849D01*
Y0035670D01*
X0020018Y0035505D01*
X0020145Y0035378D01*
X0020310Y0035310D01*
X0020490D01*
X0020655Y0035378D01*
X0020781Y0035505D01*
X0020850Y0035670D01*
Y0035849D01*
X0020781Y0036014D01*
X0020655Y0036141D01*
X0020490Y0036210D01*
D02*
G37*
G36*
X0016390Y0035325D02*
X0016210D01*
X0016045Y0035256D01*
X0015919Y0035130D01*
X0015850Y0034965D01*
Y0034785D01*
X0015919Y0034620D01*
X0016045Y0034494D01*
X0016210Y0034425D01*
X0016390D01*
X0016555Y0034494D01*
X0016681Y0034620D01*
X0016750Y0034785D01*
Y0034965D01*
X0016681Y0035130D01*
X0016555Y0035256D01*
X0016390Y0035325D01*
D02*
G37*
G36*
X0005498Y0034030D02*
X0005319D01*
X0005154Y0033961D01*
X0005027Y0033835D01*
X0004959Y0033669D01*
Y0033490D01*
X0005027Y0033325D01*
X0005154Y0033198D01*
X0005319Y0033130D01*
X0005498D01*
X0005664Y0033198D01*
X0005790Y0033325D01*
X0005859Y0033490D01*
Y0033669D01*
X0005790Y0033835D01*
X0005664Y0033961D01*
X0005498Y0034030D01*
D02*
G37*
G36*
X0018615Y0031535D02*
X0018435D01*
X0018270Y0031466D01*
X0018143Y0031339D01*
X0018075Y0031174D01*
Y0030995D01*
X0018143Y0030830D01*
X0018270Y0030703D01*
X0018435Y0030635D01*
X0018615D01*
X0018780Y0030703D01*
X0018906Y0030830D01*
X0018975Y0030995D01*
Y0031174D01*
X0018906Y0031339D01*
X0018780Y0031466D01*
X0018615Y0031535D01*
D02*
G37*
G36*
X0017515Y0031185D02*
X0017335D01*
X0017170Y0031116D01*
X0017044Y0030989D01*
X0016975Y0030824D01*
Y0030645D01*
X0017044Y0030480D01*
X0017170Y0030353D01*
X0017335Y0030285D01*
X0017515D01*
X0017680Y0030353D01*
X0017806Y0030480D01*
X0017875Y0030645D01*
Y0030824D01*
X0017806Y0030989D01*
X0017680Y0031116D01*
X0017515Y0031185D01*
D02*
G37*
G36*
X0019515Y0030410D02*
X0019335D01*
X0019170Y0030341D01*
X0019044Y0030214D01*
X0018975Y0030049D01*
Y0029870D01*
X0019044Y0029705D01*
X0019170Y0029578D01*
X0019335Y0029510D01*
X0019515D01*
X0019680Y0029578D01*
X0019806Y0029705D01*
X0019875Y0029870D01*
Y0030049D01*
X0019806Y0030214D01*
X0019680Y0030341D01*
X0019515Y0030410D01*
D02*
G37*
G36*
X0043340Y0030225D02*
X0043160D01*
X0042995Y0030156D01*
X0042868Y0030030D01*
X0042800Y0029865D01*
Y0029685D01*
X0042868Y0029520D01*
X0042995Y0029394D01*
X0043160Y0029325D01*
X0043340D01*
X0043505Y0029394D01*
X0043631Y0029520D01*
X0043700Y0029685D01*
Y0029865D01*
X0043631Y0030030D01*
X0043505Y0030156D01*
X0043340Y0030225D01*
D02*
G37*
G36*
X0043365Y0028675D02*
X0043185D01*
X0043020Y0028606D01*
X0042894Y0028480D01*
X0042825Y0028315D01*
Y0028135D01*
X0042894Y0027970D01*
X0043020Y0027844D01*
X0043185Y0027775D01*
X0043365D01*
X0043530Y0027844D01*
X0043656Y0027970D01*
X0043725Y0028135D01*
Y0028315D01*
X0043656Y0028480D01*
X0043530Y0028606D01*
X0043365Y0028675D01*
D02*
G37*
G36*
X0019515Y0028385D02*
X0019335D01*
X0019170Y0028316D01*
X0019044Y0028189D01*
X0018975Y0028024D01*
Y0027845D01*
X0019044Y0027680D01*
X0019170Y0027553D01*
X0019335Y0027485D01*
X0019515D01*
X0019680Y0027553D01*
X0019806Y0027680D01*
X0019875Y0027845D01*
Y0028024D01*
X0019806Y0028189D01*
X0019680Y0028316D01*
X0019515Y0028385D01*
D02*
G37*
G36*
X0053774Y0029965D02*
X0053406D01*
X0053050Y0029870D01*
X0052730Y0029685D01*
X0052470Y0029425D01*
X0052285Y0029105D01*
X0052190Y0028749D01*
Y0028381D01*
X0052285Y0028025D01*
X0052470Y0027705D01*
X0052730Y0027445D01*
X0053050Y0027260D01*
X0053406Y0027165D01*
X0053774D01*
X0054130Y0027260D01*
X0054450Y0027445D01*
X0054710Y0027705D01*
X0054895Y0028025D01*
X0054990Y0028381D01*
Y0028749D01*
X0054895Y0029105D01*
X0054710Y0029425D01*
X0054450Y0029685D01*
X0054130Y0029870D01*
X0053774Y0029965D01*
D02*
G37*
G36*
X0048694D02*
X0048326D01*
X0047970Y0029870D01*
X0047650Y0029685D01*
X0047390Y0029425D01*
X0047205Y0029105D01*
X0047110Y0028749D01*
Y0028381D01*
X0047205Y0028025D01*
X0047390Y0027705D01*
X0047650Y0027445D01*
X0047970Y0027260D01*
X0048326Y0027165D01*
X0048694D01*
X0049050Y0027260D01*
X0049370Y0027445D01*
X0049630Y0027705D01*
X0049815Y0028025D01*
X0049910Y0028381D01*
Y0028749D01*
X0049815Y0029105D01*
X0049630Y0029425D01*
X0049370Y0029685D01*
X0049050Y0029870D01*
X0048694Y0029965D01*
D02*
G37*
G36*
X0041024Y0029830D02*
X0040656D01*
X0040300Y0029735D01*
X0039980Y0029550D01*
X0039720Y0029290D01*
X0039535Y0028970D01*
X0039440Y0028614D01*
Y0028246D01*
X0039535Y0027890D01*
X0039720Y0027570D01*
X0039980Y0027310D01*
X0040300Y0027125D01*
X0040656Y0027030D01*
X0041024D01*
X0041380Y0027125D01*
X0041700Y0027310D01*
X0041960Y0027570D01*
X0042145Y0027890D01*
X0042240Y0028246D01*
Y0028614D01*
X0042145Y0028970D01*
X0041960Y0029290D01*
X0041700Y0029550D01*
X0041380Y0029735D01*
X0041024Y0029830D01*
D02*
G37*
G36*
X0035944D02*
X0035576D01*
X0035220Y0029735D01*
X0034900Y0029550D01*
X0034640Y0029290D01*
X0034455Y0028970D01*
X0034360Y0028614D01*
Y0028246D01*
X0034455Y0027890D01*
X0034640Y0027570D01*
X0034900Y0027310D01*
X0035220Y0027125D01*
X0035576Y0027030D01*
X0035944D01*
X0036300Y0027125D01*
X0036620Y0027310D01*
X0036880Y0027570D01*
X0037065Y0027890D01*
X0037160Y0028246D01*
Y0028614D01*
X0037065Y0028970D01*
X0036880Y0029290D01*
X0036620Y0029550D01*
X0036300Y0029735D01*
X0035944Y0029830D01*
D02*
G37*
G36*
X0092340Y0027350D02*
X0092160D01*
X0091995Y0027281D01*
X0091869Y0027155D01*
X0091800Y0026990D01*
Y0026810D01*
X0091869Y0026645D01*
X0091995Y0026519D01*
X0092160Y0026450D01*
X0092340D01*
X0092505Y0026519D01*
X0092631Y0026645D01*
X0092700Y0026810D01*
Y0026990D01*
X0092631Y0027155D01*
X0092505Y0027281D01*
X0092340Y0027350D01*
D02*
G37*
G36*
X0096040Y0027325D02*
X0095860D01*
X0095695Y0027257D01*
X0095569Y0027130D01*
X0095500Y0026965D01*
Y0026785D01*
X0095569Y0026620D01*
X0095695Y0026494D01*
X0095860Y0026425D01*
X0096040D01*
X0096205Y0026494D01*
X0096331Y0026620D01*
X0096400Y0026785D01*
Y0026965D01*
X0096331Y0027130D01*
X0096205Y0027257D01*
X0096040Y0027325D01*
D02*
G37*
G36*
X0097765Y0026400D02*
X0097585D01*
X0097420Y0026331D01*
X0097294Y0026205D01*
X0097225Y0026040D01*
Y0025860D01*
X0097294Y0025695D01*
X0097420Y0025569D01*
X0097585Y0025500D01*
X0097765D01*
X0097930Y0025569D01*
X0098056Y0025695D01*
X0098125Y0025860D01*
Y0026040D01*
X0098056Y0026205D01*
X0097930Y0026331D01*
X0097765Y0026400D01*
D02*
G37*
G36*
X0094190Y0026375D02*
X0094010D01*
X0093845Y0026306D01*
X0093719Y0026180D01*
X0093650Y0026015D01*
Y0025835D01*
X0093719Y0025670D01*
X0093845Y0025544D01*
X0094010Y0025475D01*
X0094190D01*
X0094355Y0025544D01*
X0094481Y0025670D01*
X0094550Y0025835D01*
Y0026015D01*
X0094481Y0026180D01*
X0094355Y0026306D01*
X0094190Y0026375D01*
D02*
G37*
G36*
X0090640D02*
X0090460D01*
X0090295Y0026306D01*
X0090169Y0026180D01*
X0090100Y0026015D01*
Y0025835D01*
X0090169Y0025670D01*
X0090295Y0025544D01*
X0090460Y0025475D01*
X0090640D01*
X0090805Y0025544D01*
X0090931Y0025670D01*
X0091000Y0025835D01*
Y0026015D01*
X0090931Y0026180D01*
X0090805Y0026306D01*
X0090640Y0026375D01*
D02*
G37*
G36*
X0051215Y0027275D02*
X0050885D01*
X0050568Y0027190D01*
X0050282Y0027025D01*
X0050050Y0026793D01*
X0049885Y0026507D01*
X0049800Y0026190D01*
Y0025860D01*
X0049885Y0025543D01*
X0050050Y0025257D01*
X0050282Y0025025D01*
X0050568Y0024860D01*
X0050885Y0024775D01*
X0051215D01*
X0051532Y0024860D01*
X0051818Y0025025D01*
X0052050Y0025257D01*
X0052215Y0025543D01*
X0052300Y0025860D01*
Y0026190D01*
X0052215Y0026507D01*
X0052050Y0026793D01*
X0051818Y0027025D01*
X0051532Y0027190D01*
X0051215Y0027275D01*
D02*
G37*
G36*
X0038465Y0027140D02*
X0038135D01*
X0037818Y0027055D01*
X0037532Y0026890D01*
X0037300Y0026658D01*
X0037135Y0026372D01*
X0037050Y0026055D01*
Y0025725D01*
X0037135Y0025408D01*
X0037300Y0025122D01*
X0037532Y0024890D01*
X0037818Y0024725D01*
X0038135Y0024640D01*
X0038465D01*
X0038782Y0024725D01*
X0039068Y0024890D01*
X0039300Y0025122D01*
X0039465Y0025408D01*
X0039550Y0025725D01*
Y0026055D01*
X0039465Y0026372D01*
X0039300Y0026658D01*
X0039068Y0026890D01*
X0038782Y0027055D01*
X0038465Y0027140D01*
D02*
G37*
G36*
X0005498Y0025510D02*
X0005319D01*
X0005154Y0025441D01*
X0005027Y0025315D01*
X0004959Y0025149D01*
Y0024970D01*
X0005027Y0024805D01*
X0005154Y0024678D01*
X0005319Y0024610D01*
X0005498D01*
X0005664Y0024678D01*
X0005790Y0024805D01*
X0005859Y0024970D01*
Y0025149D01*
X0005790Y0025315D01*
X0005664Y0025441D01*
X0005498Y0025510D01*
D02*
G37*
G36*
X0092340Y0025450D02*
X0092160D01*
X0091995Y0025382D01*
X0091869Y0025255D01*
X0091800Y0025090D01*
Y0024910D01*
X0091869Y0024745D01*
X0091995Y0024619D01*
X0092160Y0024550D01*
X0092340D01*
X0092505Y0024619D01*
X0092631Y0024745D01*
X0092700Y0024910D01*
Y0025090D01*
X0092631Y0025255D01*
X0092505Y0025382D01*
X0092340Y0025450D01*
D02*
G37*
G36*
X0096065Y0025400D02*
X0095885D01*
X0095720Y0025331D01*
X0095594Y0025205D01*
X0095525Y0025040D01*
Y0024860D01*
X0095594Y0024695D01*
X0095720Y0024569D01*
X0095885Y0024500D01*
X0096065D01*
X0096230Y0024569D01*
X0096356Y0024695D01*
X0096425Y0024860D01*
Y0025040D01*
X0096356Y0025205D01*
X0096230Y0025331D01*
X0096065Y0025400D01*
D02*
G37*
G36*
X0046265Y0024350D02*
X0046085D01*
X0045920Y0024281D01*
X0045794Y0024155D01*
X0045725Y0023990D01*
Y0023810D01*
X0045794Y0023645D01*
X0045920Y0023519D01*
X0046085Y0023450D01*
X0046265D01*
X0046430Y0023519D01*
X0046556Y0023645D01*
X0046625Y0023810D01*
Y0023990D01*
X0046556Y0024155D01*
X0046430Y0024281D01*
X0046265Y0024350D01*
D02*
G37*
G36*
X0053774Y0024885D02*
X0053406D01*
X0053050Y0024790D01*
X0052730Y0024605D01*
X0052470Y0024345D01*
X0052285Y0024025D01*
X0052190Y0023669D01*
Y0023301D01*
X0052285Y0022945D01*
X0052470Y0022625D01*
X0052730Y0022365D01*
X0053050Y0022180D01*
X0053406Y0022085D01*
X0053774D01*
X0054130Y0022180D01*
X0054450Y0022365D01*
X0054710Y0022625D01*
X0054895Y0022945D01*
X0054990Y0023301D01*
Y0023669D01*
X0054895Y0024025D01*
X0054710Y0024345D01*
X0054450Y0024605D01*
X0054130Y0024790D01*
X0053774Y0024885D01*
D02*
G37*
G36*
X0048694D02*
X0048326D01*
X0047970Y0024790D01*
X0047650Y0024605D01*
X0047390Y0024345D01*
X0047205Y0024025D01*
X0047110Y0023669D01*
Y0023301D01*
X0047205Y0022945D01*
X0047390Y0022625D01*
X0047650Y0022365D01*
X0047970Y0022180D01*
X0048326Y0022085D01*
X0048694D01*
X0049050Y0022180D01*
X0049370Y0022365D01*
X0049630Y0022625D01*
X0049815Y0022945D01*
X0049910Y0023301D01*
Y0023669D01*
X0049815Y0024025D01*
X0049630Y0024345D01*
X0049370Y0024605D01*
X0049050Y0024790D01*
X0048694Y0024885D01*
D02*
G37*
G36*
X0041024Y0024750D02*
X0040656D01*
X0040300Y0024655D01*
X0039980Y0024470D01*
X0039720Y0024210D01*
X0039535Y0023890D01*
X0039440Y0023534D01*
Y0023166D01*
X0039535Y0022810D01*
X0039720Y0022490D01*
X0039980Y0022230D01*
X0040300Y0022045D01*
X0040656Y0021950D01*
X0041024D01*
X0041380Y0022045D01*
X0041700Y0022230D01*
X0041960Y0022490D01*
X0042145Y0022810D01*
X0042240Y0023166D01*
Y0023534D01*
X0042145Y0023890D01*
X0041960Y0024210D01*
X0041700Y0024470D01*
X0041380Y0024655D01*
X0041024Y0024750D01*
D02*
G37*
G36*
X0035944D02*
X0035576D01*
X0035220Y0024655D01*
X0034900Y0024470D01*
X0034640Y0024210D01*
X0034455Y0023890D01*
X0034360Y0023534D01*
Y0023166D01*
X0034455Y0022810D01*
X0034640Y0022490D01*
X0034900Y0022230D01*
X0035220Y0022045D01*
X0035576Y0021950D01*
X0035944D01*
X0036300Y0022045D01*
X0036620Y0022230D01*
X0036880Y0022490D01*
X0037065Y0022810D01*
X0037160Y0023166D01*
Y0023534D01*
X0037065Y0023890D01*
X0036880Y0024210D01*
X0036620Y0024470D01*
X0036300Y0024655D01*
X0035944Y0024750D01*
D02*
G37*
G36*
X0046290Y0022700D02*
X0046110D01*
X0045945Y0022631D01*
X0045819Y0022505D01*
X0045750Y0022340D01*
Y0022160D01*
X0045819Y0021995D01*
X0045945Y0021869D01*
X0046110Y0021800D01*
X0046290D01*
X0046455Y0021869D01*
X0046581Y0021995D01*
X0046650Y0022160D01*
Y0022340D01*
X0046581Y0022505D01*
X0046455Y0022631D01*
X0046290Y0022700D01*
D02*
G37*
G36*
X0026740Y0022500D02*
X0026560D01*
X0026395Y0022431D01*
X0026269Y0022305D01*
X0026200Y0022140D01*
Y0021960D01*
X0026269Y0021795D01*
X0026395Y0021669D01*
X0026560Y0021600D01*
X0026740D01*
X0026905Y0021669D01*
X0027031Y0021795D01*
X0027100Y0021960D01*
Y0022140D01*
X0027031Y0022305D01*
X0026905Y0022431D01*
X0026740Y0022500D01*
D02*
G37*
G36*
X0005498Y0021825D02*
X0005319D01*
X0005154Y0021757D01*
X0005027Y0021630D01*
X0004959Y0021465D01*
Y0021286D01*
X0005027Y0021120D01*
X0005154Y0020994D01*
X0005319Y0020925D01*
X0005498D01*
X0005664Y0020994D01*
X0005790Y0021120D01*
X0005859Y0021286D01*
Y0021465D01*
X0005790Y0021630D01*
X0005664Y0021757D01*
X0005498Y0021825D01*
D02*
G37*
G36*
X0040290Y0021300D02*
X0040110D01*
X0039945Y0021231D01*
X0039819Y0021105D01*
X0039750Y0020940D01*
Y0020760D01*
X0039819Y0020595D01*
X0039945Y0020469D01*
X0040110Y0020400D01*
X0040290D01*
X0040455Y0020469D01*
X0040581Y0020595D01*
X0040650Y0020760D01*
Y0020940D01*
X0040581Y0021105D01*
X0040455Y0021231D01*
X0040290Y0021300D01*
D02*
G37*
G36*
X0026740Y0020375D02*
X0026560D01*
X0026395Y0020306D01*
X0026269Y0020180D01*
X0026200Y0020015D01*
Y0019835D01*
X0026269Y0019670D01*
X0026395Y0019544D01*
X0026560Y0019475D01*
X0026740D01*
X0026905Y0019544D01*
X0027031Y0019670D01*
X0027100Y0019835D01*
Y0020015D01*
X0027031Y0020180D01*
X0026905Y0020306D01*
X0026740Y0020375D01*
D02*
G37*
G36*
X0016840Y0019800D02*
X0016660D01*
X0016495Y0019731D01*
X0016369Y0019605D01*
X0016300Y0019440D01*
Y0019260D01*
X0016369Y0019095D01*
X0016495Y0018969D01*
X0016660Y0018900D01*
X0016840D01*
X0017005Y0018969D01*
X0017131Y0019095D01*
X0017200Y0019260D01*
Y0019440D01*
X0017131Y0019605D01*
X0017005Y0019731D01*
X0016840Y0019800D01*
D02*
G37*
G36*
X0040290Y0015925D02*
X0040110D01*
X0039945Y0015856D01*
X0039819Y0015730D01*
X0039750Y0015565D01*
Y0015385D01*
X0039819Y0015220D01*
X0039945Y0015094D01*
X0040110Y0015025D01*
X0040290D01*
X0040455Y0015094D01*
X0040581Y0015220D01*
X0040650Y0015385D01*
Y0015565D01*
X0040581Y0015730D01*
X0040455Y0015856D01*
X0040290Y0015925D01*
D02*
G37*
G36*
X0022290Y0015775D02*
X0022110D01*
X0021945Y0015706D01*
X0021819Y0015580D01*
X0021750Y0015415D01*
Y0015235D01*
X0021819Y0015070D01*
X0021945Y0014944D01*
X0022110Y0014875D01*
X0022290D01*
X0022455Y0014944D01*
X0022581Y0015070D01*
X0022650Y0015235D01*
Y0015415D01*
X0022581Y0015580D01*
X0022455Y0015706D01*
X0022290Y0015775D01*
D02*
G37*
G36*
X0016040D02*
X0015860D01*
X0015695Y0015706D01*
X0015569Y0015580D01*
X0015500Y0015415D01*
Y0015235D01*
X0015569Y0015070D01*
X0015695Y0014944D01*
X0015860Y0014875D01*
X0016040D01*
X0016205Y0014944D01*
X0016331Y0015070D01*
X0016400Y0015235D01*
Y0015415D01*
X0016331Y0015580D01*
X0016205Y0015706D01*
X0016040Y0015775D01*
D02*
G37*
G36*
X0012040Y0015475D02*
X0011860D01*
X0011695Y0015406D01*
X0011569Y0015280D01*
X0011500Y0015115D01*
Y0014935D01*
X0011569Y0014770D01*
X0011695Y0014644D01*
X0011860Y0014575D01*
X0012040D01*
X0012205Y0014644D01*
X0012331Y0014770D01*
X0012400Y0014935D01*
Y0015115D01*
X0012331Y0015280D01*
X0012205Y0015406D01*
X0012040Y0015475D01*
D02*
G37*
G36*
X0024140Y0015425D02*
X0023960D01*
X0023795Y0015356D01*
X0023669Y0015230D01*
X0023600Y0015065D01*
Y0014885D01*
X0023669Y0014720D01*
X0023795Y0014594D01*
X0023960Y0014525D01*
X0024140D01*
X0024305Y0014594D01*
X0024431Y0014720D01*
X0024500Y0014885D01*
Y0015065D01*
X0024431Y0015230D01*
X0024305Y0015356D01*
X0024140Y0015425D01*
D02*
G37*
G36*
X0043340Y0014600D02*
X0043160D01*
X0042995Y0014531D01*
X0042868Y0014405D01*
X0042800Y0014240D01*
Y0014060D01*
X0042868Y0013895D01*
X0042995Y0013769D01*
X0043160Y0013700D01*
X0043340D01*
X0043505Y0013769D01*
X0043631Y0013895D01*
X0043700Y0014060D01*
Y0014240D01*
X0043631Y0014405D01*
X0043505Y0014531D01*
X0043340Y0014600D01*
D02*
G37*
G36*
X0005498Y0013305D02*
X0005319D01*
X0005154Y0013237D01*
X0005027Y0013110D01*
X0004959Y0012945D01*
Y0012766D01*
X0005027Y0012600D01*
X0005154Y0012474D01*
X0005319Y0012405D01*
X0005498D01*
X0005664Y0012474D01*
X0005790Y0012600D01*
X0005859Y0012766D01*
Y0012945D01*
X0005790Y0013110D01*
X0005664Y0013237D01*
X0005498Y0013305D01*
D02*
G37*
G36*
X0043365Y0013050D02*
X0043185D01*
X0043020Y0012981D01*
X0042894Y0012855D01*
X0042825Y0012690D01*
Y0012510D01*
X0042894Y0012345D01*
X0043020Y0012219D01*
X0043185Y0012150D01*
X0043365D01*
X0043530Y0012219D01*
X0043656Y0012345D01*
X0043725Y0012510D01*
Y0012690D01*
X0043656Y0012855D01*
X0043530Y0012981D01*
X0043365Y0013050D01*
D02*
G37*
G36*
X0053774Y0014340D02*
X0053406D01*
X0053050Y0014245D01*
X0052730Y0014060D01*
X0052470Y0013800D01*
X0052285Y0013480D01*
X0052190Y0013124D01*
Y0012756D01*
X0052285Y0012400D01*
X0052470Y0012080D01*
X0052730Y0011820D01*
X0053050Y0011635D01*
X0053406Y0011540D01*
X0053774D01*
X0054130Y0011635D01*
X0054450Y0011820D01*
X0054710Y0012080D01*
X0054895Y0012400D01*
X0054990Y0012756D01*
Y0013124D01*
X0054895Y0013480D01*
X0054710Y0013800D01*
X0054450Y0014060D01*
X0054130Y0014245D01*
X0053774Y0014340D01*
D02*
G37*
G36*
X0048694D02*
X0048326D01*
X0047970Y0014245D01*
X0047650Y0014060D01*
X0047390Y0013800D01*
X0047205Y0013480D01*
X0047110Y0013124D01*
Y0012756D01*
X0047205Y0012400D01*
X0047390Y0012080D01*
X0047650Y0011820D01*
X0047970Y0011635D01*
X0048326Y0011540D01*
X0048694D01*
X0049050Y0011635D01*
X0049370Y0011820D01*
X0049630Y0012080D01*
X0049815Y0012400D01*
X0049910Y0012756D01*
Y0013124D01*
X0049815Y0013480D01*
X0049630Y0013800D01*
X0049370Y0014060D01*
X0049050Y0014245D01*
X0048694Y0014340D01*
D02*
G37*
G36*
X0051215Y0011650D02*
X0050885D01*
X0050568Y0011565D01*
X0050282Y0011400D01*
X0050050Y0011168D01*
X0049885Y0010882D01*
X0049800Y0010565D01*
Y0010235D01*
X0049885Y0009918D01*
X0050050Y0009632D01*
X0050282Y0009400D01*
X0050568Y0009235D01*
X0050885Y0009150D01*
X0051215D01*
X0051532Y0009235D01*
X0051818Y0009400D01*
X0052050Y0009632D01*
X0052215Y0009918D01*
X0052300Y0010235D01*
Y0010565D01*
X0052215Y0010882D01*
X0052050Y0011168D01*
X0051818Y0011400D01*
X0051532Y0011565D01*
X0051215Y0011650D01*
D02*
G37*
G36*
X0053774Y0009260D02*
X0053406D01*
X0053050Y0009165D01*
X0052730Y0008980D01*
X0052470Y0008720D01*
X0052285Y0008400D01*
X0052190Y0008044D01*
Y0007676D01*
X0052285Y0007320D01*
X0052470Y0007000D01*
X0052730Y0006740D01*
X0053050Y0006555D01*
X0053406Y0006460D01*
X0053774D01*
X0054130Y0006555D01*
X0054450Y0006740D01*
X0054710Y0007000D01*
X0054895Y0007320D01*
X0054990Y0007676D01*
Y0008044D01*
X0054895Y0008400D01*
X0054710Y0008720D01*
X0054450Y0008980D01*
X0054130Y0009165D01*
X0053774Y0009260D01*
D02*
G37*
G36*
X0048694D02*
X0048326D01*
X0047970Y0009165D01*
X0047650Y0008980D01*
X0047390Y0008720D01*
X0047205Y0008400D01*
X0047110Y0008044D01*
Y0007676D01*
X0047205Y0007320D01*
X0047390Y0007000D01*
X0047650Y0006740D01*
X0047970Y0006555D01*
X0048326Y0006460D01*
X0048694D01*
X0049050Y0006555D01*
X0049370Y0006740D01*
X0049630Y0007000D01*
X0049815Y0007320D01*
X0049910Y0007676D01*
Y0008044D01*
X0049815Y0008400D01*
X0049630Y0008720D01*
X0049370Y0008980D01*
X0049050Y0009165D01*
X0048694Y0009260D01*
D02*
G37*
G36*
X0025000Y0004829D02*
X0023100D01*
X0023012Y0004812D01*
X0022938Y0004762D01*
X0022888Y0004688D01*
X0022871Y0004600D01*
Y0002700D01*
X0022888Y0002612D01*
X0022938Y0002538D01*
X0023012Y0002488D01*
X0023100Y0002471D01*
X0025000D01*
X0025088Y0002488D01*
X0025162Y0002538D01*
X0025212Y0002612D01*
X0025229Y0002700D01*
Y0004600D01*
X0025212Y0004688D01*
X0025162Y0004762D01*
X0025088Y0004812D01*
X0025000Y0004829D01*
D02*
G37*
%LPD*%
G36*
X0057125Y0083450D02*
Y0082200D01*
X0056200Y0081275D01*
X0055125D01*
X0050400Y0086000D01*
X0048111D01*
X0048063Y0086127D01*
X0048156Y0086220D01*
X0048225Y0086385D01*
Y0086565D01*
X0048156Y0086730D01*
X0048030Y0086856D01*
X0047865Y0086925D01*
X0047685D01*
X0047520Y0086856D01*
X0047394Y0086730D01*
X0047325Y0086565D01*
Y0086385D01*
X0047394Y0086220D01*
X0047487Y0086127D01*
X0047439Y0086000D01*
X0046016D01*
X0045963Y0086127D01*
X0046006Y0086170D01*
X0046075Y0086335D01*
Y0086515D01*
X0046006Y0086680D01*
X0045880Y0086806D01*
X0045715Y0086875D01*
X0045535D01*
X0045370Y0086806D01*
X0045244Y0086680D01*
X0045175Y0086515D01*
Y0086335D01*
X0045244Y0086170D01*
X0045370Y0086044D01*
X0045436Y0086016D01*
X0045466Y0085866D01*
X0044550Y0084950D01*
Y0081675D01*
X0045609Y0080616D01*
X0045579Y0080466D01*
X0045495Y0080431D01*
X0045369Y0080305D01*
X0045300Y0080140D01*
Y0079960D01*
X0045369Y0079795D01*
X0045495Y0079669D01*
X0045660Y0079600D01*
X0045840D01*
X0046005Y0079669D01*
X0046131Y0079795D01*
X0046166Y0079879D01*
X0046316Y0079909D01*
X0051650Y0074575D01*
Y0065075D01*
X0056175Y0060550D01*
Y0060460D01*
X0056244Y0060295D01*
X0056370Y0060169D01*
X0056535Y0060100D01*
X0056625D01*
X0058082Y0058643D01*
X0057969Y0058530D01*
X0057900Y0058365D01*
Y0058185D01*
X0057969Y0058020D01*
X0058095Y0057894D01*
X0058260Y0057825D01*
X0058440D01*
X0058605Y0057894D01*
X0058718Y0058007D01*
X0060450Y0056275D01*
X0074700D01*
X0075650Y0057225D01*
X0078500D01*
X0078875Y0056850D01*
Y0054925D01*
X0077925Y0053975D01*
X0058100D01*
X0049475Y0062600D01*
X0049500Y0062625D01*
X0047050Y0065075D01*
X0044125D01*
X0042300Y0063250D01*
X0027350D01*
X0019150Y0055050D01*
Y0053300D01*
X0017600Y0051750D01*
X0016250D01*
X0015700Y0051200D01*
Y0045600D01*
X0018475Y0042825D01*
X0018475Y0037775D01*
X0018075Y0037375D01*
X0017538D01*
X0017515Y0037385D01*
X0017335D01*
X0017312Y0037375D01*
X0016225D01*
X0015850Y0037750D01*
Y0042025D01*
X0013550Y0044325D01*
X0013550Y0053050D01*
X0026025Y0065525D01*
X0038950D01*
X0042550Y0069125D01*
X0047575D01*
X0049175Y0070725D01*
Y0073550D01*
X0042550Y0080175D01*
Y0086650D01*
X0043900Y0088000D01*
X0052575D01*
X0057125Y0083450D01*
D02*
G37*
%LPC*%
G36*
X0050715Y0072750D02*
X0050535D01*
X0050370Y0072681D01*
X0050244Y0072555D01*
X0050175Y0072390D01*
Y0072210D01*
X0050244Y0072045D01*
X0050370Y0071919D01*
X0050535Y0071850D01*
X0050715D01*
X0050880Y0071919D01*
X0051006Y0072045D01*
X0051075Y0072210D01*
Y0072390D01*
X0051006Y0072555D01*
X0050880Y0072681D01*
X0050715Y0072750D01*
D02*
G37*
G36*
X0017490Y0052975D02*
X0017310D01*
X0017145Y0052906D01*
X0017019Y0052780D01*
X0016950Y0052615D01*
Y0052435D01*
X0017019Y0052270D01*
X0017145Y0052144D01*
X0017310Y0052075D01*
X0017490D01*
X0017655Y0052144D01*
X0017781Y0052270D01*
X0017850Y0052435D01*
Y0052615D01*
X0017781Y0052780D01*
X0017655Y0052906D01*
X0017490Y0052975D01*
D02*
G37*
%LPD*%
G36*
X0061200Y0090550D02*
Y0089600D01*
X0060875Y0089275D01*
Y0082855D01*
X0060748Y0082830D01*
X0060706Y0082930D01*
X0060580Y0083056D01*
X0060415Y0083125D01*
X0060235D01*
X0060070Y0083056D01*
X0059944Y0082930D01*
X0059875Y0082765D01*
Y0082585D01*
X0059944Y0082420D01*
X0060070Y0082294D01*
X0060235Y0082225D01*
X0060415D01*
X0060580Y0082294D01*
X0060706Y0082420D01*
X0060748Y0082520D01*
X0060875Y0082495D01*
Y0080525D01*
X0057325Y0076975D01*
Y0075925D01*
X0059175Y0074075D01*
Y0067375D01*
X0059775Y0066775D01*
X0060875D01*
X0062850Y0068750D01*
X0076475D01*
X0076488Y0068762D01*
X0087037D01*
X0087325Y0068475D01*
Y0067050D01*
X0086975Y0066700D01*
X0084975D01*
X0082200Y0063925D01*
Y0053150D01*
X0079997Y0050947D01*
X0079873Y0050966D01*
X0079808Y0051071D01*
X0079856Y0051120D01*
X0079925Y0051285D01*
Y0051465D01*
X0079856Y0051630D01*
X0079730Y0051756D01*
X0079565Y0051825D01*
X0079385D01*
X0079220Y0051756D01*
X0079094Y0051630D01*
X0079025Y0051465D01*
Y0051285D01*
X0079094Y0051120D01*
X0079164Y0051050D01*
X0079094Y0050980D01*
X0079025Y0050815D01*
Y0050635D01*
X0079094Y0050470D01*
X0079217Y0050347D01*
X0079241Y0050319D01*
X0079262Y0050212D01*
X0078475Y0049425D01*
X0077900D01*
Y0049540D01*
X0077831Y0049705D01*
X0077705Y0049831D01*
X0077540Y0049900D01*
X0077360D01*
X0077195Y0049831D01*
X0077069Y0049705D01*
X0077000Y0049540D01*
Y0049425D01*
X0075492D01*
X0075400Y0049552D01*
Y0049690D01*
X0075331Y0049855D01*
X0075205Y0049981D01*
X0075040Y0050050D01*
X0074860D01*
X0074695Y0049981D01*
X0074569Y0049855D01*
X0074500Y0049690D01*
Y0049510D01*
X0074443Y0049425D01*
X0073469D01*
X0073414Y0049506D01*
X0073400Y0049552D01*
Y0049715D01*
X0073331Y0049880D01*
X0073205Y0050006D01*
X0073040Y0050075D01*
X0072860D01*
X0072695Y0050006D01*
X0072569Y0049880D01*
X0072500Y0049715D01*
Y0049535D01*
X0072502Y0049531D01*
X0072431Y0049425D01*
X0031600Y0049425D01*
X0029275Y0051750D01*
X0027225D01*
X0026400Y0050925D01*
X0026400Y0047211D01*
X0026294Y0047105D01*
X0026225Y0046940D01*
Y0046760D01*
X0026265Y0046665D01*
X0024125Y0044525D01*
Y0042950D01*
X0026075Y0041000D01*
Y0030750D01*
Y0028100D01*
X0032650Y0021525D01*
X0038800D01*
X0039350Y0020975D01*
Y0014925D01*
X0039000Y0014575D01*
X0037850D01*
X0037450Y0014975D01*
Y0018175D01*
X0036700Y0018925D01*
X0032050Y0018925D01*
X0021775Y0029200D01*
Y0030800D01*
X0023550Y0032575D01*
Y0040225D01*
X0021850Y0041925D01*
Y0046375D01*
X0024100Y0048625D01*
Y0054075D01*
X0024750Y0054725D01*
X0031825D01*
X0034800Y0051750D01*
X0077125Y0051750D01*
X0079625Y0054250D01*
X0079625Y0062473D01*
X0079625Y0062600D01*
X0079625Y0062600D01*
X0079625Y0062600D01*
X0079625D01*
X0079542Y0062683D01*
X0079539Y0062686D01*
X0078890Y0063335D01*
X0078881Y0063355D01*
X0078755Y0063481D01*
X0078735Y0063490D01*
X0075225Y0067000D01*
X0064300Y0067000D01*
X0061350Y0064050D01*
X0058100D01*
X0057325Y0064825D01*
Y0072625D01*
X0047075Y0082875D01*
X0045647D01*
X0045155Y0083373D01*
X0045171Y0084748D01*
X0045552Y0085125D01*
X0048275D01*
X0048750Y0084650D01*
Y0084125D01*
X0054150Y0078725D01*
X0055450D01*
X0058875Y0082150D01*
Y0090650D01*
X0059300Y0091075D01*
X0060675D01*
X0061200Y0090550D01*
D02*
G37*
%LPC*%
G36*
X0081115Y0057250D02*
X0080935D01*
X0080770Y0057181D01*
X0080644Y0057055D01*
X0080575Y0056890D01*
Y0056710D01*
X0080644Y0056545D01*
X0080770Y0056419D01*
X0080935Y0056350D01*
X0081115D01*
X0081280Y0056419D01*
X0081406Y0056545D01*
X0081475Y0056710D01*
Y0056890D01*
X0081406Y0057055D01*
X0081280Y0057181D01*
X0081115Y0057250D01*
D02*
G37*
G36*
X0026765Y0052725D02*
X0026585D01*
X0026420Y0052656D01*
X0026294Y0052530D01*
X0026225Y0052365D01*
Y0052185D01*
X0026294Y0052020D01*
X0026420Y0051894D01*
X0026585Y0051825D01*
X0026765D01*
X0026930Y0051894D01*
X0027056Y0052020D01*
X0027125Y0052185D01*
Y0052365D01*
X0027056Y0052530D01*
X0026930Y0052656D01*
X0026765Y0052725D01*
D02*
G37*
%LPD*%
D10*
X0023704Y0003987D02*
X0023871Y0004154D01*
X0024204D01*
X0024370Y0003987D01*
Y0003820D01*
X0024204Y0003654D01*
X0024037D01*
X0024204D01*
X0024370Y0003487D01*
Y0003321D01*
X0024204Y0003154D01*
X0023871D01*
X0023704Y0003321D01*
D12*
X0023100Y0002700D02*
X0025000D01*
X0023100Y0004600D02*
X0025000D01*
Y0002700D02*
Y0004600D01*
X0023100Y0002700D02*
Y0004600D01*
D45*
X0041034Y0088409D02*
X0041725Y0089100D01*
X0041050Y0084425D02*
Y0088393D01*
X0041034Y0088409D02*
X0041050Y0088393D01*
Y0079875D02*
Y0084425D01*
X0057025Y0089100D02*
X0058000Y0090075D01*
X0041725Y0089100D02*
X0057025D01*
D58*
X0041050Y0084425D02*
D03*
X0050625Y0067550D02*
D03*
X0048625D02*
D03*
X0049600Y0067525D02*
D03*
X0049575Y0068425D02*
D03*
X0048600Y0068450D02*
D03*
X0047947Y0084697D02*
D03*
X0045722D02*
D03*
X0046872D02*
D03*
X0046875Y0083850D02*
D03*
X0045725D02*
D03*
X0047750Y0091350D02*
D03*
X0046750Y0091325D02*
D03*
X0045675Y0091300D02*
D03*
X0045650Y0090400D02*
D03*
X0046725D02*
D03*
X0055711Y0082650D02*
D03*
X0062650Y0090075D02*
D03*
X0060325D02*
D03*
X0058000D02*
D03*
X0050600Y0068450D02*
D03*
X0041050Y0079875D02*
D03*
X0047950Y0083850D02*
D03*
X0047750Y0090400D02*
D03*
X0058325Y0065200D02*
D03*
Y0056150D02*
D03*
X0066125Y0067800D02*
D03*
X0086275Y0067775D02*
D03*
X0078475Y0056125D02*
D03*
Y0065175D02*
D03*
X0071975Y0052300D02*
D03*
X0071600Y0038450D02*
D03*
X0073450Y0038425D02*
D03*
X0083775Y0045850D02*
D03*
X0038550Y0020850D02*
D03*
Y0015450D02*
D03*
X0023100Y0020200D02*
D03*
X0016750Y0021425D02*
D03*
X0022975Y0029685D02*
D03*
X0017425Y0037935D02*
D03*
X0025000Y0036685D02*
D03*
X0025025Y0031285D02*
D03*
X0022950Y0045275D02*
D03*
X0025000Y0046875D02*
D03*
X0024975Y0052275D02*
D03*
X0017400Y0053525D02*
D03*
M02*
