G04*
G04 #@! TF.GenerationSoftware,Altium Limited,Altium Designer,23.7.1 (13)*
G04*
G04 Layer_Physical_Order=2*
G04 Layer_Color=36540*
%FSAX43Y43*%
%MOMM*%
G71*
G04*
G04 #@! TF.SameCoordinates,4B3962D1-0CE0-4DC0-8A0A-AB0838D88EC4*
G04*
G04*
G04 #@! TF.FilePolarity,Positive*
G04*
G01*
G75*
%ADD10C,0.254*%
%ADD12C,0.200*%
%ADD41C,2.550*%
%ADD43C,2.910*%
%ADD57C,6.600*%
%ADD58C,0.650*%
G36*
X0099000Y0099000D02*
X0101000Y0097000D01*
Y0094180D01*
Y0093656D01*
Y0091706D01*
Y0091415D01*
Y0089985D01*
Y0086994D01*
Y0085147D01*
Y0084468D01*
Y0083100D01*
Y0082395D01*
Y0080325D01*
Y0079494D01*
Y0070616D01*
Y0069508D01*
Y0068335D01*
Y0067325D01*
Y0065625D01*
Y0065290D01*
Y0061112D01*
Y0060640D01*
Y0059375D01*
Y0058659D01*
Y0057747D01*
Y0056600D01*
Y0055424D01*
Y0054295D01*
Y0053435D01*
Y0052390D01*
Y0051270D01*
X0100896Y0051183D01*
X0100800Y0051239D01*
X0100520Y0051314D01*
X0100230D01*
X0099950Y0051239D01*
X0099700Y0051094D01*
X0099495Y0050889D01*
X0099350Y0050639D01*
X0099275Y0050359D01*
Y0050069D01*
X0099350Y0049789D01*
X0099495Y0049539D01*
X0099700Y0049334D01*
X0099950Y0049189D01*
X0100230Y0049114D01*
X0100520D01*
X0100800Y0049189D01*
X0100890Y0049241D01*
X0101000Y0049178D01*
Y0049114D01*
Y0041110D01*
X0100896Y0041023D01*
X0100800Y0041079D01*
X0100520Y0041154D01*
X0100230D01*
X0099950Y0041079D01*
X0099700Y0040934D01*
X0099495Y0040729D01*
X0099350Y0040479D01*
X0099275Y0040199D01*
Y0039909D01*
X0099350Y0039629D01*
X0099495Y0039379D01*
X0099700Y0039174D01*
X0099950Y0039029D01*
X0100230Y0038954D01*
X0100520D01*
X0100800Y0039029D01*
X0100890Y0039081D01*
X0101000Y0039018D01*
Y0028250D01*
X0100890Y0028187D01*
X0100800Y0028239D01*
X0100520Y0028314D01*
X0100230D01*
X0099950Y0028239D01*
X0099700Y0028094D01*
X0099495Y0027889D01*
X0099350Y0027639D01*
X0099275Y0027359D01*
Y0027069D01*
X0099350Y0026789D01*
X0099495Y0026539D01*
X0099700Y0026334D01*
X0099950Y0026189D01*
X0100230Y0026114D01*
X0100520D01*
X0100800Y0026189D01*
X0100890Y0026241D01*
X0101000Y0026178D01*
Y0018090D01*
X0100890Y0018027D01*
X0100800Y0018079D01*
X0100520Y0018154D01*
X0100230D01*
X0099950Y0018079D01*
X0099700Y0017934D01*
X0099495Y0017729D01*
X0099350Y0017479D01*
X0099275Y0017199D01*
Y0016909D01*
X0099350Y0016629D01*
X0099495Y0016379D01*
X0099700Y0016174D01*
X0099950Y0016029D01*
X0100230Y0015954D01*
X0100520D01*
X0100800Y0016029D01*
X0100890Y0016081D01*
X0101000Y0016018D01*
Y0015069D01*
Y0009918D01*
Y0009167D01*
Y0003000D01*
X0099000Y0001000D01*
X0002900D01*
X0000900Y0003000D01*
Y0067855D01*
X0001027Y0067908D01*
X0001195Y0067740D01*
X0001466Y0067558D01*
X0001767Y0067434D01*
X0002087Y0067370D01*
X0002100D01*
Y0069025D01*
Y0070680D01*
X0002087D01*
X0001767Y0070616D01*
X0001466Y0070492D01*
X0001195Y0070311D01*
X0001027Y0070143D01*
X0000900Y0070195D01*
Y0084433D01*
X0000997Y0084462D01*
X0001027Y0084464D01*
X0001243Y0084248D01*
X0001502Y0084075D01*
X0001789Y0083956D01*
X0002094Y0083895D01*
X0002406D01*
X0002711Y0083956D01*
X0002998Y0084075D01*
X0003257Y0084248D01*
X0003477Y0084468D01*
X0003650Y0084727D01*
X0003769Y0085014D01*
X0003830Y0085319D01*
Y0085631D01*
X0003769Y0085936D01*
X0003650Y0086223D01*
X0003477Y0086482D01*
X0003257Y0086702D01*
X0002998Y0086875D01*
X0002711Y0086994D01*
X0002406Y0087055D01*
X0002094D01*
X0001789Y0086994D01*
X0001502Y0086875D01*
X0001243Y0086702D01*
X0001027Y0086486D01*
X0000997Y0086488D01*
X0000900Y0086517D01*
Y0097000D01*
X0002900Y0099000D01*
X0099000Y0099000D01*
D02*
G37*
%LPC*%
G36*
X0097275Y0098500D02*
X0097150D01*
Y0095150D01*
X0100500D01*
Y0095275D01*
X0100414Y0095820D01*
X0100244Y0096344D01*
X0099993Y0096834D01*
X0099670Y0097280D01*
X0099280Y0097670D01*
X0098834Y0097993D01*
X0098344Y0098244D01*
X0097820Y0098414D01*
X0097275Y0098500D01*
D02*
G37*
G36*
X0096850D02*
X0096725D01*
X0096180Y0098414D01*
X0095656Y0098244D01*
X0095166Y0097993D01*
X0094720Y0097670D01*
X0094330Y0097280D01*
X0094007Y0096834D01*
X0093756Y0096344D01*
X0093586Y0095820D01*
X0093500Y0095275D01*
Y0095150D01*
X0096850D01*
Y0098500D01*
D02*
G37*
G36*
X0005175D02*
X0005050D01*
Y0095150D01*
X0008400D01*
Y0095275D01*
X0008314Y0095820D01*
X0008144Y0096344D01*
X0007893Y0096834D01*
X0007570Y0097280D01*
X0007180Y0097670D01*
X0006734Y0097993D01*
X0006244Y0098244D01*
X0005720Y0098414D01*
X0005175Y0098500D01*
D02*
G37*
G36*
X0004750D02*
X0004625D01*
X0004080Y0098414D01*
X0003556Y0098244D01*
X0003066Y0097993D01*
X0002620Y0097670D01*
X0002230Y0097280D01*
X0001907Y0096834D01*
X0001656Y0096344D01*
X0001486Y0095820D01*
X0001400Y0095275D01*
Y0095150D01*
X0004750D01*
Y0098500D01*
D02*
G37*
G36*
X0100500Y0094850D02*
X0097150D01*
Y0091500D01*
X0097275D01*
X0097820Y0091586D01*
X0098344Y0091756D01*
X0098834Y0092007D01*
X0099280Y0092330D01*
X0099670Y0092720D01*
X0099993Y0093166D01*
X0100244Y0093656D01*
X0100414Y0094180D01*
X0100500Y0094725D01*
Y0094850D01*
D02*
G37*
G36*
X0096850D02*
X0093500D01*
Y0094725D01*
X0093586Y0094180D01*
X0093756Y0093656D01*
X0094007Y0093166D01*
X0094330Y0092720D01*
X0094720Y0092330D01*
X0095166Y0092007D01*
X0095656Y0091756D01*
X0096180Y0091586D01*
X0096725Y0091500D01*
X0096850D01*
Y0094850D01*
D02*
G37*
G36*
X0008400D02*
X0005050D01*
Y0091500D01*
X0005175D01*
X0005720Y0091586D01*
X0006244Y0091756D01*
X0006734Y0092007D01*
X0007180Y0092330D01*
X0007570Y0092720D01*
X0007893Y0093166D01*
X0008144Y0093656D01*
X0008314Y0094180D01*
X0008400Y0094725D01*
Y0094850D01*
D02*
G37*
G36*
X0004750D02*
X0001400D01*
Y0094725D01*
X0001486Y0094180D01*
X0001656Y0093656D01*
X0001907Y0093166D01*
X0002230Y0092720D01*
X0002620Y0092330D01*
X0003066Y0092007D01*
X0003556Y0091756D01*
X0004080Y0091586D01*
X0004625Y0091500D01*
X0004750D01*
Y0094850D01*
D02*
G37*
G36*
X0047840Y0091800D02*
X0047660D01*
X0047495Y0091731D01*
X0047368Y0091605D01*
X0047314Y0091472D01*
X0047193Y0091458D01*
X0047181Y0091460D01*
X0047131Y0091580D01*
X0047005Y0091706D01*
X0046840Y0091775D01*
X0046660D01*
X0046495Y0091706D01*
X0046368Y0091580D01*
X0046300Y0091415D01*
Y0091235D01*
X0046368Y0091070D01*
X0046495Y0090943D01*
X0046512Y0090936D01*
Y0090799D01*
X0046470Y0090781D01*
X0046344Y0090655D01*
X0046275Y0090490D01*
Y0090310D01*
X0046344Y0090145D01*
X0046470Y0090019D01*
X0046635Y0089950D01*
X0046815D01*
X0046980Y0090019D01*
X0047106Y0090145D01*
X0047175Y0090310D01*
X0047300D01*
X0047369Y0090145D01*
X0047495Y0090019D01*
X0047660Y0089950D01*
X0047840D01*
X0048005Y0090019D01*
X0048131Y0090145D01*
X0048200Y0090310D01*
Y0090490D01*
X0048131Y0090655D01*
X0048005Y0090781D01*
X0047945Y0090806D01*
Y0090944D01*
X0048005Y0090968D01*
X0048131Y0091095D01*
X0048200Y0091260D01*
Y0091440D01*
X0048131Y0091605D01*
X0048005Y0091731D01*
X0047840Y0091800D01*
D02*
G37*
G36*
X0045765Y0091750D02*
X0045585D01*
X0045420Y0091681D01*
X0045293Y0091555D01*
X0045225Y0091390D01*
Y0091210D01*
X0045293Y0091045D01*
X0045412Y0090926D01*
X0045415Y0090871D01*
X0045407Y0090786D01*
X0045395Y0090781D01*
X0045269Y0090655D01*
X0045200Y0090490D01*
Y0090310D01*
X0045269Y0090145D01*
X0045395Y0090019D01*
X0045560Y0089950D01*
X0045740D01*
X0045905Y0090019D01*
X0046031Y0090145D01*
X0046100Y0090310D01*
Y0090490D01*
X0046031Y0090655D01*
X0045913Y0090774D01*
X0045910Y0090829D01*
X0045918Y0090914D01*
X0045930Y0090919D01*
X0046056Y0091045D01*
X0046125Y0091210D01*
Y0091390D01*
X0046056Y0091555D01*
X0045930Y0091681D01*
X0045765Y0091750D01*
D02*
G37*
G36*
X0062740Y0090525D02*
X0062560D01*
X0062395Y0090456D01*
X0062269Y0090330D01*
X0062200Y0090165D01*
Y0089985D01*
X0062269Y0089820D01*
X0062395Y0089694D01*
X0062560Y0089625D01*
X0062740D01*
X0062905Y0089694D01*
X0063031Y0089820D01*
X0063100Y0089985D01*
Y0090165D01*
X0063031Y0090330D01*
X0062905Y0090456D01*
X0062740Y0090525D01*
D02*
G37*
G36*
X0060415D02*
X0060235D01*
X0060070Y0090456D01*
X0059944Y0090330D01*
X0059875Y0090165D01*
Y0089985D01*
X0059944Y0089820D01*
X0060070Y0089694D01*
X0060235Y0089625D01*
X0060415D01*
X0060580Y0089694D01*
X0060706Y0089820D01*
X0060775Y0089985D01*
Y0090165D01*
X0060706Y0090330D01*
X0060580Y0090456D01*
X0060415Y0090525D01*
D02*
G37*
G36*
X0058090D02*
X0057910D01*
X0057745Y0090456D01*
X0057619Y0090330D01*
X0057550Y0090165D01*
Y0089985D01*
X0057619Y0089820D01*
X0057745Y0089694D01*
X0057910Y0089625D01*
X0058090D01*
X0058255Y0089694D01*
X0058381Y0089820D01*
X0058450Y0089985D01*
Y0090165D01*
X0058381Y0090330D01*
X0058255Y0090456D01*
X0058090Y0090525D01*
D02*
G37*
G36*
X0041140Y0084875D02*
X0040960D01*
X0040795Y0084806D01*
X0040669Y0084680D01*
X0040600Y0084515D01*
Y0084335D01*
X0040669Y0084170D01*
X0040795Y0084044D01*
X0040960Y0083975D01*
X0041140D01*
X0041305Y0084044D01*
X0041431Y0084170D01*
X0041500Y0084335D01*
Y0084515D01*
X0041431Y0084680D01*
X0041305Y0084806D01*
X0041140Y0084875D01*
D02*
G37*
G36*
X0017706Y0087055D02*
X0017394D01*
X0017089Y0086994D01*
X0016802Y0086875D01*
X0016543Y0086702D01*
X0016323Y0086482D01*
X0016150Y0086223D01*
X0016031Y0085936D01*
X0015970Y0085631D01*
Y0085319D01*
X0016031Y0085014D01*
X0016150Y0084727D01*
X0016323Y0084468D01*
X0016543Y0084248D01*
X0016802Y0084075D01*
X0017089Y0083956D01*
X0017394Y0083895D01*
X0017706D01*
X0018011Y0083956D01*
X0018298Y0084075D01*
X0018557Y0084248D01*
X0018777Y0084468D01*
X0018950Y0084727D01*
X0019069Y0085014D01*
X0019130Y0085319D01*
Y0085631D01*
X0019069Y0085936D01*
X0018950Y0086223D01*
X0018777Y0086482D01*
X0018557Y0086702D01*
X0018298Y0086875D01*
X0018011Y0086994D01*
X0017706Y0087055D01*
D02*
G37*
G36*
X0048036Y0085147D02*
X0047857D01*
X0047692Y0085079D01*
X0047565Y0084952D01*
X0047497Y0084787D01*
Y0084608D01*
X0047565Y0084443D01*
X0047655Y0084352D01*
X0047680Y0084276D01*
X0047657Y0084193D01*
X0047569Y0084105D01*
X0047500Y0083940D01*
Y0083760D01*
X0047569Y0083595D01*
X0047695Y0083469D01*
X0047860Y0083400D01*
X0048040D01*
X0048205Y0083469D01*
X0048331Y0083595D01*
X0048400Y0083760D01*
Y0083940D01*
X0048331Y0084105D01*
X0048241Y0084195D01*
X0048216Y0084271D01*
X0048240Y0084354D01*
X0048328Y0084443D01*
X0048397Y0084608D01*
Y0084787D01*
X0048328Y0084952D01*
X0048202Y0085079D01*
X0048036Y0085147D01*
D02*
G37*
G36*
X0046961D02*
X0046782D01*
X0046617Y0085079D01*
X0046490Y0084952D01*
X0046422Y0084787D01*
Y0084608D01*
X0046490Y0084443D01*
X0046580Y0084352D01*
X0046605Y0084276D01*
X0046582Y0084193D01*
X0046494Y0084105D01*
X0046425Y0083940D01*
Y0083760D01*
X0046494Y0083595D01*
X0046620Y0083469D01*
X0046785Y0083400D01*
X0046965D01*
X0047130Y0083469D01*
X0047256Y0083595D01*
X0047325Y0083760D01*
Y0083940D01*
X0047256Y0084105D01*
X0047166Y0084195D01*
X0047141Y0084271D01*
X0047165Y0084354D01*
X0047253Y0084443D01*
X0047322Y0084608D01*
Y0084787D01*
X0047253Y0084952D01*
X0047127Y0085079D01*
X0046961Y0085147D01*
D02*
G37*
G36*
X0045811D02*
X0045632D01*
X0045467Y0085079D01*
X0045340Y0084952D01*
X0045272Y0084787D01*
Y0084608D01*
X0045340Y0084443D01*
X0045430Y0084352D01*
X0045455Y0084276D01*
X0045432Y0084193D01*
X0045344Y0084105D01*
X0045275Y0083940D01*
Y0083760D01*
X0045344Y0083595D01*
X0045470Y0083469D01*
X0045635Y0083400D01*
X0045815D01*
X0045980Y0083469D01*
X0046106Y0083595D01*
X0046175Y0083760D01*
Y0083940D01*
X0046106Y0084105D01*
X0046016Y0084195D01*
X0045991Y0084271D01*
X0046015Y0084354D01*
X0046103Y0084443D01*
X0046172Y0084608D01*
Y0084787D01*
X0046103Y0084952D01*
X0045977Y0085079D01*
X0045811Y0085147D01*
D02*
G37*
G36*
X0055801Y0083100D02*
X0055622D01*
X0055456Y0083031D01*
X0055330Y0082905D01*
X0055261Y0082740D01*
Y0082560D01*
X0055330Y0082395D01*
X0055456Y0082269D01*
X0055622Y0082200D01*
X0055801D01*
X0055966Y0082269D01*
X0056093Y0082395D01*
X0056161Y0082560D01*
Y0082740D01*
X0056093Y0082905D01*
X0055966Y0083031D01*
X0055801Y0083100D01*
D02*
G37*
G36*
X0041140Y0080325D02*
X0040960D01*
X0040795Y0080256D01*
X0040669Y0080130D01*
X0040600Y0079965D01*
Y0079785D01*
X0040669Y0079620D01*
X0040795Y0079494D01*
X0040960Y0079425D01*
X0041140D01*
X0041305Y0079494D01*
X0041431Y0079620D01*
X0041500Y0079785D01*
Y0079965D01*
X0041431Y0080130D01*
X0041305Y0080256D01*
X0041140Y0080325D01*
D02*
G37*
G36*
X0017713Y0070680D02*
X0017700D01*
Y0069175D01*
X0019205D01*
Y0069188D01*
X0019141Y0069508D01*
X0019017Y0069809D01*
X0018836Y0070080D01*
X0018605Y0070311D01*
X0018334Y0070492D01*
X0018033Y0070616D01*
X0017713Y0070680D01*
D02*
G37*
G36*
X0002413D02*
X0002400D01*
Y0069175D01*
X0003905D01*
Y0069188D01*
X0003841Y0069508D01*
X0003717Y0069809D01*
X0003536Y0070080D01*
X0003305Y0070311D01*
X0003034Y0070492D01*
X0002733Y0070616D01*
X0002413Y0070680D01*
D02*
G37*
G36*
X0017400D02*
X0017387D01*
X0017067Y0070616D01*
X0016766Y0070492D01*
X0016495Y0070311D01*
X0016264Y0070080D01*
X0016083Y0069809D01*
X0015959Y0069508D01*
X0015895Y0069188D01*
Y0069175D01*
X0017400D01*
Y0070680D01*
D02*
G37*
G36*
X0050690Y0068900D02*
X0050510D01*
X0050345Y0068831D01*
X0050219Y0068705D01*
X0050150Y0068540D01*
Y0068519D01*
X0050025Y0068515D01*
X0049956Y0068680D01*
X0049830Y0068806D01*
X0049665Y0068875D01*
X0049485D01*
X0049320Y0068806D01*
X0049194Y0068680D01*
X0049161Y0068602D01*
X0049024D01*
X0048981Y0068705D01*
X0048855Y0068831D01*
X0048690Y0068900D01*
X0048510D01*
X0048345Y0068831D01*
X0048219Y0068705D01*
X0048150Y0068540D01*
Y0068360D01*
X0048219Y0068195D01*
X0048345Y0068069D01*
X0048357Y0068064D01*
X0048365Y0067979D01*
X0048362Y0067924D01*
X0048244Y0067805D01*
X0048175Y0067640D01*
Y0067460D01*
X0048244Y0067295D01*
X0048370Y0067169D01*
X0048535Y0067100D01*
X0048715D01*
X0048880Y0067169D01*
X0049006Y0067295D01*
X0049039Y0067373D01*
X0049176D01*
X0049218Y0067270D01*
X0049345Y0067144D01*
X0049510Y0067075D01*
X0049690D01*
X0049855Y0067144D01*
X0049981Y0067270D01*
X0050050Y0067435D01*
Y0067456D01*
X0050175Y0067460D01*
X0050244Y0067295D01*
X0050370Y0067169D01*
X0050535Y0067100D01*
X0050715D01*
X0050880Y0067169D01*
X0051006Y0067295D01*
X0051075Y0067460D01*
Y0067640D01*
X0051006Y0067805D01*
X0050880Y0067931D01*
X0050868Y0067936D01*
X0050860Y0068021D01*
X0050863Y0068076D01*
X0050981Y0068195D01*
X0051050Y0068360D01*
Y0068540D01*
X0050981Y0068705D01*
X0050855Y0068831D01*
X0050690Y0068900D01*
D02*
G37*
G36*
X0019205Y0068875D02*
X0017700D01*
Y0067370D01*
X0017713D01*
X0018033Y0067434D01*
X0018334Y0067558D01*
X0018605Y0067740D01*
X0018836Y0067970D01*
X0019017Y0068241D01*
X0019141Y0068542D01*
X0019205Y0068862D01*
Y0068875D01*
D02*
G37*
G36*
X0017400D02*
X0015895D01*
Y0068862D01*
X0015959Y0068542D01*
X0016083Y0068241D01*
X0016264Y0067970D01*
X0016495Y0067740D01*
X0016766Y0067558D01*
X0017067Y0067434D01*
X0017387Y0067370D01*
X0017400D01*
Y0068875D01*
D02*
G37*
G36*
X0003905D02*
X0002400D01*
Y0067370D01*
X0002413D01*
X0002733Y0067434D01*
X0003034Y0067558D01*
X0003305Y0067740D01*
X0003536Y0067970D01*
X0003717Y0068241D01*
X0003841Y0068542D01*
X0003905Y0068862D01*
Y0068875D01*
D02*
G37*
G36*
X0066215Y0068250D02*
X0066035D01*
X0065870Y0068181D01*
X0065743Y0068055D01*
X0065675Y0067890D01*
Y0067710D01*
X0065743Y0067545D01*
X0065870Y0067419D01*
X0066035Y0067350D01*
X0066215D01*
X0066380Y0067419D01*
X0066506Y0067545D01*
X0066575Y0067710D01*
Y0067890D01*
X0066506Y0068055D01*
X0066380Y0068181D01*
X0066215Y0068250D01*
D02*
G37*
G36*
X0086365Y0068225D02*
X0086185D01*
X0086020Y0068156D01*
X0085894Y0068030D01*
X0085825Y0067865D01*
Y0067685D01*
X0085894Y0067520D01*
X0086020Y0067394D01*
X0086185Y0067325D01*
X0086365D01*
X0086530Y0067394D01*
X0086656Y0067520D01*
X0086725Y0067685D01*
Y0067865D01*
X0086656Y0068030D01*
X0086530Y0068156D01*
X0086365Y0068225D01*
D02*
G37*
G36*
X0058415Y0065650D02*
X0058235D01*
X0058070Y0065581D01*
X0057944Y0065455D01*
X0057875Y0065290D01*
Y0065110D01*
X0057944Y0064945D01*
X0058070Y0064819D01*
X0058235Y0064750D01*
X0058415D01*
X0058580Y0064819D01*
X0058706Y0064945D01*
X0058775Y0065110D01*
Y0065290D01*
X0058706Y0065455D01*
X0058580Y0065581D01*
X0058415Y0065650D01*
D02*
G37*
G36*
X0078565Y0065625D02*
X0078385D01*
X0078220Y0065556D01*
X0078094Y0065430D01*
X0078025Y0065265D01*
Y0065085D01*
X0078094Y0064920D01*
X0078220Y0064794D01*
X0078385Y0064725D01*
X0078565D01*
X0078730Y0064794D01*
X0078856Y0064920D01*
X0078925Y0065085D01*
Y0065265D01*
X0078856Y0065430D01*
X0078730Y0065556D01*
X0078565Y0065625D01*
D02*
G37*
G36*
X0056715Y0061000D02*
X0056535D01*
X0056370Y0060931D01*
X0056244Y0060805D01*
X0056175Y0060640D01*
Y0060460D01*
X0056244Y0060295D01*
X0056370Y0060169D01*
X0056535Y0060100D01*
X0056715D01*
X0056880Y0060169D01*
X0057006Y0060295D01*
X0057075Y0060460D01*
Y0060640D01*
X0057006Y0060805D01*
X0056880Y0060931D01*
X0056715Y0061000D01*
D02*
G37*
G36*
X0076865Y0060975D02*
X0076685D01*
X0076520Y0060906D01*
X0076394Y0060780D01*
X0076325Y0060615D01*
Y0060435D01*
X0076394Y0060270D01*
X0076520Y0060144D01*
X0076685Y0060075D01*
X0076865D01*
X0077030Y0060144D01*
X0077156Y0060270D01*
X0077225Y0060435D01*
Y0060615D01*
X0077156Y0060780D01*
X0077030Y0060906D01*
X0076865Y0060975D01*
D02*
G37*
G36*
X0072915Y0060950D02*
X0072735D01*
X0072570Y0060881D01*
X0072444Y0060755D01*
X0072375Y0060590D01*
Y0060410D01*
X0072444Y0060245D01*
X0072570Y0060119D01*
X0072735Y0060050D01*
X0072915D01*
X0073080Y0060119D01*
X0073206Y0060245D01*
X0073275Y0060410D01*
Y0060590D01*
X0073206Y0060755D01*
X0073080Y0060881D01*
X0072915Y0060950D01*
D02*
G37*
G36*
X0040990Y0061279D02*
Y0059955D01*
X0042314D01*
X0042258Y0060235D01*
X0042147Y0060504D01*
X0041986Y0060745D01*
X0041780Y0060951D01*
X0041539Y0061112D01*
X0041270Y0061223D01*
X0040990Y0061279D01*
D02*
G37*
G36*
X0040690D02*
X0040410Y0061223D01*
X0040141Y0061112D01*
X0039900Y0060951D01*
X0039694Y0060745D01*
X0039533Y0060504D01*
X0039422Y0060235D01*
X0039366Y0059955D01*
X0040690D01*
Y0061279D01*
D02*
G37*
G36*
X0035910D02*
Y0059955D01*
X0037234D01*
X0037178Y0060235D01*
X0037067Y0060504D01*
X0036906Y0060745D01*
X0036700Y0060951D01*
X0036459Y0061112D01*
X0036190Y0061223D01*
X0035910Y0061279D01*
D02*
G37*
G36*
X0035610D02*
X0035330Y0061223D01*
X0035061Y0061112D01*
X0034820Y0060951D01*
X0034614Y0060745D01*
X0034453Y0060504D01*
X0034342Y0060235D01*
X0034286Y0059955D01*
X0035610D01*
Y0061279D01*
D02*
G37*
G36*
X0042314Y0059655D02*
X0040990D01*
Y0058331D01*
X0041270Y0058387D01*
X0041539Y0058498D01*
X0041780Y0058659D01*
X0041986Y0058865D01*
X0042147Y0059106D01*
X0042258Y0059375D01*
X0042314Y0059655D01*
D02*
G37*
G36*
X0040690D02*
X0039366D01*
X0039422Y0059375D01*
X0039533Y0059106D01*
X0039694Y0058865D01*
X0039900Y0058659D01*
X0040141Y0058498D01*
X0040410Y0058387D01*
X0040690Y0058331D01*
Y0059655D01*
D02*
G37*
G36*
X0037234D02*
X0035910D01*
Y0058331D01*
X0036190Y0058387D01*
X0036459Y0058498D01*
X0036700Y0058659D01*
X0036906Y0058865D01*
X0037067Y0059106D01*
X0037178Y0059375D01*
X0037234Y0059655D01*
D02*
G37*
G36*
X0035610D02*
X0034286D01*
X0034342Y0059375D01*
X0034453Y0059106D01*
X0034614Y0058865D01*
X0034820Y0058659D01*
X0035061Y0058498D01*
X0035330Y0058387D01*
X0035610Y0058331D01*
Y0059655D01*
D02*
G37*
G36*
X0053815Y0058125D02*
X0053635D01*
X0053470Y0058056D01*
X0053344Y0057930D01*
X0053275Y0057765D01*
Y0057585D01*
X0053344Y0057420D01*
X0053470Y0057294D01*
X0053635Y0057225D01*
X0053815D01*
X0053980Y0057294D01*
X0054106Y0057420D01*
X0054175Y0057585D01*
Y0057765D01*
X0054106Y0057930D01*
X0053980Y0058056D01*
X0053815Y0058125D01*
D02*
G37*
G36*
X0067490Y0057400D02*
X0067310D01*
X0067145Y0057331D01*
X0067019Y0057205D01*
X0066950Y0057040D01*
Y0056860D01*
X0067019Y0056695D01*
X0067145Y0056569D01*
X0067310Y0056500D01*
X0067490D01*
X0067655Y0056569D01*
X0067781Y0056695D01*
X0067850Y0056860D01*
Y0057040D01*
X0067781Y0057205D01*
X0067655Y0057331D01*
X0067490Y0057400D01*
D02*
G37*
G36*
X0087640Y0057375D02*
X0087460D01*
X0087295Y0057306D01*
X0087169Y0057180D01*
X0087100Y0057015D01*
Y0056835D01*
X0087169Y0056670D01*
X0087295Y0056544D01*
X0087460Y0056475D01*
X0087640D01*
X0087805Y0056544D01*
X0087931Y0056670D01*
X0088000Y0056835D01*
Y0057015D01*
X0087931Y0057180D01*
X0087805Y0057306D01*
X0087640Y0057375D01*
D02*
G37*
G36*
X0063140Y0057300D02*
X0062960D01*
X0062795Y0057231D01*
X0062669Y0057105D01*
X0062600Y0056940D01*
Y0056760D01*
X0062669Y0056595D01*
X0062795Y0056469D01*
X0062960Y0056400D01*
X0063140D01*
X0063305Y0056469D01*
X0063431Y0056595D01*
X0063500Y0056760D01*
Y0056940D01*
X0063431Y0057105D01*
X0063305Y0057231D01*
X0063140Y0057300D01*
D02*
G37*
G36*
X0083290Y0057275D02*
X0083110D01*
X0082945Y0057206D01*
X0082819Y0057080D01*
X0082750Y0056915D01*
Y0056735D01*
X0082819Y0056570D01*
X0082945Y0056444D01*
X0083110Y0056375D01*
X0083290D01*
X0083455Y0056444D01*
X0083581Y0056570D01*
X0083650Y0056735D01*
Y0056915D01*
X0083581Y0057080D01*
X0083455Y0057206D01*
X0083290Y0057275D01*
D02*
G37*
G36*
X0038465Y0058515D02*
X0038135D01*
X0037818Y0058430D01*
X0037532Y0058265D01*
X0037300Y0058033D01*
X0037135Y0057747D01*
X0037050Y0057430D01*
Y0057100D01*
X0037135Y0056783D01*
X0037300Y0056497D01*
X0037532Y0056265D01*
X0037818Y0056100D01*
X0038135Y0056015D01*
X0038465D01*
X0038782Y0056100D01*
X0039068Y0056265D01*
X0039300Y0056497D01*
X0039465Y0056783D01*
X0039550Y0057100D01*
Y0057430D01*
X0039465Y0057747D01*
X0039300Y0058033D01*
X0039068Y0058265D01*
X0038782Y0058430D01*
X0038465Y0058515D01*
D02*
G37*
G36*
X0058415Y0056600D02*
X0058235D01*
X0058070Y0056531D01*
X0057944Y0056405D01*
X0057875Y0056240D01*
Y0056060D01*
X0057944Y0055895D01*
X0058070Y0055769D01*
X0058235Y0055700D01*
X0058415D01*
X0058580Y0055769D01*
X0058706Y0055895D01*
X0058775Y0056060D01*
Y0056240D01*
X0058706Y0056405D01*
X0058580Y0056531D01*
X0058415Y0056600D01*
D02*
G37*
G36*
X0078565Y0056575D02*
X0078385D01*
X0078220Y0056506D01*
X0078094Y0056380D01*
X0078025Y0056215D01*
Y0056035D01*
X0078094Y0055870D01*
X0078220Y0055744D01*
X0078385Y0055675D01*
X0078565D01*
X0078730Y0055744D01*
X0078856Y0055870D01*
X0078925Y0056035D01*
Y0056215D01*
X0078856Y0056380D01*
X0078730Y0056506D01*
X0078565Y0056575D01*
D02*
G37*
G36*
X0040990Y0056199D02*
Y0054875D01*
X0042314D01*
X0042258Y0055155D01*
X0042147Y0055424D01*
X0041986Y0055665D01*
X0041780Y0055871D01*
X0041539Y0056032D01*
X0041270Y0056143D01*
X0040990Y0056199D01*
D02*
G37*
G36*
X0040690D02*
X0040410Y0056143D01*
X0040141Y0056032D01*
X0039900Y0055871D01*
X0039694Y0055665D01*
X0039533Y0055424D01*
X0039422Y0055155D01*
X0039366Y0054875D01*
X0040690D01*
Y0056199D01*
D02*
G37*
G36*
X0035910D02*
Y0054875D01*
X0037234D01*
X0037178Y0055155D01*
X0037067Y0055424D01*
X0036906Y0055665D01*
X0036700Y0055871D01*
X0036459Y0056032D01*
X0036190Y0056143D01*
X0035910Y0056199D01*
D02*
G37*
G36*
X0035610D02*
X0035330Y0056143D01*
X0035061Y0056032D01*
X0034820Y0055871D01*
X0034614Y0055665D01*
X0034453Y0055424D01*
X0034342Y0055155D01*
X0034286Y0054875D01*
X0035610D01*
Y0056199D01*
D02*
G37*
G36*
X0042314Y0054575D02*
X0040990D01*
Y0053251D01*
X0041270Y0053307D01*
X0041539Y0053418D01*
X0041780Y0053579D01*
X0041986Y0053785D01*
X0042147Y0054026D01*
X0042258Y0054295D01*
X0042314Y0054575D01*
D02*
G37*
G36*
X0040690D02*
X0039366D01*
X0039422Y0054295D01*
X0039533Y0054026D01*
X0039694Y0053785D01*
X0039900Y0053579D01*
X0040141Y0053418D01*
X0040410Y0053307D01*
X0040690Y0053251D01*
Y0054575D01*
D02*
G37*
G36*
X0037234D02*
X0035910D01*
Y0053251D01*
X0036190Y0053307D01*
X0036459Y0053418D01*
X0036700Y0053579D01*
X0036906Y0053785D01*
X0037067Y0054026D01*
X0037178Y0054295D01*
X0037234Y0054575D01*
D02*
G37*
G36*
X0035610D02*
X0034286D01*
X0034342Y0054295D01*
X0034453Y0054026D01*
X0034614Y0053785D01*
X0034820Y0053579D01*
X0035061Y0053418D01*
X0035330Y0053307D01*
X0035610Y0053251D01*
Y0054575D01*
D02*
G37*
G36*
X0017490Y0053975D02*
X0017310D01*
X0017145Y0053906D01*
X0017019Y0053780D01*
X0016950Y0053615D01*
Y0053435D01*
X0017019Y0053270D01*
X0017145Y0053144D01*
X0017310Y0053075D01*
X0017490D01*
X0017655Y0053144D01*
X0017781Y0053270D01*
X0017850Y0053435D01*
Y0053615D01*
X0017781Y0053780D01*
X0017655Y0053906D01*
X0017490Y0053975D01*
D02*
G37*
G36*
X0072065Y0052750D02*
X0071885D01*
X0071720Y0052681D01*
X0071594Y0052555D01*
X0071525Y0052390D01*
Y0052210D01*
X0071594Y0052045D01*
X0071720Y0051919D01*
X0071885Y0051850D01*
X0072065D01*
X0072230Y0051919D01*
X0072356Y0052045D01*
X0072425Y0052210D01*
Y0052390D01*
X0072356Y0052555D01*
X0072230Y0052681D01*
X0072065Y0052750D01*
D02*
G37*
G36*
X0025065Y0052725D02*
X0024885D01*
X0024720Y0052656D01*
X0024594Y0052530D01*
X0024525Y0052365D01*
Y0052185D01*
X0024594Y0052020D01*
X0024720Y0051894D01*
X0024885Y0051825D01*
X0025065D01*
X0025230Y0051894D01*
X0025356Y0052020D01*
X0025425Y0052185D01*
Y0052365D01*
X0025356Y0052530D01*
X0025230Y0052656D01*
X0025065Y0052725D01*
D02*
G37*
G36*
X0016390Y0048775D02*
X0016210D01*
X0016045Y0048706D01*
X0015919Y0048580D01*
X0015850Y0048415D01*
Y0048235D01*
X0015919Y0048070D01*
X0016045Y0047944D01*
X0016210Y0047875D01*
X0016390D01*
X0016555Y0047944D01*
X0016681Y0048070D01*
X0016750Y0048235D01*
Y0048415D01*
X0016681Y0048580D01*
X0016555Y0048706D01*
X0016390Y0048775D01*
D02*
G37*
G36*
X0025090Y0047325D02*
X0024910D01*
X0024745Y0047256D01*
X0024619Y0047130D01*
X0024550Y0046965D01*
Y0046785D01*
X0024619Y0046620D01*
X0024745Y0046494D01*
X0024910Y0046425D01*
X0025090D01*
X0025255Y0046494D01*
X0025381Y0046620D01*
X0025450Y0046785D01*
Y0046965D01*
X0025381Y0047130D01*
X0025255Y0047256D01*
X0025090Y0047325D01*
D02*
G37*
G36*
X0083865Y0046300D02*
X0083685D01*
X0083520Y0046231D01*
X0083394Y0046105D01*
X0083325Y0045940D01*
Y0045760D01*
X0083394Y0045595D01*
X0083520Y0045469D01*
X0083685Y0045400D01*
X0083865D01*
X0084030Y0045469D01*
X0084156Y0045595D01*
X0084225Y0045760D01*
Y0045940D01*
X0084156Y0046105D01*
X0084030Y0046231D01*
X0083865Y0046300D01*
D02*
G37*
G36*
X0086665Y0045850D02*
X0086485D01*
X0086320Y0045781D01*
X0086194Y0045655D01*
X0086125Y0045490D01*
Y0045310D01*
X0086194Y0045145D01*
X0086320Y0045019D01*
X0086485Y0044950D01*
X0086665D01*
X0086830Y0045019D01*
X0086956Y0045145D01*
X0087025Y0045310D01*
Y0045490D01*
X0086956Y0045655D01*
X0086830Y0045781D01*
X0086665Y0045850D01*
D02*
G37*
G36*
X0023040Y0045725D02*
X0022860D01*
X0022695Y0045656D01*
X0022569Y0045530D01*
X0022500Y0045365D01*
Y0045185D01*
X0022569Y0045020D01*
X0022695Y0044894D01*
X0022860Y0044825D01*
X0023040D01*
X0023205Y0044894D01*
X0023331Y0045020D01*
X0023400Y0045185D01*
Y0045365D01*
X0023331Y0045530D01*
X0023205Y0045656D01*
X0023040Y0045725D01*
D02*
G37*
G36*
X0075790Y0045500D02*
X0075610D01*
X0075445Y0045431D01*
X0075319Y0045305D01*
X0075250Y0045140D01*
Y0044960D01*
X0075319Y0044795D01*
X0075445Y0044669D01*
X0075610Y0044600D01*
X0075790D01*
X0075955Y0044669D01*
X0076081Y0044795D01*
X0076150Y0044960D01*
Y0045140D01*
X0076081Y0045305D01*
X0075955Y0045431D01*
X0075790Y0045500D01*
D02*
G37*
G36*
X0072165Y0045375D02*
X0071985D01*
X0071820Y0045306D01*
X0071694Y0045180D01*
X0071625Y0045015D01*
Y0044835D01*
X0071694Y0044670D01*
X0071820Y0044544D01*
X0071985Y0044475D01*
X0072165D01*
X0072330Y0044544D01*
X0072456Y0044670D01*
X0072525Y0044835D01*
Y0045015D01*
X0072456Y0045180D01*
X0072330Y0045306D01*
X0072165Y0045375D01*
D02*
G37*
G36*
X0053740Y0045789D02*
Y0044465D01*
X0055064D01*
X0055008Y0044745D01*
X0054897Y0045014D01*
X0054736Y0045255D01*
X0054530Y0045461D01*
X0054289Y0045622D01*
X0054020Y0045733D01*
X0053740Y0045789D01*
D02*
G37*
G36*
X0053440D02*
X0053160Y0045733D01*
X0052891Y0045622D01*
X0052650Y0045461D01*
X0052444Y0045255D01*
X0052283Y0045014D01*
X0052172Y0044745D01*
X0052116Y0044465D01*
X0053440D01*
Y0045789D01*
D02*
G37*
G36*
X0048660D02*
Y0044465D01*
X0049984D01*
X0049928Y0044745D01*
X0049817Y0045014D01*
X0049656Y0045255D01*
X0049450Y0045461D01*
X0049209Y0045622D01*
X0048940Y0045733D01*
X0048660Y0045789D01*
D02*
G37*
G36*
X0048360D02*
X0048080Y0045733D01*
X0047811Y0045622D01*
X0047570Y0045461D01*
X0047364Y0045255D01*
X0047203Y0045014D01*
X0047092Y0044745D01*
X0047036Y0044465D01*
X0048360D01*
Y0045789D01*
D02*
G37*
G36*
X0040990Y0045529D02*
Y0044205D01*
X0042314D01*
X0042258Y0044485D01*
X0042147Y0044754D01*
X0041986Y0044995D01*
X0041780Y0045201D01*
X0041539Y0045362D01*
X0041270Y0045473D01*
X0040990Y0045529D01*
D02*
G37*
G36*
X0040690D02*
X0040410Y0045473D01*
X0040141Y0045362D01*
X0039900Y0045201D01*
X0039694Y0044995D01*
X0039533Y0044754D01*
X0039422Y0044485D01*
X0039366Y0044205D01*
X0040690D01*
Y0045529D01*
D02*
G37*
G36*
X0035910D02*
Y0044205D01*
X0037234D01*
X0037178Y0044485D01*
X0037067Y0044754D01*
X0036906Y0044995D01*
X0036700Y0045201D01*
X0036459Y0045362D01*
X0036190Y0045473D01*
X0035910Y0045529D01*
D02*
G37*
G36*
X0035610D02*
X0035330Y0045473D01*
X0035061Y0045362D01*
X0034820Y0045201D01*
X0034614Y0044995D01*
X0034453Y0044754D01*
X0034342Y0044485D01*
X0034286Y0044205D01*
X0035610D01*
Y0045529D01*
D02*
G37*
G36*
X0055064Y0044165D02*
X0053740D01*
Y0042841D01*
X0054020Y0042897D01*
X0054289Y0043008D01*
X0054530Y0043169D01*
X0054736Y0043375D01*
X0054897Y0043616D01*
X0055008Y0043885D01*
X0055064Y0044165D01*
D02*
G37*
G36*
X0053440D02*
X0052116D01*
X0052172Y0043885D01*
X0052283Y0043616D01*
X0052444Y0043375D01*
X0052650Y0043169D01*
X0052891Y0043008D01*
X0053160Y0042897D01*
X0053440Y0042841D01*
Y0044165D01*
D02*
G37*
G36*
X0049984D02*
X0048660D01*
Y0042841D01*
X0048940Y0042897D01*
X0049209Y0043008D01*
X0049450Y0043169D01*
X0049656Y0043375D01*
X0049817Y0043616D01*
X0049928Y0043885D01*
X0049984Y0044165D01*
D02*
G37*
G36*
X0048360D02*
X0047036D01*
X0047092Y0043885D01*
X0047203Y0043616D01*
X0047364Y0043375D01*
X0047570Y0043169D01*
X0047811Y0043008D01*
X0048080Y0042897D01*
X0048360Y0042841D01*
Y0044165D01*
D02*
G37*
G36*
X0042314Y0043905D02*
X0040990D01*
Y0042581D01*
X0041270Y0042637D01*
X0041539Y0042748D01*
X0041780Y0042909D01*
X0041986Y0043115D01*
X0042147Y0043356D01*
X0042258Y0043625D01*
X0042314Y0043905D01*
D02*
G37*
G36*
X0040690D02*
X0039366D01*
X0039422Y0043625D01*
X0039533Y0043356D01*
X0039694Y0043115D01*
X0039900Y0042909D01*
X0040141Y0042748D01*
X0040410Y0042637D01*
X0040690Y0042581D01*
Y0043905D01*
D02*
G37*
G36*
X0037234D02*
X0035910D01*
Y0042581D01*
X0036190Y0042637D01*
X0036459Y0042748D01*
X0036700Y0042909D01*
X0036906Y0043115D01*
X0037067Y0043356D01*
X0037178Y0043625D01*
X0037234Y0043905D01*
D02*
G37*
G36*
X0035610D02*
X0034286D01*
X0034342Y0043625D01*
X0034453Y0043356D01*
X0034614Y0043115D01*
X0034820Y0042909D01*
X0035061Y0042748D01*
X0035330Y0042637D01*
X0035610Y0042581D01*
Y0043905D01*
D02*
G37*
G36*
X0072165Y0043425D02*
X0071985D01*
X0071820Y0043356D01*
X0071694Y0043230D01*
X0071625Y0043065D01*
Y0042885D01*
X0071694Y0042720D01*
X0071820Y0042594D01*
X0071985Y0042525D01*
X0072165D01*
X0072330Y0042594D01*
X0072456Y0042720D01*
X0072525Y0042885D01*
Y0043065D01*
X0072456Y0043230D01*
X0072330Y0043356D01*
X0072165Y0043425D01*
D02*
G37*
G36*
X0051215Y0043025D02*
X0050885D01*
X0050568Y0042940D01*
X0050282Y0042775D01*
X0050050Y0042543D01*
X0049885Y0042257D01*
X0049800Y0041940D01*
Y0041610D01*
X0049885Y0041293D01*
X0050050Y0041007D01*
X0050282Y0040775D01*
X0050568Y0040610D01*
X0050885Y0040525D01*
X0051215D01*
X0051532Y0040610D01*
X0051818Y0040775D01*
X0052050Y0041007D01*
X0052215Y0041293D01*
X0052300Y0041610D01*
Y0041940D01*
X0052215Y0042257D01*
X0052050Y0042543D01*
X0051818Y0042775D01*
X0051532Y0042940D01*
X0051215Y0043025D01*
D02*
G37*
G36*
X0038465Y0042765D02*
X0038135D01*
X0037818Y0042680D01*
X0037532Y0042515D01*
X0037300Y0042283D01*
X0037135Y0041997D01*
X0037050Y0041680D01*
Y0041350D01*
X0037135Y0041033D01*
X0037300Y0040747D01*
X0037532Y0040515D01*
X0037818Y0040350D01*
X0038135Y0040265D01*
X0038465D01*
X0038782Y0040350D01*
X0039068Y0040515D01*
X0039300Y0040747D01*
X0039465Y0041033D01*
X0039550Y0041350D01*
Y0041680D01*
X0039465Y0041997D01*
X0039300Y0042283D01*
X0039068Y0042515D01*
X0038782Y0042680D01*
X0038465Y0042765D01*
D02*
G37*
G36*
X0053740Y0040709D02*
Y0039385D01*
X0055064D01*
X0055008Y0039665D01*
X0054897Y0039934D01*
X0054736Y0040175D01*
X0054530Y0040381D01*
X0054289Y0040542D01*
X0054020Y0040653D01*
X0053740Y0040709D01*
D02*
G37*
G36*
X0053440D02*
X0053160Y0040653D01*
X0052891Y0040542D01*
X0052650Y0040381D01*
X0052444Y0040175D01*
X0052283Y0039934D01*
X0052172Y0039665D01*
X0052116Y0039385D01*
X0053440D01*
Y0040709D01*
D02*
G37*
G36*
X0048660D02*
Y0039385D01*
X0049984D01*
X0049928Y0039665D01*
X0049817Y0039934D01*
X0049656Y0040175D01*
X0049450Y0040381D01*
X0049209Y0040542D01*
X0048940Y0040653D01*
X0048660Y0040709D01*
D02*
G37*
G36*
X0048360D02*
X0048080Y0040653D01*
X0047811Y0040542D01*
X0047570Y0040381D01*
X0047364Y0040175D01*
X0047203Y0039934D01*
X0047092Y0039665D01*
X0047036Y0039385D01*
X0048360D01*
Y0040709D01*
D02*
G37*
G36*
X0040990Y0040449D02*
Y0039125D01*
X0042314D01*
X0042258Y0039405D01*
X0042147Y0039674D01*
X0041986Y0039915D01*
X0041780Y0040121D01*
X0041539Y0040282D01*
X0041270Y0040393D01*
X0040990Y0040449D01*
D02*
G37*
G36*
X0040690D02*
X0040410Y0040393D01*
X0040141Y0040282D01*
X0039900Y0040121D01*
X0039694Y0039915D01*
X0039533Y0039674D01*
X0039422Y0039405D01*
X0039366Y0039125D01*
X0040690D01*
Y0040449D01*
D02*
G37*
G36*
X0035910D02*
Y0039125D01*
X0037234D01*
X0037178Y0039405D01*
X0037067Y0039674D01*
X0036906Y0039915D01*
X0036700Y0040121D01*
X0036459Y0040282D01*
X0036190Y0040393D01*
X0035910Y0040449D01*
D02*
G37*
G36*
X0035610D02*
X0035330Y0040393D01*
X0035061Y0040282D01*
X0034820Y0040121D01*
X0034614Y0039915D01*
X0034453Y0039674D01*
X0034342Y0039405D01*
X0034286Y0039125D01*
X0035610D01*
Y0040449D01*
D02*
G37*
G36*
X0071690Y0038900D02*
X0071510D01*
X0071345Y0038831D01*
X0071219Y0038705D01*
X0071150Y0038540D01*
Y0038360D01*
X0071219Y0038195D01*
X0071345Y0038069D01*
X0071510Y0038000D01*
X0071690D01*
X0071855Y0038069D01*
X0071981Y0038195D01*
X0072050Y0038360D01*
Y0038540D01*
X0071981Y0038705D01*
X0071855Y0038831D01*
X0071690Y0038900D01*
D02*
G37*
G36*
X0073540Y0038875D02*
X0073360D01*
X0073195Y0038806D01*
X0073069Y0038680D01*
X0073000Y0038515D01*
Y0038335D01*
X0073069Y0038170D01*
X0073195Y0038044D01*
X0073360Y0037975D01*
X0073540D01*
X0073705Y0038044D01*
X0073831Y0038170D01*
X0073900Y0038335D01*
Y0038515D01*
X0073831Y0038680D01*
X0073705Y0038806D01*
X0073540Y0038875D01*
D02*
G37*
G36*
X0055064Y0039085D02*
X0053740D01*
Y0037761D01*
X0054020Y0037817D01*
X0054289Y0037928D01*
X0054530Y0038089D01*
X0054736Y0038295D01*
X0054897Y0038536D01*
X0055008Y0038805D01*
X0055064Y0039085D01*
D02*
G37*
G36*
X0053440D02*
X0052116D01*
X0052172Y0038805D01*
X0052283Y0038536D01*
X0052444Y0038295D01*
X0052650Y0038089D01*
X0052891Y0037928D01*
X0053160Y0037817D01*
X0053440Y0037761D01*
Y0039085D01*
D02*
G37*
G36*
X0049984D02*
X0048660D01*
Y0037761D01*
X0048940Y0037817D01*
X0049209Y0037928D01*
X0049450Y0038089D01*
X0049656Y0038295D01*
X0049817Y0038536D01*
X0049928Y0038805D01*
X0049984Y0039085D01*
D02*
G37*
G36*
X0048360D02*
X0047036D01*
X0047092Y0038805D01*
X0047203Y0038536D01*
X0047364Y0038295D01*
X0047570Y0038089D01*
X0047811Y0037928D01*
X0048080Y0037817D01*
X0048360Y0037761D01*
Y0039085D01*
D02*
G37*
G36*
X0042314Y0038825D02*
X0040990D01*
Y0037501D01*
X0041270Y0037557D01*
X0041539Y0037668D01*
X0041780Y0037829D01*
X0041986Y0038035D01*
X0042147Y0038276D01*
X0042258Y0038545D01*
X0042314Y0038825D01*
D02*
G37*
G36*
X0040690D02*
X0039366D01*
X0039422Y0038545D01*
X0039533Y0038276D01*
X0039694Y0038035D01*
X0039900Y0037829D01*
X0040141Y0037668D01*
X0040410Y0037557D01*
X0040690Y0037501D01*
Y0038825D01*
D02*
G37*
G36*
X0037234D02*
X0035910D01*
Y0037501D01*
X0036190Y0037557D01*
X0036459Y0037668D01*
X0036700Y0037829D01*
X0036906Y0038035D01*
X0037067Y0038276D01*
X0037178Y0038545D01*
X0037234Y0038825D01*
D02*
G37*
G36*
X0035610D02*
X0034286D01*
X0034342Y0038545D01*
X0034453Y0038276D01*
X0034614Y0038035D01*
X0034820Y0037829D01*
X0035061Y0037668D01*
X0035330Y0037557D01*
X0035610Y0037501D01*
Y0038825D01*
D02*
G37*
G36*
X0017515Y0038385D02*
X0017335D01*
X0017170Y0038316D01*
X0017044Y0038189D01*
X0016975Y0038024D01*
Y0037845D01*
X0017044Y0037680D01*
X0017170Y0037553D01*
X0017335Y0037485D01*
X0017515D01*
X0017680Y0037553D01*
X0017806Y0037680D01*
X0017875Y0037845D01*
Y0038024D01*
X0017806Y0038189D01*
X0017680Y0038316D01*
X0017515Y0038385D01*
D02*
G37*
G36*
X0084790Y0038300D02*
X0084610D01*
X0084445Y0038231D01*
X0084319Y0038105D01*
X0084250Y0037940D01*
Y0037760D01*
X0084319Y0037595D01*
X0084445Y0037469D01*
X0084610Y0037400D01*
X0084790D01*
X0084955Y0037469D01*
X0085081Y0037595D01*
X0085150Y0037760D01*
Y0037940D01*
X0085081Y0038105D01*
X0084955Y0038231D01*
X0084790Y0038300D01*
D02*
G37*
G36*
X0025090Y0037135D02*
X0024910D01*
X0024745Y0037066D01*
X0024618Y0036939D01*
X0024550Y0036774D01*
Y0036595D01*
X0024618Y0036430D01*
X0024745Y0036303D01*
X0024910Y0036235D01*
X0025090D01*
X0025255Y0036303D01*
X0025381Y0036430D01*
X0025450Y0036595D01*
Y0036774D01*
X0025381Y0036939D01*
X0025255Y0037066D01*
X0025090Y0037135D01*
D02*
G37*
G36*
X0016390Y0035325D02*
X0016210D01*
X0016045Y0035256D01*
X0015919Y0035130D01*
X0015850Y0034965D01*
Y0034785D01*
X0015919Y0034620D01*
X0016045Y0034494D01*
X0016210Y0034425D01*
X0016390D01*
X0016555Y0034494D01*
X0016681Y0034620D01*
X0016750Y0034785D01*
Y0034965D01*
X0016681Y0035130D01*
X0016555Y0035256D01*
X0016390Y0035325D01*
D02*
G37*
G36*
X0025115Y0031735D02*
X0024935D01*
X0024770Y0031666D01*
X0024643Y0031539D01*
X0024575Y0031374D01*
Y0031195D01*
X0024643Y0031030D01*
X0024770Y0030903D01*
X0024935Y0030835D01*
X0025115D01*
X0025280Y0030903D01*
X0025406Y0031030D01*
X0025475Y0031195D01*
Y0031374D01*
X0025406Y0031539D01*
X0025280Y0031666D01*
X0025115Y0031735D01*
D02*
G37*
G36*
X0023065Y0030135D02*
X0022885D01*
X0022720Y0030066D01*
X0022594Y0029939D01*
X0022525Y0029774D01*
Y0029595D01*
X0022594Y0029430D01*
X0022720Y0029303D01*
X0022885Y0029235D01*
X0023065D01*
X0023230Y0029303D01*
X0023356Y0029430D01*
X0023425Y0029595D01*
Y0029774D01*
X0023356Y0029939D01*
X0023230Y0030066D01*
X0023065Y0030135D01*
D02*
G37*
G36*
X0053740Y0030039D02*
Y0028715D01*
X0055064D01*
X0055008Y0028995D01*
X0054897Y0029264D01*
X0054736Y0029505D01*
X0054530Y0029711D01*
X0054289Y0029872D01*
X0054020Y0029983D01*
X0053740Y0030039D01*
D02*
G37*
G36*
X0053440D02*
X0053160Y0029983D01*
X0052891Y0029872D01*
X0052650Y0029711D01*
X0052444Y0029505D01*
X0052283Y0029264D01*
X0052172Y0028995D01*
X0052116Y0028715D01*
X0053440D01*
Y0030039D01*
D02*
G37*
G36*
X0048660D02*
Y0028715D01*
X0049984D01*
X0049928Y0028995D01*
X0049817Y0029264D01*
X0049656Y0029505D01*
X0049450Y0029711D01*
X0049209Y0029872D01*
X0048940Y0029983D01*
X0048660Y0030039D01*
D02*
G37*
G36*
X0048360D02*
X0048080Y0029983D01*
X0047811Y0029872D01*
X0047570Y0029711D01*
X0047364Y0029505D01*
X0047203Y0029264D01*
X0047092Y0028995D01*
X0047036Y0028715D01*
X0048360D01*
Y0030039D01*
D02*
G37*
G36*
X0040990Y0029904D02*
Y0028580D01*
X0042314D01*
X0042258Y0028860D01*
X0042147Y0029129D01*
X0041986Y0029370D01*
X0041780Y0029576D01*
X0041539Y0029737D01*
X0041270Y0029848D01*
X0040990Y0029904D01*
D02*
G37*
G36*
X0040690D02*
X0040410Y0029848D01*
X0040141Y0029737D01*
X0039900Y0029576D01*
X0039694Y0029370D01*
X0039533Y0029129D01*
X0039422Y0028860D01*
X0039366Y0028580D01*
X0040690D01*
Y0029904D01*
D02*
G37*
G36*
X0035910D02*
Y0028580D01*
X0037234D01*
X0037178Y0028860D01*
X0037067Y0029129D01*
X0036906Y0029370D01*
X0036700Y0029576D01*
X0036459Y0029737D01*
X0036190Y0029848D01*
X0035910Y0029904D01*
D02*
G37*
G36*
X0035610D02*
X0035330Y0029848D01*
X0035061Y0029737D01*
X0034820Y0029576D01*
X0034614Y0029370D01*
X0034453Y0029129D01*
X0034342Y0028860D01*
X0034286Y0028580D01*
X0035610D01*
Y0029904D01*
D02*
G37*
G36*
X0055064Y0028415D02*
X0053740D01*
Y0027091D01*
X0054020Y0027147D01*
X0054289Y0027258D01*
X0054530Y0027419D01*
X0054736Y0027625D01*
X0054897Y0027866D01*
X0055008Y0028135D01*
X0055064Y0028415D01*
D02*
G37*
G36*
X0053440D02*
X0052116D01*
X0052172Y0028135D01*
X0052283Y0027866D01*
X0052444Y0027625D01*
X0052650Y0027419D01*
X0052891Y0027258D01*
X0053160Y0027147D01*
X0053440Y0027091D01*
Y0028415D01*
D02*
G37*
G36*
X0049984D02*
X0048660D01*
Y0027091D01*
X0048940Y0027147D01*
X0049209Y0027258D01*
X0049450Y0027419D01*
X0049656Y0027625D01*
X0049817Y0027866D01*
X0049928Y0028135D01*
X0049984Y0028415D01*
D02*
G37*
G36*
X0048360D02*
X0047036D01*
X0047092Y0028135D01*
X0047203Y0027866D01*
X0047364Y0027625D01*
X0047570Y0027419D01*
X0047811Y0027258D01*
X0048080Y0027147D01*
X0048360Y0027091D01*
Y0028415D01*
D02*
G37*
G36*
X0042314Y0028280D02*
X0040990D01*
Y0026956D01*
X0041270Y0027012D01*
X0041539Y0027123D01*
X0041780Y0027284D01*
X0041986Y0027490D01*
X0042147Y0027731D01*
X0042258Y0028000D01*
X0042314Y0028280D01*
D02*
G37*
G36*
X0040690D02*
X0039366D01*
X0039422Y0028000D01*
X0039533Y0027731D01*
X0039694Y0027490D01*
X0039900Y0027284D01*
X0040141Y0027123D01*
X0040410Y0027012D01*
X0040690Y0026956D01*
Y0028280D01*
D02*
G37*
G36*
X0037234D02*
X0035910D01*
Y0026956D01*
X0036190Y0027012D01*
X0036459Y0027123D01*
X0036700Y0027284D01*
X0036906Y0027490D01*
X0037067Y0027731D01*
X0037178Y0028000D01*
X0037234Y0028280D01*
D02*
G37*
G36*
X0035610D02*
X0034286D01*
X0034342Y0028000D01*
X0034453Y0027731D01*
X0034614Y0027490D01*
X0034820Y0027284D01*
X0035061Y0027123D01*
X0035330Y0027012D01*
X0035610Y0026956D01*
Y0028280D01*
D02*
G37*
G36*
X0051215Y0027275D02*
X0050885D01*
X0050568Y0027190D01*
X0050282Y0027025D01*
X0050050Y0026793D01*
X0049885Y0026507D01*
X0049800Y0026190D01*
Y0025860D01*
X0049885Y0025543D01*
X0050050Y0025257D01*
X0050282Y0025025D01*
X0050568Y0024860D01*
X0050885Y0024775D01*
X0051215D01*
X0051532Y0024860D01*
X0051818Y0025025D01*
X0052050Y0025257D01*
X0052215Y0025543D01*
X0052300Y0025860D01*
Y0026190D01*
X0052215Y0026507D01*
X0052050Y0026793D01*
X0051818Y0027025D01*
X0051532Y0027190D01*
X0051215Y0027275D01*
D02*
G37*
G36*
X0038465Y0027140D02*
X0038135D01*
X0037818Y0027055D01*
X0037532Y0026890D01*
X0037300Y0026658D01*
X0037135Y0026372D01*
X0037050Y0026055D01*
Y0025725D01*
X0037135Y0025408D01*
X0037300Y0025122D01*
X0037532Y0024890D01*
X0037818Y0024725D01*
X0038135Y0024640D01*
X0038465D01*
X0038782Y0024725D01*
X0039068Y0024890D01*
X0039300Y0025122D01*
X0039465Y0025408D01*
X0039550Y0025725D01*
Y0026055D01*
X0039465Y0026372D01*
X0039300Y0026658D01*
X0039068Y0026890D01*
X0038782Y0027055D01*
X0038465Y0027140D01*
D02*
G37*
G36*
X0053740Y0024959D02*
Y0023635D01*
X0055064D01*
X0055008Y0023915D01*
X0054897Y0024184D01*
X0054736Y0024425D01*
X0054530Y0024631D01*
X0054289Y0024792D01*
X0054020Y0024903D01*
X0053740Y0024959D01*
D02*
G37*
G36*
X0053440D02*
X0053160Y0024903D01*
X0052891Y0024792D01*
X0052650Y0024631D01*
X0052444Y0024425D01*
X0052283Y0024184D01*
X0052172Y0023915D01*
X0052116Y0023635D01*
X0053440D01*
Y0024959D01*
D02*
G37*
G36*
X0048660D02*
Y0023635D01*
X0049984D01*
X0049928Y0023915D01*
X0049817Y0024184D01*
X0049656Y0024425D01*
X0049450Y0024631D01*
X0049209Y0024792D01*
X0048940Y0024903D01*
X0048660Y0024959D01*
D02*
G37*
G36*
X0048360D02*
X0048080Y0024903D01*
X0047811Y0024792D01*
X0047570Y0024631D01*
X0047364Y0024425D01*
X0047203Y0024184D01*
X0047092Y0023915D01*
X0047036Y0023635D01*
X0048360D01*
Y0024959D01*
D02*
G37*
G36*
X0040990Y0024824D02*
Y0023500D01*
X0042314D01*
X0042258Y0023780D01*
X0042147Y0024049D01*
X0041986Y0024290D01*
X0041780Y0024496D01*
X0041539Y0024657D01*
X0041270Y0024768D01*
X0040990Y0024824D01*
D02*
G37*
G36*
X0040690D02*
X0040410Y0024768D01*
X0040141Y0024657D01*
X0039900Y0024496D01*
X0039694Y0024290D01*
X0039533Y0024049D01*
X0039422Y0023780D01*
X0039366Y0023500D01*
X0040690D01*
Y0024824D01*
D02*
G37*
G36*
X0035910D02*
Y0023500D01*
X0037234D01*
X0037178Y0023780D01*
X0037067Y0024049D01*
X0036906Y0024290D01*
X0036700Y0024496D01*
X0036459Y0024657D01*
X0036190Y0024768D01*
X0035910Y0024824D01*
D02*
G37*
G36*
X0035610D02*
X0035330Y0024768D01*
X0035061Y0024657D01*
X0034820Y0024496D01*
X0034614Y0024290D01*
X0034453Y0024049D01*
X0034342Y0023780D01*
X0034286Y0023500D01*
X0035610D01*
Y0024824D01*
D02*
G37*
G36*
X0055064Y0023335D02*
X0053740D01*
Y0022011D01*
X0054020Y0022067D01*
X0054289Y0022178D01*
X0054530Y0022339D01*
X0054736Y0022545D01*
X0054897Y0022786D01*
X0055008Y0023055D01*
X0055064Y0023335D01*
D02*
G37*
G36*
X0053440D02*
X0052116D01*
X0052172Y0023055D01*
X0052283Y0022786D01*
X0052444Y0022545D01*
X0052650Y0022339D01*
X0052891Y0022178D01*
X0053160Y0022067D01*
X0053440Y0022011D01*
Y0023335D01*
D02*
G37*
G36*
X0049984D02*
X0048660D01*
Y0022011D01*
X0048940Y0022067D01*
X0049209Y0022178D01*
X0049450Y0022339D01*
X0049656Y0022545D01*
X0049817Y0022786D01*
X0049928Y0023055D01*
X0049984Y0023335D01*
D02*
G37*
G36*
X0048360D02*
X0047036D01*
X0047092Y0023055D01*
X0047203Y0022786D01*
X0047364Y0022545D01*
X0047570Y0022339D01*
X0047811Y0022178D01*
X0048080Y0022067D01*
X0048360Y0022011D01*
Y0023335D01*
D02*
G37*
G36*
X0042314Y0023200D02*
X0040990D01*
Y0021876D01*
X0041270Y0021932D01*
X0041539Y0022043D01*
X0041780Y0022204D01*
X0041986Y0022410D01*
X0042147Y0022651D01*
X0042258Y0022920D01*
X0042314Y0023200D01*
D02*
G37*
G36*
X0040690D02*
X0039366D01*
X0039422Y0022920D01*
X0039533Y0022651D01*
X0039694Y0022410D01*
X0039900Y0022204D01*
X0040141Y0022043D01*
X0040410Y0021932D01*
X0040690Y0021876D01*
Y0023200D01*
D02*
G37*
G36*
X0037234D02*
X0035910D01*
Y0021876D01*
X0036190Y0021932D01*
X0036459Y0022043D01*
X0036700Y0022204D01*
X0036906Y0022410D01*
X0037067Y0022651D01*
X0037178Y0022920D01*
X0037234Y0023200D01*
D02*
G37*
G36*
X0035610D02*
X0034286D01*
X0034342Y0022920D01*
X0034453Y0022651D01*
X0034614Y0022410D01*
X0034820Y0022204D01*
X0035061Y0022043D01*
X0035330Y0021932D01*
X0035610Y0021876D01*
Y0023200D01*
D02*
G37*
G36*
X0016840Y0021875D02*
X0016660D01*
X0016495Y0021806D01*
X0016369Y0021680D01*
X0016300Y0021515D01*
Y0021335D01*
X0016369Y0021170D01*
X0016495Y0021044D01*
X0016660Y0020975D01*
X0016840D01*
X0017005Y0021044D01*
X0017131Y0021170D01*
X0017200Y0021335D01*
Y0021515D01*
X0017131Y0021680D01*
X0017005Y0021806D01*
X0016840Y0021875D01*
D02*
G37*
G36*
X0038640Y0021300D02*
X0038460D01*
X0038295Y0021231D01*
X0038169Y0021105D01*
X0038100Y0020940D01*
Y0020760D01*
X0038169Y0020595D01*
X0038295Y0020469D01*
X0038460Y0020400D01*
X0038640D01*
X0038805Y0020469D01*
X0038931Y0020595D01*
X0039000Y0020760D01*
Y0020940D01*
X0038931Y0021105D01*
X0038805Y0021231D01*
X0038640Y0021300D01*
D02*
G37*
G36*
X0023190Y0020650D02*
X0023010D01*
X0022845Y0020581D01*
X0022719Y0020455D01*
X0022650Y0020290D01*
Y0020110D01*
X0022719Y0019945D01*
X0022845Y0019819D01*
X0023010Y0019750D01*
X0023190D01*
X0023355Y0019819D01*
X0023481Y0019945D01*
X0023550Y0020110D01*
Y0020290D01*
X0023481Y0020455D01*
X0023355Y0020581D01*
X0023190Y0020650D01*
D02*
G37*
G36*
X0038640Y0015900D02*
X0038460D01*
X0038295Y0015831D01*
X0038169Y0015705D01*
X0038100Y0015540D01*
Y0015360D01*
X0038169Y0015195D01*
X0038295Y0015069D01*
X0038460Y0015000D01*
X0038640D01*
X0038805Y0015069D01*
X0038931Y0015195D01*
X0039000Y0015360D01*
Y0015540D01*
X0038931Y0015705D01*
X0038805Y0015831D01*
X0038640Y0015900D01*
D02*
G37*
G36*
X0053740Y0014414D02*
Y0013090D01*
X0055064D01*
X0055008Y0013370D01*
X0054897Y0013639D01*
X0054736Y0013880D01*
X0054530Y0014086D01*
X0054289Y0014247D01*
X0054020Y0014358D01*
X0053740Y0014414D01*
D02*
G37*
G36*
X0053440D02*
X0053160Y0014358D01*
X0052891Y0014247D01*
X0052650Y0014086D01*
X0052444Y0013880D01*
X0052283Y0013639D01*
X0052172Y0013370D01*
X0052116Y0013090D01*
X0053440D01*
Y0014414D01*
D02*
G37*
G36*
X0048660D02*
Y0013090D01*
X0049984D01*
X0049928Y0013370D01*
X0049817Y0013639D01*
X0049656Y0013880D01*
X0049450Y0014086D01*
X0049209Y0014247D01*
X0048940Y0014358D01*
X0048660Y0014414D01*
D02*
G37*
G36*
X0048360D02*
X0048080Y0014358D01*
X0047811Y0014247D01*
X0047570Y0014086D01*
X0047364Y0013880D01*
X0047203Y0013639D01*
X0047092Y0013370D01*
X0047036Y0013090D01*
X0048360D01*
Y0014414D01*
D02*
G37*
G36*
X0055064Y0012790D02*
X0053740D01*
Y0011466D01*
X0054020Y0011522D01*
X0054289Y0011633D01*
X0054530Y0011794D01*
X0054736Y0012000D01*
X0054897Y0012241D01*
X0055008Y0012510D01*
X0055064Y0012790D01*
D02*
G37*
G36*
X0053440D02*
X0052116D01*
X0052172Y0012510D01*
X0052283Y0012241D01*
X0052444Y0012000D01*
X0052650Y0011794D01*
X0052891Y0011633D01*
X0053160Y0011522D01*
X0053440Y0011466D01*
Y0012790D01*
D02*
G37*
G36*
X0049984D02*
X0048660D01*
Y0011466D01*
X0048940Y0011522D01*
X0049209Y0011633D01*
X0049450Y0011794D01*
X0049656Y0012000D01*
X0049817Y0012241D01*
X0049928Y0012510D01*
X0049984Y0012790D01*
D02*
G37*
G36*
X0048360D02*
X0047036D01*
X0047092Y0012510D01*
X0047203Y0012241D01*
X0047364Y0012000D01*
X0047570Y0011794D01*
X0047811Y0011633D01*
X0048080Y0011522D01*
X0048360Y0011466D01*
Y0012790D01*
D02*
G37*
G36*
X0051215Y0011650D02*
X0050885D01*
X0050568Y0011565D01*
X0050282Y0011400D01*
X0050050Y0011168D01*
X0049885Y0010882D01*
X0049800Y0010565D01*
Y0010235D01*
X0049885Y0009918D01*
X0050050Y0009632D01*
X0050282Y0009400D01*
X0050568Y0009235D01*
X0050885Y0009150D01*
X0051215D01*
X0051532Y0009235D01*
X0051818Y0009400D01*
X0052050Y0009632D01*
X0052215Y0009918D01*
X0052300Y0010235D01*
Y0010565D01*
X0052215Y0010882D01*
X0052050Y0011168D01*
X0051818Y0011400D01*
X0051532Y0011565D01*
X0051215Y0011650D01*
D02*
G37*
G36*
X0053740Y0009334D02*
Y0008010D01*
X0055064D01*
X0055008Y0008290D01*
X0054897Y0008559D01*
X0054736Y0008800D01*
X0054530Y0009006D01*
X0054289Y0009167D01*
X0054020Y0009278D01*
X0053740Y0009334D01*
D02*
G37*
G36*
X0053440D02*
X0053160Y0009278D01*
X0052891Y0009167D01*
X0052650Y0009006D01*
X0052444Y0008800D01*
X0052283Y0008559D01*
X0052172Y0008290D01*
X0052116Y0008010D01*
X0053440D01*
Y0009334D01*
D02*
G37*
G36*
X0048660D02*
Y0008010D01*
X0049984D01*
X0049928Y0008290D01*
X0049817Y0008559D01*
X0049656Y0008800D01*
X0049450Y0009006D01*
X0049209Y0009167D01*
X0048940Y0009278D01*
X0048660Y0009334D01*
D02*
G37*
G36*
X0048360D02*
X0048080Y0009278D01*
X0047811Y0009167D01*
X0047570Y0009006D01*
X0047364Y0008800D01*
X0047203Y0008559D01*
X0047092Y0008290D01*
X0047036Y0008010D01*
X0048360D01*
Y0009334D01*
D02*
G37*
G36*
X0055064Y0007710D02*
X0053740D01*
Y0006386D01*
X0054020Y0006442D01*
X0054289Y0006553D01*
X0054530Y0006714D01*
X0054736Y0006920D01*
X0054897Y0007161D01*
X0055008Y0007430D01*
X0055064Y0007710D01*
D02*
G37*
G36*
X0053440D02*
X0052116D01*
X0052172Y0007430D01*
X0052283Y0007161D01*
X0052444Y0006920D01*
X0052650Y0006714D01*
X0052891Y0006553D01*
X0053160Y0006442D01*
X0053440Y0006386D01*
Y0007710D01*
D02*
G37*
G36*
X0049984D02*
X0048660D01*
Y0006386D01*
X0048940Y0006442D01*
X0049209Y0006553D01*
X0049450Y0006714D01*
X0049656Y0006920D01*
X0049817Y0007161D01*
X0049928Y0007430D01*
X0049984Y0007710D01*
D02*
G37*
G36*
X0048360D02*
X0047036D01*
X0047092Y0007430D01*
X0047203Y0007161D01*
X0047364Y0006920D01*
X0047570Y0006714D01*
X0047811Y0006553D01*
X0048080Y0006442D01*
X0048360Y0006386D01*
Y0007710D01*
D02*
G37*
G36*
X0097275Y0008500D02*
X0097150D01*
Y0005150D01*
X0100500D01*
Y0005275D01*
X0100414Y0005820D01*
X0100244Y0006344D01*
X0099993Y0006834D01*
X0099670Y0007280D01*
X0099280Y0007670D01*
X0098834Y0007993D01*
X0098344Y0008244D01*
X0097820Y0008414D01*
X0097275Y0008500D01*
D02*
G37*
G36*
X0096850D02*
X0096725D01*
X0096180Y0008414D01*
X0095656Y0008244D01*
X0095166Y0007993D01*
X0094720Y0007670D01*
X0094330Y0007280D01*
X0094007Y0006834D01*
X0093756Y0006344D01*
X0093586Y0005820D01*
X0093500Y0005275D01*
Y0005150D01*
X0096850D01*
Y0008500D01*
D02*
G37*
G36*
X0005175D02*
X0005050D01*
Y0005150D01*
X0008400D01*
Y0005275D01*
X0008314Y0005820D01*
X0008144Y0006344D01*
X0007893Y0006834D01*
X0007570Y0007280D01*
X0007180Y0007670D01*
X0006734Y0007993D01*
X0006244Y0008244D01*
X0005720Y0008414D01*
X0005175Y0008500D01*
D02*
G37*
G36*
X0004750D02*
X0004625D01*
X0004080Y0008414D01*
X0003556Y0008244D01*
X0003066Y0007993D01*
X0002620Y0007670D01*
X0002230Y0007280D01*
X0001907Y0006834D01*
X0001656Y0006344D01*
X0001486Y0005820D01*
X0001400Y0005275D01*
Y0005150D01*
X0004750D01*
Y0008500D01*
D02*
G37*
G36*
X0022600Y0004829D02*
X0020700D01*
X0020612Y0004812D01*
X0020538Y0004762D01*
X0020488Y0004688D01*
X0020471Y0004600D01*
Y0002700D01*
X0020488Y0002612D01*
X0020538Y0002538D01*
X0020612Y0002488D01*
X0020700Y0002471D01*
X0022600D01*
X0022688Y0002488D01*
X0022762Y0002538D01*
X0022812Y0002612D01*
X0022829Y0002700D01*
Y0004600D01*
X0022812Y0004688D01*
X0022762Y0004762D01*
X0022688Y0004812D01*
X0022600Y0004829D01*
D02*
G37*
G36*
X0100500Y0004850D02*
X0097150D01*
Y0001500D01*
X0097275D01*
X0097820Y0001586D01*
X0098344Y0001756D01*
X0098834Y0002007D01*
X0099280Y0002330D01*
X0099670Y0002720D01*
X0099993Y0003166D01*
X0100244Y0003656D01*
X0100414Y0004180D01*
X0100500Y0004725D01*
Y0004850D01*
D02*
G37*
G36*
X0096850D02*
X0093500D01*
Y0004725D01*
X0093586Y0004180D01*
X0093756Y0003656D01*
X0094007Y0003166D01*
X0094330Y0002720D01*
X0094720Y0002330D01*
X0095166Y0002007D01*
X0095656Y0001756D01*
X0096180Y0001586D01*
X0096725Y0001500D01*
X0096850D01*
Y0004850D01*
D02*
G37*
G36*
X0008400D02*
X0005050D01*
Y0001500D01*
X0005175D01*
X0005720Y0001586D01*
X0006244Y0001756D01*
X0006734Y0002007D01*
X0007180Y0002330D01*
X0007570Y0002720D01*
X0007893Y0003166D01*
X0008144Y0003656D01*
X0008314Y0004180D01*
X0008400Y0004725D01*
Y0004850D01*
D02*
G37*
G36*
X0004750D02*
X0001400D01*
Y0004725D01*
X0001486Y0004180D01*
X0001656Y0003656D01*
X0001907Y0003166D01*
X0002230Y0002720D01*
X0002620Y0002330D01*
X0003066Y0002007D01*
X0003556Y0001756D01*
X0004080Y0001586D01*
X0004625Y0001500D01*
X0004750D01*
Y0004850D01*
D02*
G37*
%LPD*%
D10*
X0021970Y0003154D02*
X0021304D01*
X0021970Y0003820D01*
Y0003987D01*
X0021804Y0004154D01*
X0021471D01*
X0021304Y0003987D01*
D12*
X0020700Y0002700D02*
X0022600D01*
X0020700Y0004600D02*
X0022600D01*
Y0002700D02*
Y0004600D01*
X0020700Y0002700D02*
Y0004600D01*
D41*
X0035760Y0028430D02*
D03*
X0040840D02*
D03*
Y0023350D02*
D03*
X0035760D02*
D03*
X0048510Y0012940D02*
D03*
X0053590D02*
D03*
Y0007860D02*
D03*
X0048510D02*
D03*
X0035760Y0044055D02*
D03*
X0040840D02*
D03*
Y0038975D02*
D03*
X0035760D02*
D03*
X0048510Y0028565D02*
D03*
X0053590D02*
D03*
Y0023485D02*
D03*
X0048510D02*
D03*
X0035760Y0059805D02*
D03*
X0040840D02*
D03*
Y0054725D02*
D03*
X0035760D02*
D03*
X0048510Y0044315D02*
D03*
X0053590D02*
D03*
Y0039235D02*
D03*
X0048510D02*
D03*
D43*
X0002250Y0069025D02*
D03*
X0017550D02*
D03*
D57*
X0097000Y0095000D02*
D03*
Y0005000D02*
D03*
X0004900Y0095000D02*
D03*
Y0005000D02*
D03*
D58*
X0090550Y0025925D02*
D03*
X0092250Y0025000D02*
D03*
Y0026900D02*
D03*
X0094100Y0025925D02*
D03*
X0095975Y0024950D02*
D03*
X0095950Y0026875D02*
D03*
X0097675Y0025950D02*
D03*
Y0048950D02*
D03*
X0095950Y0049875D02*
D03*
X0095975Y0047950D02*
D03*
X0094100Y0048925D02*
D03*
X0092250Y0049900D02*
D03*
Y0048000D02*
D03*
X0090550Y0048925D02*
D03*
X0024700Y0079075D02*
D03*
X0023225Y0079050D02*
D03*
X0075075Y0042700D02*
D03*
X0008900Y0040075D02*
D03*
Y0043125D02*
D03*
X0002434Y0014280D02*
D03*
Y0011555D02*
D03*
X0005409Y0012855D02*
D03*
X0002434Y0022800D02*
D03*
Y0020075D02*
D03*
X0005409Y0021375D02*
D03*
X0002434Y0026485D02*
D03*
Y0023760D02*
D03*
X0005409Y0025060D02*
D03*
X0002434Y0035005D02*
D03*
Y0032280D02*
D03*
X0005409Y0033580D02*
D03*
X0002434Y0038740D02*
D03*
Y0036015D02*
D03*
X0005409Y0037315D02*
D03*
X0002434Y0047260D02*
D03*
Y0044535D02*
D03*
X0005409Y0045835D02*
D03*
X0002434Y0051096D02*
D03*
Y0048371D02*
D03*
X0005409Y0049671D02*
D03*
X0005425Y0058175D02*
D03*
X0002450Y0056875D02*
D03*
Y0059600D02*
D03*
X0045500Y0076575D02*
D03*
X0043725D02*
D03*
X0042000D02*
D03*
X0040250Y0076550D02*
D03*
X0062650Y0082675D02*
D03*
X0060325D02*
D03*
X0058000D02*
D03*
X0055686Y0090050D02*
D03*
X0050625Y0072300D02*
D03*
X0048600Y0072325D02*
D03*
X0046475Y0073175D02*
D03*
X0046450Y0071125D02*
D03*
X0039275Y0071150D02*
D03*
Y0073150D02*
D03*
X0042550Y0071725D02*
D03*
X0039800Y0090450D02*
D03*
X0039925Y0081950D02*
D03*
X0040500Y0092775D02*
D03*
X0047950Y0080075D02*
D03*
X0045750Y0080050D02*
D03*
X0042075Y0081950D02*
D03*
X0038700Y0080050D02*
D03*
X0036700Y0080025D02*
D03*
X0047775Y0086475D02*
D03*
X0045625Y0086425D02*
D03*
X0042300Y0091550D02*
D03*
Y0088000D02*
D03*
X0038625Y0086350D02*
D03*
X0036625Y0086325D02*
D03*
X0036150Y0072300D02*
D03*
X0034175Y0072275D02*
D03*
X0023975Y0079075D02*
D03*
X0058350Y0063125D02*
D03*
Y0058275D02*
D03*
X0066100Y0065775D02*
D03*
X0067675Y0063725D02*
D03*
X0065200Y0056875D02*
D03*
X0060875Y0056825D02*
D03*
X0065324Y0063169D02*
D03*
X0085350Y0056850D02*
D03*
X0081025Y0056800D02*
D03*
X0085474Y0063144D02*
D03*
X0087825Y0063700D02*
D03*
X0086250Y0065750D02*
D03*
X0078500Y0058250D02*
D03*
Y0063100D02*
D03*
X0084000Y0051200D02*
D03*
X0081950D02*
D03*
X0079500Y0049450D02*
D03*
X0079475Y0051375D02*
D03*
Y0050725D02*
D03*
X0072950Y0049625D02*
D03*
X0077450Y0049450D02*
D03*
X0074950Y0049600D02*
D03*
X0079200Y0045000D02*
D03*
X0080125Y0045825D02*
D03*
X0081925D02*
D03*
X0040200Y0020850D02*
D03*
Y0015475D02*
D03*
X0024050Y0014975D02*
D03*
X0026650Y0022050D02*
D03*
Y0019925D02*
D03*
X0022200Y0015325D02*
D03*
X0015950D02*
D03*
X0016750Y0019350D02*
D03*
X0043250Y0014150D02*
D03*
X0043275Y0012600D02*
D03*
X0046200Y0022250D02*
D03*
X0046175Y0023900D02*
D03*
X0043250Y0029775D02*
D03*
X0043275Y0028225D02*
D03*
X0046200Y0037875D02*
D03*
X0046175Y0039525D02*
D03*
X0011950Y0015025D02*
D03*
X0019425Y0027935D02*
D03*
Y0029960D02*
D03*
X0018525Y0031085D02*
D03*
X0021025Y0039735D02*
D03*
Y0037735D02*
D03*
X0022000Y0036510D02*
D03*
X0017425Y0030735D02*
D03*
X0026700Y0031260D02*
D03*
Y0036685D02*
D03*
X0017425Y0036935D02*
D03*
X0020400Y0035760D02*
D03*
X0018500Y0046675D02*
D03*
X0019400Y0045550D02*
D03*
Y0043525D02*
D03*
X0017400Y0046325D02*
D03*
Y0052525D02*
D03*
X0026675Y0046850D02*
D03*
Y0052275D02*
D03*
X0020375Y0051350D02*
D03*
X0021975Y0052100D02*
D03*
X0021000Y0053325D02*
D03*
Y0055325D02*
D03*
X0046200Y0053625D02*
D03*
X0046175Y0055275D02*
D03*
X0043275Y0043975D02*
D03*
X0043250Y0045525D02*
D03*
M02*
