G04*
G04 #@! TF.GenerationSoftware,Altium Limited,Altium Designer,23.7.1 (13)*
G04*
G04 Layer_Color=16711935*
%FSAX43Y43*%
%MOMM*%
G71*
G04*
G04 #@! TF.SameCoordinates,4B3962D1-0CE0-4DC0-8A0A-AB0838D88EC4*
G04*
G04*
G04 #@! TF.FilePolarity,Negative*
G04*
G01*
G75*
%ADD14R,4.900X1.600*%
%ADD18P,2.828X4X360.0*%
%ADD39C,2.036*%
%ADD40C,6.800*%
%ADD41C,2.550*%
%ADD42C,2.250*%
%ADD43C,2.910*%
D14*
X0002750Y0049671D02*
D03*
Y0058191D02*
D03*
Y0025060D02*
D03*
Y0033580D02*
D03*
Y0037315D02*
D03*
Y0045835D02*
D03*
Y0012855D02*
D03*
Y0021375D02*
D03*
D18*
X0091425Y0091175D02*
D03*
X0090800Y0007075D02*
D03*
X0012400Y0007800D02*
D03*
D39*
X0100375Y0050214D02*
D03*
Y0040054D02*
D03*
Y0027214D02*
D03*
Y0017054D02*
D03*
D40*
X0097000Y0095000D02*
D03*
Y0005000D02*
D03*
X0004900Y0095000D02*
D03*
Y0005000D02*
D03*
D41*
X0035760Y0028430D02*
D03*
X0040840D02*
D03*
Y0023350D02*
D03*
X0035760D02*
D03*
X0048510Y0012940D02*
D03*
X0053590D02*
D03*
Y0007860D02*
D03*
X0048510D02*
D03*
X0035760Y0044055D02*
D03*
X0040840D02*
D03*
Y0038975D02*
D03*
X0035760D02*
D03*
X0048510Y0028565D02*
D03*
X0053590D02*
D03*
Y0023485D02*
D03*
X0048510D02*
D03*
X0035760Y0059805D02*
D03*
X0040840D02*
D03*
Y0054725D02*
D03*
X0035760D02*
D03*
X0048510Y0044315D02*
D03*
X0053590D02*
D03*
Y0039235D02*
D03*
X0048510D02*
D03*
D42*
X0038300Y0025890D02*
D03*
X0051050Y0010400D02*
D03*
X0038300Y0041515D02*
D03*
X0051050Y0026025D02*
D03*
X0038300Y0057265D02*
D03*
X0051050Y0041775D02*
D03*
D43*
X0002250Y0085475D02*
D03*
X0017550D02*
D03*
X0002250Y0069025D02*
D03*
X0017550D02*
D03*
M02*
