G04*
G04 #@! TF.GenerationSoftware,Altium Limited,Altium Designer,23.7.1 (13)*
G04*
G04 Layer_Color=8388736*
%FSAX43Y43*%
%MOMM*%
G71*
G04*
G04 #@! TF.SameCoordinates,4B3962D1-0CE0-4DC0-8A0A-AB0838D88EC4*
G04*
G04*
G04 #@! TF.FilePolarity,Negative*
G04*
G01*
G75*
%ADD14R,4.900X1.600*%
%ADD15R,5.600X1.500*%
%ADD16R,2.500X1.000*%
%ADD17C,1.270*%
%ADD18P,2.828X4X360.0*%
%ADD19R,1.000X0.900*%
%ADD20R,1.000X1.000*%
%ADD21R,0.800X0.700*%
%ADD22R,1.000X1.000*%
%ADD23R,2.200X0.800*%
%ADD24R,1.425X0.450*%
%ADD25R,0.650X1.100*%
%ADD26R,0.700X0.800*%
G04:AMPARAMS|DCode=27|XSize=0.7mm|YSize=0.8mm|CornerRadius=0mm|HoleSize=0mm|Usage=FLASHONLY|Rotation=45.000|XOffset=0mm|YOffset=0mm|HoleType=Round|Shape=Rectangle|*
%AMROTATEDRECTD27*
4,1,4,0.035,-0.530,-0.530,0.035,-0.035,0.530,0.530,-0.035,0.035,-0.530,0.0*
%
%ADD27ROTATEDRECTD27*%

%ADD28R,1.100X0.650*%
%ADD29R,0.350X0.450*%
%ADD30R,0.350X0.350*%
%ADD31R,0.300X1.200*%
%ADD32R,1.520X2.030*%
%ADD33R,1.700X2.540*%
%ADD34R,0.850X0.300*%
%ADD35R,1.450X0.300*%
%ADD36R,0.900X1.000*%
%ADD37R,1.700X1.000*%
%ADD38R,0.300X0.700*%
%ADD39C,2.036*%
%ADD40C,6.800*%
%ADD41C,2.550*%
%ADD42C,2.250*%
%ADD43C,2.910*%
G36*
X0008977Y0042650D02*
X0009000D01*
Y0042643D01*
X0009003Y0042642D01*
X0009011Y0042636D01*
X0009017Y0042628D01*
X0009021Y0042619D01*
X0009024Y0042610D01*
X0009025Y0042600D01*
Y0041725D01*
X0009150D01*
X0009152Y0041725D01*
X0009200D01*
Y0041677D01*
X0009200Y0041675D01*
Y0041525D01*
X0009200Y0041523D01*
Y0041475D01*
X0009152D01*
X0009150Y0041475D01*
X0009025D01*
Y0040600D01*
X0009024Y0040590D01*
X0009021Y0040581D01*
X0009017Y0040572D01*
X0009011Y0040564D01*
X0009003Y0040558D01*
X0009000Y0040557D01*
Y0040550D01*
X0008977D01*
X0008975Y0040550D01*
X0008650D01*
X0008648Y0040550D01*
X0008600D01*
Y0040598D01*
X0008600Y0040600D01*
Y0041075D01*
X0008600Y0041077D01*
Y0041125D01*
X0008648D01*
X0008650Y0041125D01*
X0008775D01*
Y0042075D01*
X0008650D01*
X0008648Y0042075D01*
X0008600D01*
Y0042123D01*
X0008600Y0042125D01*
Y0042600D01*
X0008600Y0042602D01*
Y0042650D01*
X0008648D01*
X0008650Y0042650D01*
X0008975D01*
X0008977Y0042650D01*
D02*
G37*
D14*
X0002750Y0049671D02*
D03*
Y0058191D02*
D03*
Y0025060D02*
D03*
Y0033580D02*
D03*
Y0037315D02*
D03*
Y0045835D02*
D03*
Y0012855D02*
D03*
Y0021375D02*
D03*
D15*
X0003100Y0053931D02*
D03*
Y0029320D02*
D03*
Y0041575D02*
D03*
Y0017115D02*
D03*
D16*
X0092225Y0051484D02*
D03*
X0095925D02*
D03*
X0092225Y0048944D02*
D03*
X0095925D02*
D03*
X0092225Y0046404D02*
D03*
X0095925D02*
D03*
Y0043864D02*
D03*
X0092225D02*
D03*
X0095925Y0041324D02*
D03*
X0092225D02*
D03*
X0095925Y0038784D02*
D03*
X0092225D02*
D03*
Y0028484D02*
D03*
X0095925D02*
D03*
X0092225Y0025944D02*
D03*
X0095925D02*
D03*
X0092225Y0020864D02*
D03*
Y0023404D02*
D03*
Y0015784D02*
D03*
Y0018324D02*
D03*
X0095925Y0015784D02*
D03*
Y0018324D02*
D03*
Y0020864D02*
D03*
Y0023404D02*
D03*
D17*
X0088775Y0065825D02*
D03*
X0085925Y0055475D02*
D03*
X0022200Y0019133D02*
D03*
X0069400Y0043550D02*
D03*
X0069410Y0041304D02*
D03*
X0071275Y0046675D02*
D03*
X0075175Y0047450D02*
D03*
X0073775Y0045300D02*
D03*
X0087600Y0036450D02*
D03*
X0087125Y0051300D02*
D03*
X0087525Y0048275D02*
D03*
X0084725Y0036475D02*
D03*
X0080825Y0055525D02*
D03*
X0072825Y0059075D02*
D03*
X0070925Y0062075D02*
D03*
X0068625Y0065850D02*
D03*
X0060675Y0055550D02*
D03*
X0052625Y0058700D02*
D03*
X0052975Y0069775D02*
D03*
X0047725Y0074500D02*
D03*
X0050275Y0082725D02*
D03*
X0049950Y0089175D02*
D03*
X0024875Y0087888D02*
D03*
D18*
X0011225Y0003200D02*
D03*
X0090225Y0095775D02*
D03*
X0089650Y0003225D02*
D03*
D19*
X0062650Y0085400D02*
D03*
Y0083700D02*
D03*
X0058000Y0085400D02*
D03*
Y0083700D02*
D03*
X0060325Y0088975D02*
D03*
Y0087275D02*
D03*
Y0085400D02*
D03*
Y0083700D02*
D03*
X0055715Y0088950D02*
D03*
Y0087250D02*
D03*
X0055711Y0085375D02*
D03*
Y0083675D02*
D03*
X0062652Y0087249D02*
D03*
Y0088949D02*
D03*
X0057998Y0087249D02*
D03*
Y0088949D02*
D03*
X0071600Y0039525D02*
D03*
Y0041225D02*
D03*
X0081025Y0059500D02*
D03*
Y0057800D02*
D03*
X0083192Y0059500D02*
D03*
Y0057800D02*
D03*
X0082350Y0063700D02*
D03*
Y0062000D02*
D03*
X0085358Y0059500D02*
D03*
Y0057800D02*
D03*
X0080450Y0061975D02*
D03*
Y0063675D02*
D03*
X0087525Y0057800D02*
D03*
Y0059500D02*
D03*
X0060875Y0059525D02*
D03*
Y0057825D02*
D03*
X0063042Y0059525D02*
D03*
Y0057825D02*
D03*
X0062200Y0063725D02*
D03*
Y0062025D02*
D03*
X0065208Y0059525D02*
D03*
Y0057825D02*
D03*
X0060300Y0062000D02*
D03*
Y0063700D02*
D03*
X0067375Y0057825D02*
D03*
Y0059525D02*
D03*
D20*
X0074925Y0061425D02*
D03*
Y0059825D02*
D03*
X0050600Y0071375D02*
D03*
Y0069775D02*
D03*
X0048600Y0071375D02*
D03*
Y0069775D02*
D03*
X0045500Y0075550D02*
D03*
Y0073950D02*
D03*
X0043725Y0075550D02*
D03*
Y0073950D02*
D03*
X0041975Y0075550D02*
D03*
Y0073950D02*
D03*
X0040250Y0075550D02*
D03*
Y0073950D02*
D03*
X0036175Y0071275D02*
D03*
Y0069675D02*
D03*
X0034175Y0071275D02*
D03*
Y0069675D02*
D03*
X0023100Y0021325D02*
D03*
Y0022925D02*
D03*
X0047750Y0089175D02*
D03*
Y0087575D02*
D03*
X0038625Y0089175D02*
D03*
Y0087575D02*
D03*
X0045750Y0082725D02*
D03*
Y0081125D02*
D03*
X0047950Y0082725D02*
D03*
Y0081125D02*
D03*
X0036700Y0082725D02*
D03*
Y0081125D02*
D03*
X0038700Y0082725D02*
D03*
Y0081125D02*
D03*
X0036625Y0089175D02*
D03*
Y0087575D02*
D03*
X0045650Y0089175D02*
D03*
Y0087575D02*
D03*
X0083775Y0043200D02*
D03*
Y0044800D02*
D03*
X0080125Y0044800D02*
D03*
Y0043200D02*
D03*
X0081925Y0044800D02*
D03*
Y0043200D02*
D03*
X0084950Y0049600D02*
D03*
Y0051200D02*
D03*
X0082900Y0049600D02*
D03*
Y0051200D02*
D03*
X0074000D02*
D03*
Y0049600D02*
D03*
X0071950Y0051200D02*
D03*
Y0049600D02*
D03*
X0088775Y0063700D02*
D03*
Y0062100D02*
D03*
X0017425Y0039035D02*
D03*
Y0040635D02*
D03*
X0017400Y0054625D02*
D03*
Y0056225D02*
D03*
X0022950Y0044325D02*
D03*
Y0042725D02*
D03*
X0022975Y0028735D02*
D03*
Y0027135D02*
D03*
X0068625Y0063725D02*
D03*
Y0062125D02*
D03*
X0054775Y0059850D02*
D03*
Y0061450D02*
D03*
D21*
X0078275Y0046475D02*
D03*
X0077075D02*
D03*
X0043850Y0067825D02*
D03*
X0042650D02*
D03*
X0046700Y0067825D02*
D03*
X0045500D02*
D03*
X0048300Y0034450D02*
D03*
Y0033250D02*
D03*
X0048300Y0050200D02*
D03*
Y0049000D02*
D03*
X0045300Y0023900D02*
D03*
X0044100D02*
D03*
X0045300Y0022250D02*
D03*
X0044100D02*
D03*
X0047100Y0018825D02*
D03*
X0048300D02*
D03*
X0042340D02*
D03*
X0043540D02*
D03*
X0044100Y0012600D02*
D03*
X0045300D02*
D03*
X0044100Y0014150D02*
D03*
X0045300D02*
D03*
X0047100Y0017625D02*
D03*
X0048300D02*
D03*
X0042340D02*
D03*
X0043540D02*
D03*
X0035650Y0018800D02*
D03*
X0036850D02*
D03*
X0035650Y0017600D02*
D03*
X0036850D02*
D03*
X0010050Y0017100D02*
D03*
X0008850D02*
D03*
X0044100Y0039525D02*
D03*
X0045300D02*
D03*
Y0037875D02*
D03*
X0044100D02*
D03*
X0047100Y0034450D02*
D03*
X0042340D02*
D03*
X0043540D02*
D03*
X0045300Y0028225D02*
D03*
X0044100D02*
D03*
Y0029775D02*
D03*
X0045300D02*
D03*
X0047100Y0033250D02*
D03*
X0042340D02*
D03*
X0043540D02*
D03*
X0045300Y0055275D02*
D03*
X0044100D02*
D03*
X0045300Y0053625D02*
D03*
X0044100D02*
D03*
X0047100Y0050200D02*
D03*
X0042340D02*
D03*
X0043540D02*
D03*
X0044100Y0043975D02*
D03*
X0045300D02*
D03*
X0044100Y0045525D02*
D03*
X0045300D02*
D03*
X0047100Y0049000D02*
D03*
X0042340D02*
D03*
X0043540D02*
D03*
X0023150Y0048400D02*
D03*
X0021950D02*
D03*
X0021925Y0050500D02*
D03*
X0023125D02*
D03*
X0021975Y0032810D02*
D03*
X0023175D02*
D03*
X0021950Y0034910D02*
D03*
X0023150D02*
D03*
D22*
X0076700Y0045000D02*
D03*
X0078300D02*
D03*
X0045075Y0066075D02*
D03*
X0046675D02*
D03*
X0040075Y0067475D02*
D03*
X0038475D02*
D03*
X0016750Y0022350D02*
D03*
X0018350D02*
D03*
X0025050Y0020925D02*
D03*
X0026650D02*
D03*
X0018350Y0020300D02*
D03*
X0016750D02*
D03*
X0025050Y0022975D02*
D03*
X0026650D02*
D03*
X0043125Y0092800D02*
D03*
X0041525D02*
D03*
X0084675Y0068750D02*
D03*
X0086275D02*
D03*
X0076875Y0055150D02*
D03*
X0078475D02*
D03*
X0076875Y0066150D02*
D03*
X0078475D02*
D03*
X0086275Y0066700D02*
D03*
X0084675D02*
D03*
X0078475Y0057300D02*
D03*
X0076875D02*
D03*
X0078475Y0064050D02*
D03*
X0076875D02*
D03*
X0019425Y0040685D02*
D03*
X0021025D02*
D03*
X0019400Y0052175D02*
D03*
X0021000D02*
D03*
X0019400Y0054225D02*
D03*
X0021000D02*
D03*
X0019400Y0056276D02*
D03*
X0021000D02*
D03*
Y0046675D02*
D03*
X0019400D02*
D03*
X0021000Y0044625D02*
D03*
X0019400D02*
D03*
X0021000Y0042575D02*
D03*
X0019400D02*
D03*
X0021025Y0031085D02*
D03*
X0019425D02*
D03*
X0021025Y0029034D02*
D03*
X0019425D02*
D03*
X0021025Y0026984D02*
D03*
X0019425D02*
D03*
Y0036585D02*
D03*
X0021025D02*
D03*
X0019425Y0038635D02*
D03*
X0021025D02*
D03*
X0064525Y0068775D02*
D03*
X0066125D02*
D03*
X0056725Y0055175D02*
D03*
X0058325D02*
D03*
X0056725Y0066175D02*
D03*
X0058325D02*
D03*
X0066125Y0066725D02*
D03*
X0064525D02*
D03*
X0058325Y0057325D02*
D03*
X0056725D02*
D03*
X0058325Y0064075D02*
D03*
X0056725D02*
D03*
D23*
X0025680Y0018780D02*
D03*
Y0017510D02*
D03*
Y0016240D02*
D03*
Y0014970D02*
D03*
X0031420Y0018780D02*
D03*
Y0017510D02*
D03*
Y0016240D02*
D03*
Y0014970D02*
D03*
D24*
X0080662Y0051375D02*
D03*
Y0050725D02*
D03*
Y0050075D02*
D03*
Y0049425D02*
D03*
X0076238D02*
D03*
Y0050075D02*
D03*
Y0050725D02*
D03*
Y0051375D02*
D03*
D25*
X0046450Y0069725D02*
D03*
X0044550D02*
D03*
Y0072125D02*
D03*
X0045500D02*
D03*
X0046450D02*
D03*
X0040225Y0069725D02*
D03*
X0039275D02*
D03*
X0038325D02*
D03*
Y0072125D02*
D03*
X0039275D02*
D03*
X0040225D02*
D03*
X0028040Y0078050D02*
D03*
X0028990Y0075650D02*
D03*
X0027090D02*
D03*
X0028040Y0082900D02*
D03*
X0028990Y0080500D02*
D03*
X0027090D02*
D03*
X0076775Y0061900D02*
D03*
X0078675D02*
D03*
Y0059500D02*
D03*
X0077725D02*
D03*
X0076775D02*
D03*
X0084525Y0064550D02*
D03*
X0086425D02*
D03*
Y0062150D02*
D03*
X0085475D02*
D03*
X0084525D02*
D03*
X0056625Y0061925D02*
D03*
X0058525D02*
D03*
Y0059525D02*
D03*
X0057575D02*
D03*
X0056625D02*
D03*
X0064375Y0064575D02*
D03*
X0066275D02*
D03*
Y0062175D02*
D03*
X0065325D02*
D03*
X0064375D02*
D03*
D26*
X0042550Y0069575D02*
D03*
Y0070775D02*
D03*
X0024975Y0051450D02*
D03*
Y0050250D02*
D03*
X0089921Y0017650D02*
D03*
Y0016450D02*
D03*
Y0022744D02*
D03*
Y0021544D02*
D03*
X0045350Y0020075D02*
D03*
Y0018875D02*
D03*
X0045350Y0016375D02*
D03*
Y0017575D02*
D03*
X0022200Y0017450D02*
D03*
Y0016250D02*
D03*
X0040200Y0020050D02*
D03*
Y0018850D02*
D03*
X0040200Y0016350D02*
D03*
Y0017550D02*
D03*
X0038550Y0018850D02*
D03*
Y0020050D02*
D03*
X0038550Y0017550D02*
D03*
Y0016350D02*
D03*
X0020400Y0017450D02*
D03*
Y0016250D02*
D03*
X0011950Y0015900D02*
D03*
Y0017100D02*
D03*
X0033875Y0016325D02*
D03*
Y0017525D02*
D03*
X0013900Y0017100D02*
D03*
Y0015900D02*
D03*
X0045350Y0035700D02*
D03*
Y0034500D02*
D03*
X0045350Y0032000D02*
D03*
Y0033200D02*
D03*
X0015850Y0031525D02*
D03*
Y0032725D02*
D03*
Y0050475D02*
D03*
Y0051675D02*
D03*
X0045350Y0051450D02*
D03*
Y0050250D02*
D03*
X0045350Y0047750D02*
D03*
Y0048950D02*
D03*
X0024975Y0047750D02*
D03*
Y0048950D02*
D03*
X0026675Y0051450D02*
D03*
Y0050250D02*
D03*
X0026675Y0047750D02*
D03*
Y0048950D02*
D03*
X0017400Y0051675D02*
D03*
Y0050475D02*
D03*
X0017400Y0047125D02*
D03*
Y0048325D02*
D03*
X0017425Y0031535D02*
D03*
Y0032735D02*
D03*
X0017425Y0036085D02*
D03*
Y0034885D02*
D03*
X0025000Y0033360D02*
D03*
Y0032160D02*
D03*
X0025000Y0034660D02*
D03*
Y0035860D02*
D03*
X0026700D02*
D03*
Y0034660D02*
D03*
X0026700Y0032160D02*
D03*
Y0033360D02*
D03*
D27*
X0093150Y0014350D02*
D03*
X0093999Y0013501D02*
D03*
D28*
X0015950Y0018050D02*
D03*
Y0017100D02*
D03*
Y0016150D02*
D03*
X0018350D02*
D03*
Y0018050D02*
D03*
X0026705Y0071900D02*
D03*
X0029105Y0072850D02*
D03*
Y0070950D02*
D03*
X0041050Y0082925D02*
D03*
Y0081975D02*
D03*
Y0081025D02*
D03*
X0043450D02*
D03*
Y0082925D02*
D03*
D29*
X0008475Y0041600D02*
D03*
D30*
X0009325Y0041150D02*
D03*
Y0042050D02*
D03*
D31*
X0024940Y0077900D02*
D03*
X0024440D02*
D03*
X0023940D02*
D03*
X0023440D02*
D03*
Y0076000D02*
D03*
X0023940D02*
D03*
X0024440D02*
D03*
X0024940D02*
D03*
D32*
X0027895Y0085450D02*
D03*
X0024855D02*
D03*
D33*
X0042300Y0089775D02*
D03*
D34*
X0043750Y0089025D02*
D03*
Y0089525D02*
D03*
Y0090025D02*
D03*
Y0090525D02*
D03*
X0040850D02*
D03*
Y0090025D02*
D03*
Y0089525D02*
D03*
Y0089025D02*
D03*
D35*
X0073675Y0043475D02*
D03*
Y0042975D02*
D03*
Y0042475D02*
D03*
Y0041975D02*
D03*
Y0041475D02*
D03*
X0078125D02*
D03*
Y0041975D02*
D03*
Y0042475D02*
D03*
Y0042975D02*
D03*
Y0043475D02*
D03*
D36*
X0086575Y0038475D02*
D03*
X0088275D02*
D03*
X0086575Y0040475D02*
D03*
X0088275D02*
D03*
X0073450Y0039575D02*
D03*
X0075150D02*
D03*
X0086575Y0046425D02*
D03*
X0088275D02*
D03*
X0086575Y0044425D02*
D03*
X0088275D02*
D03*
X0086575Y0042475D02*
D03*
X0088275D02*
D03*
D37*
X0019620Y0049437D02*
D03*
X0019645Y0033847D02*
D03*
D38*
X0020370Y0048387D02*
D03*
X0019870D02*
D03*
X0019370D02*
D03*
X0018870D02*
D03*
Y0050487D02*
D03*
X0019370D02*
D03*
X0019870D02*
D03*
X0020370D02*
D03*
X0020395Y0032797D02*
D03*
X0019895D02*
D03*
X0019395D02*
D03*
X0018895D02*
D03*
Y0034897D02*
D03*
X0019395D02*
D03*
X0019895D02*
D03*
X0020395D02*
D03*
D39*
X0100375Y0050214D02*
D03*
Y0040054D02*
D03*
Y0027214D02*
D03*
Y0017054D02*
D03*
D40*
X0097000Y0095000D02*
D03*
Y0005000D02*
D03*
X0004900Y0095000D02*
D03*
Y0005000D02*
D03*
D41*
X0035760Y0028430D02*
D03*
X0040840D02*
D03*
Y0023350D02*
D03*
X0035760D02*
D03*
X0048510Y0012940D02*
D03*
X0053590D02*
D03*
Y0007860D02*
D03*
X0048510D02*
D03*
X0035760Y0044055D02*
D03*
X0040840D02*
D03*
Y0038975D02*
D03*
X0035760D02*
D03*
X0048510Y0028565D02*
D03*
X0053590D02*
D03*
Y0023485D02*
D03*
X0048510D02*
D03*
X0035760Y0059805D02*
D03*
X0040840D02*
D03*
Y0054725D02*
D03*
X0035760D02*
D03*
X0048510Y0044315D02*
D03*
X0053590D02*
D03*
Y0039235D02*
D03*
X0048510D02*
D03*
D42*
X0038300Y0025890D02*
D03*
X0051050Y0010400D02*
D03*
X0038300Y0041515D02*
D03*
X0051050Y0026025D02*
D03*
X0038300Y0057265D02*
D03*
X0051050Y0041775D02*
D03*
D43*
X0002250Y0085475D02*
D03*
X0017550D02*
D03*
X0002250Y0069025D02*
D03*
X0017550D02*
D03*
M02*
