G04*
G04 #@! TF.GenerationSoftware,Altium Limited,Altium Designer,23.7.1 (13)*
G04*
G04 Layer_Color=65535*
%FSAX43Y43*%
%MOMM*%
G71*
G04*
G04 #@! TF.SameCoordinates,4B3962D1-0CE0-4DC0-8A0A-AB0838D88EC4*
G04*
G04*
G04 #@! TF.FilePolarity,Positive*
G04*
G01*
G75*
%ADD10C,0.254*%
%ADD11C,0.127*%
%ADD12C,0.200*%
%ADD13C,0.100*%
D10*
X0026061Y0019511D02*
G03*
X0026061Y0019511I-0000050J0000000D01*
G01*
X0076395Y0051922D02*
G03*
X0076395Y0051922I-0000050J0000000D01*
G01*
X0047164Y0072213D02*
G03*
X0047164Y0072213I-0000050J0000000D01*
G01*
X0040939Y0072213D02*
G03*
X0040939Y0072213I-0000050J0000000D01*
G01*
X0015912Y0018714D02*
G03*
X0015912Y0018714I-0000050J0000000D01*
G01*
X0029243Y0070286D02*
G03*
X0029243Y0070286I-0000050J0000000D01*
G01*
X0025490Y0077850D02*
G03*
X0025490Y0077850I-0000050J0000000D01*
G01*
X0026476Y0075562D02*
G03*
X0026476Y0075562I-0000050J0000000D01*
G01*
Y0080412D02*
G03*
X0026476Y0080412I-0000050J0000000D01*
G01*
X0041012Y0083589D02*
G03*
X0041012Y0083589I-0000050J0000000D01*
G01*
X0073845Y0043997D02*
G03*
X0073845Y0043997I-0000050J0000000D01*
G01*
X0076161Y0059412D02*
G03*
X0076161Y0059412I-0000050J0000000D01*
G01*
X0083911Y0062062D02*
G03*
X0083911Y0062062I-0000050J0000000D01*
G01*
X0056011Y0059437D02*
G03*
X0056011Y0059437I-0000050J0000000D01*
G01*
X0063761Y0062087D02*
G03*
X0063761Y0062087I-0000050J0000000D01*
G01*
D11*
X0044100Y0088625D02*
G03*
X0044100Y0088625I-0000050J0000000D01*
G01*
X0020759Y0050622D02*
G03*
X0020759Y0050622I-0000050J0000000D01*
G01*
X0020784Y0035032D02*
G03*
X0020784Y0035032I-0000050J0000000D01*
G01*
X0001300Y0059431D02*
X0006300D01*
Y0056931D02*
Y0059431D01*
X0001300Y0048431D02*
X0006300D01*
Y0050931D01*
X0001300Y0034820D02*
X0006300D01*
Y0032320D02*
Y0034820D01*
X0001300Y0023820D02*
X0006300D01*
Y0026320D01*
X0001300Y0047075D02*
X0006300D01*
Y0044575D02*
Y0047075D01*
X0001300Y0036075D02*
X0006300D01*
Y0038575D01*
X0001300Y0022615D02*
X0006300D01*
Y0020115D02*
Y0022615D01*
X0001300Y0011615D02*
X0006300D01*
Y0014115D01*
X0090625Y0051384D02*
Y0053134D01*
X0092375D01*
X0090625Y0037134D02*
Y0038884D01*
Y0037134D02*
X0092375D01*
X0097875D02*
X0100875D01*
X0097875Y0053134D02*
X0100875D01*
X0090625Y0028384D02*
Y0030134D01*
X0092375D01*
X0090625Y0014134D02*
Y0015884D01*
Y0014134D02*
X0092375D01*
X0097875D02*
X0100875D01*
X0097875Y0030134D02*
X0100875D01*
X0075525Y0060425D02*
Y0060825D01*
X0074325Y0060425D02*
Y0060825D01*
X0077475Y0046025D02*
X0077875D01*
X0077475Y0046925D02*
X0077875D01*
X0077300Y0045600D02*
X0077700D01*
X0077300Y0044400D02*
X0077700D01*
X0027300Y0014275D02*
X0029800D01*
X0027296Y0019479D02*
X0029796D01*
X0077750Y0051950D02*
X0079150D01*
X0077750Y0048850D02*
X0079150D01*
X0059725Y0087925D02*
Y0088325D01*
X0060925Y0087925D02*
Y0088325D01*
X0055115Y0087900D02*
Y0088300D01*
X0056315Y0087900D02*
Y0088300D01*
X0043950Y0070225D02*
Y0071625D01*
X0047050Y0070225D02*
Y0071625D01*
X0037725Y0070225D02*
Y0071625D01*
X0040825Y0070225D02*
Y0071625D01*
X0042100Y0069975D02*
Y0070375D01*
X0043000Y0069975D02*
Y0070375D01*
X0043050Y0067375D02*
X0043450D01*
X0043050Y0068275D02*
X0043450D01*
X0045900Y0067375D02*
X0046300D01*
X0045900Y0068275D02*
X0046300D01*
X0051200Y0070375D02*
Y0070775D01*
X0050000Y0070375D02*
Y0070775D01*
X0049200Y0070375D02*
Y0070775D01*
X0048000Y0070375D02*
Y0070775D01*
X0045675Y0066675D02*
X0046075D01*
X0045675Y0065475D02*
X0046075D01*
X0046100Y0074550D02*
Y0074950D01*
X0044900Y0074550D02*
Y0074950D01*
X0044325Y0074550D02*
Y0074950D01*
X0043125Y0074550D02*
Y0074950D01*
X0039075Y0066875D02*
X0039475D01*
X0039075Y0068075D02*
X0039475D01*
X0042575Y0074550D02*
Y0074950D01*
X0041375Y0074550D02*
Y0074950D01*
X0040850Y0074550D02*
Y0074950D01*
X0039650Y0074550D02*
Y0074950D01*
X0036775Y0070275D02*
Y0070675D01*
X0035575Y0070275D02*
Y0070675D01*
X0034775Y0070275D02*
Y0070675D01*
X0033575Y0070275D02*
Y0070675D01*
X0025425Y0050650D02*
Y0051050D01*
X0024525Y0050650D02*
Y0051050D01*
X0044500Y0023450D02*
X0044900D01*
X0044500Y0024350D02*
X0044900D01*
X0044500Y0021800D02*
X0044900D01*
X0044500Y0022700D02*
X0044900D01*
X0045800Y0019275D02*
Y0019675D01*
X0044900Y0019275D02*
Y0019675D01*
X0047500Y0019275D02*
X0047900D01*
X0047500Y0018375D02*
X0047900D01*
X0042740Y0019275D02*
X0043140D01*
X0042740Y0018375D02*
X0043140D01*
X0044500Y0013050D02*
X0044900D01*
X0044500Y0012150D02*
X0044900D01*
X0044500Y0014600D02*
X0044900D01*
X0044500Y0013700D02*
X0044900D01*
X0044900Y0016775D02*
Y0017175D01*
X0045800Y0016775D02*
Y0017175D01*
X0047500Y0018075D02*
X0047900D01*
X0047500Y0017175D02*
X0047900D01*
X0042740Y0018075D02*
X0043140D01*
X0042740Y0017175D02*
X0043140D01*
X0093751Y0014385D02*
X0094034Y0014103D01*
X0093115Y0013749D02*
X0093397Y0013466D01*
X0022650Y0016650D02*
Y0017050D01*
X0021750Y0016650D02*
Y0017050D01*
X0016450Y0018650D02*
X0017850D01*
X0016450Y0015550D02*
X0017850D01*
X0040650Y0019250D02*
Y0019650D01*
X0039750Y0019250D02*
Y0019650D01*
Y0016750D02*
Y0017150D01*
X0040650Y0016750D02*
Y0017150D01*
X0036050Y0019250D02*
X0036450D01*
X0036050Y0018350D02*
X0036450D01*
X0036050Y0018050D02*
X0036450D01*
X0036050Y0017150D02*
X0036450D01*
X0038100Y0019250D02*
Y0019650D01*
X0039000Y0019250D02*
Y0019650D01*
X0039000Y0016750D02*
Y0017150D01*
X0038100Y0016750D02*
Y0017150D01*
X0020850Y0016650D02*
Y0017050D01*
X0019950Y0016650D02*
Y0017050D01*
X0011500Y0016300D02*
Y0016700D01*
X0012400Y0016300D02*
Y0016700D01*
X0009250Y0016650D02*
X0009650D01*
X0009250Y0017550D02*
X0009650D01*
X0033425Y0016725D02*
Y0017125D01*
X0034325Y0016725D02*
Y0017125D01*
X0014350Y0016300D02*
Y0016700D01*
X0013450Y0016300D02*
Y0016700D01*
X0023700Y0021925D02*
Y0022325D01*
X0022500Y0021925D02*
Y0022325D01*
X0017350Y0021750D02*
X0017750D01*
X0017350Y0022950D02*
X0017750D01*
X0025650Y0021525D02*
X0026050D01*
X0025650Y0020325D02*
X0026050D01*
X0017350Y0019700D02*
X0017750D01*
X0017350Y0020900D02*
X0017750D01*
X0025650Y0023575D02*
X0026050D01*
X0025650Y0022375D02*
X0026050D01*
X0044500Y0039975D02*
X0044900D01*
X0044500Y0039075D02*
X0044900D01*
X0044500Y0037425D02*
X0044900D01*
X0044500Y0038325D02*
X0044900D01*
X0045800Y0034900D02*
Y0035300D01*
X0044900Y0034900D02*
Y0035300D01*
X0047500Y0034900D02*
X0047900D01*
X0047500Y0034000D02*
X0047900D01*
X0042740Y0034900D02*
X0043140D01*
X0042740Y0034000D02*
X0043140D01*
X0044500Y0027775D02*
X0044900D01*
X0044500Y0028675D02*
X0044900D01*
X0044500Y0030225D02*
X0044900D01*
X0044500Y0029325D02*
X0044900D01*
X0044900Y0032400D02*
Y0032800D01*
X0045800Y0032400D02*
Y0032800D01*
X0047500Y0033700D02*
X0047900D01*
X0047500Y0032800D02*
X0047900D01*
X0042740Y0033700D02*
X0043140D01*
X0042740Y0032800D02*
X0043140D01*
X0090371Y0016850D02*
Y0017250D01*
X0089471Y0016850D02*
Y0017250D01*
X0015400Y0031925D02*
Y0032325D01*
X0016300Y0031925D02*
Y0032325D01*
X0015400Y0050875D02*
Y0051275D01*
X0016300Y0050875D02*
Y0051275D01*
X0044500Y0054825D02*
X0044900D01*
X0044500Y0055725D02*
X0044900D01*
X0044500Y0053175D02*
X0044900D01*
X0044500Y0054075D02*
X0044900D01*
X0045800Y0050650D02*
Y0051050D01*
X0044900Y0050650D02*
Y0051050D01*
X0047500Y0050650D02*
X0047900D01*
X0047500Y0049750D02*
X0047900D01*
X0042740Y0050650D02*
X0043140D01*
X0042740Y0049750D02*
X0043140D01*
X0044500Y0044425D02*
X0044900D01*
X0044500Y0043525D02*
X0044900D01*
X0044500Y0045975D02*
X0044900D01*
X0044500Y0045075D02*
X0044900D01*
X0044900Y0048150D02*
Y0048550D01*
X0045800Y0048150D02*
Y0048550D01*
X0047500Y0049450D02*
X0047900D01*
X0047500Y0048550D02*
X0047900D01*
X0042740Y0049450D02*
X0043140D01*
X0042740Y0048550D02*
X0043140D01*
X0090371Y0021944D02*
Y0022344D01*
X0089471Y0021944D02*
Y0022344D01*
X0042125Y0092200D02*
X0042525D01*
X0042125Y0093400D02*
X0042525D01*
X0063252Y0087899D02*
Y0088299D01*
X0062052Y0087899D02*
Y0088299D01*
X0027205Y0073450D02*
X0028605D01*
X0027205Y0070350D02*
X0028605D01*
X0023090Y0076600D02*
Y0077300D01*
X0025290Y0076600D02*
Y0077300D01*
X0029590Y0076150D02*
Y0077550D01*
X0026490Y0076150D02*
Y0077550D01*
X0029590Y0081000D02*
Y0082400D01*
X0026490Y0081000D02*
Y0082400D01*
X0025825Y0084350D02*
X0026925D01*
X0025825Y0086550D02*
X0026925D01*
X0048350Y0088175D02*
Y0088575D01*
X0047150Y0088175D02*
Y0088575D01*
X0039225Y0088175D02*
Y0088575D01*
X0038025Y0088175D02*
Y0088575D01*
X0046350Y0081725D02*
Y0082125D01*
X0045150Y0081725D02*
Y0082125D01*
X0048550Y0081725D02*
Y0082125D01*
X0047350Y0081725D02*
Y0082125D01*
X0041550Y0083525D02*
X0042950D01*
X0041550Y0080425D02*
X0042950D01*
X0037300Y0081725D02*
Y0082125D01*
X0036100Y0081725D02*
Y0082125D01*
X0039300Y0081725D02*
Y0082125D01*
X0038100Y0081725D02*
Y0082125D01*
X0037225Y0088175D02*
Y0088575D01*
X0036025Y0088175D02*
Y0088575D01*
X0046250Y0088175D02*
Y0088575D01*
X0045050Y0088175D02*
Y0088575D01*
X0058598Y0087899D02*
Y0088299D01*
X0057398Y0087899D02*
Y0088299D01*
X0075200Y0040925D02*
X0076600D01*
X0075200Y0044025D02*
X0076600D01*
X0087225Y0037875D02*
X0087625D01*
X0087225Y0039075D02*
X0087625D01*
X0087225Y0039875D02*
X0087625D01*
X0087225Y0041075D02*
X0087625D01*
X0072200Y0040175D02*
Y0040575D01*
X0071000Y0040175D02*
Y0040575D01*
X0074100Y0038975D02*
X0074500D01*
X0074100Y0040175D02*
X0074500D01*
X0087225Y0045825D02*
X0087625D01*
X0087225Y0047025D02*
X0087625D01*
X0087225Y0043825D02*
X0087625D01*
X0087225Y0045025D02*
X0087625D01*
X0087225Y0041875D02*
X0087625D01*
X0087225Y0043075D02*
X0087625D01*
X0084375Y0043800D02*
Y0044200D01*
X0083175Y0043800D02*
Y0044200D01*
X0080725Y0043800D02*
Y0044200D01*
X0079525Y0043800D02*
Y0044200D01*
X0082525Y0043800D02*
Y0044200D01*
X0081325Y0043800D02*
Y0044200D01*
X0084350Y0050200D02*
Y0050600D01*
X0085550Y0050200D02*
Y0050600D01*
X0082300Y0050200D02*
Y0050600D01*
X0083500Y0050200D02*
Y0050600D01*
X0074600Y0050200D02*
Y0050600D01*
X0073400Y0050200D02*
Y0050600D01*
X0072550Y0050200D02*
Y0050600D01*
X0071350Y0050200D02*
Y0050600D01*
X0079275Y0060000D02*
Y0061400D01*
X0076175Y0060000D02*
Y0061400D01*
X0087025Y0062650D02*
Y0064050D01*
X0083925Y0062650D02*
Y0064050D01*
X0080425Y0058450D02*
Y0058850D01*
X0081625Y0058450D02*
Y0058850D01*
X0082592Y0058450D02*
Y0058850D01*
X0083792Y0058450D02*
Y0058850D01*
X0081750Y0062650D02*
Y0063050D01*
X0082950Y0062650D02*
Y0063050D01*
X0084758Y0058450D02*
Y0058850D01*
X0085958Y0058450D02*
Y0058850D01*
X0081050Y0062625D02*
Y0063025D01*
X0079850Y0062625D02*
Y0063025D01*
X0088125Y0058450D02*
Y0058850D01*
X0086925Y0058450D02*
Y0058850D01*
X0085275Y0068150D02*
X0085675D01*
X0085275Y0069350D02*
X0085675D01*
X0077475Y0054550D02*
X0077875D01*
X0077475Y0055750D02*
X0077875D01*
X0077475Y0065550D02*
X0077875D01*
X0077475Y0066750D02*
X0077875D01*
X0089375Y0062700D02*
Y0063100D01*
X0088175Y0062700D02*
Y0063100D01*
X0085275Y0066100D02*
X0085675D01*
X0085275Y0067300D02*
X0085675D01*
X0077475Y0056700D02*
X0077875D01*
X0077475Y0057900D02*
X0077875D01*
X0077475Y0063450D02*
X0077875D01*
X0077475Y0064650D02*
X0077875D01*
X0024525Y0048150D02*
Y0048550D01*
X0025425Y0048150D02*
Y0048550D01*
X0027125Y0050650D02*
Y0051050D01*
X0026225Y0050650D02*
Y0051050D01*
Y0048150D02*
Y0048550D01*
X0027125Y0048150D02*
Y0048550D01*
X0020025Y0041285D02*
X0020425D01*
X0020025Y0040085D02*
X0020425D01*
X0017850Y0050875D02*
Y0051275D01*
X0016950Y0050875D02*
Y0051275D01*
X0018025Y0039635D02*
Y0040035D01*
X0016825Y0039635D02*
Y0040035D01*
X0022350Y0047950D02*
X0022750D01*
X0022350Y0048850D02*
X0022750D01*
X0022325Y0050950D02*
X0022725D01*
X0022325Y0050050D02*
X0022725D01*
X0018000Y0055225D02*
Y0055625D01*
X0016800Y0055225D02*
Y0055625D01*
X0020000Y0052775D02*
X0020400D01*
X0020000Y0051575D02*
X0020400D01*
X0020000Y0054825D02*
X0020400D01*
X0020000Y0053625D02*
X0020400D01*
X0020000Y0056876D02*
X0020400D01*
X0020000Y0055676D02*
X0020400D01*
X0022350Y0043325D02*
Y0043725D01*
X0023550Y0043325D02*
Y0043725D01*
X0020000Y0046075D02*
X0020400D01*
X0020000Y0047275D02*
X0020400D01*
X0020000Y0044025D02*
X0020400D01*
X0020000Y0045225D02*
X0020400D01*
X0020000Y0041974D02*
X0020400D01*
X0020000Y0043174D02*
X0020400D01*
X0016950Y0047525D02*
Y0047925D01*
X0017850Y0047525D02*
Y0047925D01*
X0022375Y0033260D02*
X0022775D01*
X0022375Y0032360D02*
X0022775D01*
X0016975Y0031935D02*
Y0032335D01*
X0017875Y0031935D02*
Y0032335D01*
Y0035285D02*
Y0035685D01*
X0016975Y0035285D02*
Y0035685D01*
X0020025Y0030485D02*
X0020425D01*
X0020025Y0031685D02*
X0020425D01*
X0020025Y0028434D02*
X0020425D01*
X0020025Y0029634D02*
X0020425D01*
X0020025Y0026384D02*
X0020425D01*
X0020025Y0027584D02*
X0020425D01*
X0025450Y0032560D02*
Y0032960D01*
X0024550Y0032560D02*
Y0032960D01*
X0024550Y0035060D02*
Y0035460D01*
X0025450Y0035060D02*
Y0035460D01*
X0027150Y0035060D02*
Y0035460D01*
X0026250Y0035060D02*
Y0035460D01*
Y0032560D02*
Y0032960D01*
X0027150Y0032560D02*
Y0032960D01*
X0022375Y0027735D02*
Y0028135D01*
X0023575Y0027735D02*
Y0028135D01*
X0022350Y0035360D02*
X0022750D01*
X0022350Y0034460D02*
X0022750D01*
X0020025Y0037185D02*
X0020425D01*
X0020025Y0035985D02*
X0020425D01*
X0020025Y0039235D02*
X0020425D01*
X0020025Y0038035D02*
X0020425D01*
X0059125Y0060025D02*
Y0061425D01*
X0056025Y0060025D02*
Y0061425D01*
X0066875Y0062675D02*
Y0064075D01*
X0063775Y0062675D02*
Y0064075D01*
X0060275Y0058475D02*
Y0058875D01*
X0061475Y0058475D02*
Y0058875D01*
X0062442Y0058475D02*
Y0058875D01*
X0063642Y0058475D02*
Y0058875D01*
X0061600Y0062675D02*
Y0063075D01*
X0062800Y0062675D02*
Y0063075D01*
X0064608Y0058475D02*
Y0058875D01*
X0065808Y0058475D02*
Y0058875D01*
X0060900Y0062650D02*
Y0063050D01*
X0059700Y0062650D02*
Y0063050D01*
X0067975Y0058475D02*
Y0058875D01*
X0066775Y0058475D02*
Y0058875D01*
X0065125Y0068175D02*
X0065525D01*
X0065125Y0069375D02*
X0065525D01*
X0057325Y0054575D02*
X0057725D01*
X0057325Y0055775D02*
X0057725D01*
X0057325Y0065575D02*
X0057725D01*
X0057325Y0066775D02*
X0057725D01*
X0069225Y0062725D02*
Y0063125D01*
X0068025Y0062725D02*
Y0063125D01*
X0065125Y0066125D02*
X0065525D01*
X0065125Y0067325D02*
X0065525D01*
X0054175Y0060450D02*
Y0060850D01*
X0055375Y0060450D02*
Y0060850D01*
X0057325Y0056725D02*
X0057725D01*
X0057325Y0057925D02*
X0057725D01*
X0057325Y0063475D02*
X0057725D01*
X0057325Y0064675D02*
X0057725D01*
X0047944Y0021788D02*
X0047827Y0021905D01*
X0047594D01*
X0047477Y0021788D01*
Y0021321D01*
X0047594Y0021205D01*
X0047827D01*
X0047944Y0021321D01*
X0048293Y0021205D02*
X0048527D01*
X0048643Y0021321D01*
Y0021555D01*
X0048527Y0021671D01*
X0048293D01*
X0048177Y0021555D01*
Y0021321D01*
X0048293Y0021205D01*
X0048877D02*
Y0021671D01*
X0048993D01*
X0049110Y0021555D01*
Y0021205D01*
Y0021555D01*
X0049226Y0021671D01*
X0049343Y0021555D01*
Y0021205D01*
X0049576Y0020972D02*
Y0021671D01*
X0049926D01*
X0050043Y0021555D01*
Y0021321D01*
X0049926Y0021205D01*
X0049576D01*
X0050276Y0021088D02*
X0050743D01*
X0050976Y0021205D02*
Y0021671D01*
X0051209Y0021905D01*
X0051442Y0021671D01*
Y0021205D01*
Y0021555D01*
X0050976D01*
X0047477Y0020527D02*
Y0019827D01*
X0047944D01*
X0048177Y0020527D02*
Y0020060D01*
X0048410Y0019827D01*
X0048643Y0020060D01*
Y0020527D01*
X0048877D02*
Y0019827D01*
X0049226D01*
X0049343Y0019944D01*
Y0020410D01*
X0049226Y0020527D01*
X0048877D01*
X0050043Y0020410D02*
X0049926Y0020527D01*
X0049693D01*
X0049576Y0020410D01*
Y0020294D01*
X0049693Y0020177D01*
X0049926D01*
X0050043Y0020060D01*
Y0019944D01*
X0049926Y0019827D01*
X0049693D01*
X0049576Y0019944D01*
X0050276Y0020177D02*
X0050743D01*
X0050509Y0020410D02*
Y0019944D01*
X0047944Y0037730D02*
X0047827Y0037846D01*
X0047594D01*
X0047477Y0037730D01*
Y0037263D01*
X0047594Y0037147D01*
X0047827D01*
X0047944Y0037263D01*
X0048293Y0037147D02*
X0048527D01*
X0048643Y0037263D01*
Y0037497D01*
X0048527Y0037613D01*
X0048293D01*
X0048177Y0037497D01*
Y0037263D01*
X0048293Y0037147D01*
X0048877D02*
Y0037613D01*
X0048993D01*
X0049110Y0037497D01*
Y0037147D01*
Y0037497D01*
X0049226Y0037613D01*
X0049343Y0037497D01*
Y0037147D01*
X0049576Y0036913D02*
Y0037613D01*
X0049926D01*
X0050043Y0037497D01*
Y0037263D01*
X0049926Y0037147D01*
X0049576D01*
X0050276Y0037030D02*
X0050743D01*
X0050976Y0037846D02*
Y0037147D01*
X0051326D01*
X0051442Y0037263D01*
Y0037380D01*
X0051326Y0037497D01*
X0050976D01*
X0051326D01*
X0051442Y0037613D01*
Y0037730D01*
X0051326Y0037846D01*
X0050976D01*
X0047477Y0036469D02*
Y0035769D01*
X0047944D01*
X0048177Y0036469D02*
Y0036002D01*
X0048410Y0035769D01*
X0048643Y0036002D01*
Y0036469D01*
X0048877D02*
Y0035769D01*
X0049226D01*
X0049343Y0035886D01*
Y0036352D01*
X0049226Y0036469D01*
X0048877D01*
X0050043Y0036352D02*
X0049926Y0036469D01*
X0049693D01*
X0049576Y0036352D01*
Y0036235D01*
X0049693Y0036119D01*
X0049926D01*
X0050043Y0036002D01*
Y0035886D01*
X0049926Y0035769D01*
X0049693D01*
X0049576Y0035886D01*
X0050276Y0036119D02*
X0050743D01*
X0050509Y0036352D02*
Y0035886D01*
X0007393Y0025780D02*
X0007277Y0025897D01*
X0007044D01*
X0006927Y0025780D01*
Y0025663D01*
X0007044Y0025547D01*
X0007277D01*
X0007393Y0025430D01*
Y0025314D01*
X0007277Y0025197D01*
X0007044D01*
X0006927Y0025314D01*
X0007977Y0025197D02*
X0007743D01*
X0007627Y0025314D01*
Y0025547D01*
X0007743Y0025663D01*
X0007977D01*
X0008093Y0025547D01*
Y0025430D01*
X0007627D01*
X0008327Y0025197D02*
Y0025663D01*
X0008676D01*
X0008793Y0025547D01*
Y0025197D01*
X0009026D02*
X0009376D01*
X0009493Y0025314D01*
X0009376Y0025430D01*
X0009143D01*
X0009026Y0025547D01*
X0009143Y0025663D01*
X0009493D01*
X0010076Y0025197D02*
X0009843D01*
X0009726Y0025314D01*
Y0025547D01*
X0009843Y0025663D01*
X0010076D01*
X0010193Y0025547D01*
Y0025430D01*
X0009726D01*
X0006927Y0024752D02*
X0007160D01*
X0007044D01*
Y0024052D01*
X0006927D01*
X0007160D01*
X0007510D02*
Y0024752D01*
X0007977Y0024052D01*
Y0024752D01*
X0008210Y0024402D02*
X0008676D01*
X0008443Y0024636D02*
Y0024169D01*
X0007393Y0013583D02*
X0006927D01*
Y0012884D01*
X0007393D01*
X0006927Y0013234D02*
X0007160D01*
X0007627Y0013350D02*
X0008093Y0012884D01*
X0007860Y0013117D01*
X0008093Y0013350D01*
X0007627Y0012884D01*
X0008443Y0013467D02*
Y0013350D01*
X0008327D01*
X0008560D01*
X0008443D01*
Y0013000D01*
X0008560Y0012884D01*
X0009260D02*
X0009026D01*
X0008910Y0013000D01*
Y0013234D01*
X0009026Y0013350D01*
X0009260D01*
X0009376Y0013234D01*
Y0013117D01*
X0008910D01*
X0009609Y0013350D02*
Y0012884D01*
Y0013117D01*
X0009726Y0013234D01*
X0009843Y0013350D01*
X0009959D01*
X0010309Y0012884D02*
Y0013350D01*
X0010659D01*
X0010776Y0013234D01*
Y0012884D01*
X0011126Y0013350D02*
X0011359D01*
X0011476Y0013234D01*
Y0012884D01*
X0011126D01*
X0011009Y0013000D01*
X0011126Y0013117D01*
X0011476D01*
X0011709Y0012884D02*
X0011942D01*
X0011825D01*
Y0013583D01*
X0011709D01*
X0006927Y0012439D02*
X0007393D01*
X0007160D01*
Y0011739D01*
X0007627Y0012206D02*
Y0011739D01*
Y0011972D01*
X0007743Y0012089D01*
X0007860Y0012206D01*
X0007977D01*
X0008327Y0011739D02*
X0008560D01*
X0008443D01*
Y0012206D01*
X0008327D01*
X0009143Y0011506D02*
X0009260D01*
X0009376Y0011623D01*
Y0012206D01*
X0009026D01*
X0008910Y0012089D01*
Y0011856D01*
X0009026Y0011739D01*
X0009376D01*
X0009843Y0011506D02*
X0009959D01*
X0010076Y0011623D01*
Y0012206D01*
X0009726D01*
X0009609Y0012089D01*
Y0011856D01*
X0009726Y0011739D01*
X0010076D01*
X0010659D02*
X0010426D01*
X0010309Y0011856D01*
Y0012089D01*
X0010426Y0012206D01*
X0010659D01*
X0010776Y0012089D01*
Y0011972D01*
X0010309D01*
X0011009Y0012206D02*
Y0011739D01*
Y0011972D01*
X0011126Y0012089D01*
X0011242Y0012206D01*
X0011359D01*
X0029419Y0057938D02*
X0029302Y0058055D01*
X0029069D01*
X0028952Y0057938D01*
Y0057471D01*
X0029069Y0057355D01*
X0029302D01*
X0029419Y0057471D01*
X0029768Y0057355D02*
X0030002D01*
X0030118Y0057471D01*
Y0057705D01*
X0030002Y0057821D01*
X0029768D01*
X0029652Y0057705D01*
Y0057471D01*
X0029768Y0057355D01*
X0030352D02*
Y0057821D01*
X0030468D01*
X0030585Y0057705D01*
Y0057355D01*
Y0057705D01*
X0030701Y0057821D01*
X0030818Y0057705D01*
Y0057355D01*
X0031051Y0057122D02*
Y0057821D01*
X0031401D01*
X0031518Y0057705D01*
Y0057471D01*
X0031401Y0057355D01*
X0031051D01*
X0031751Y0057238D02*
X0032218D01*
X0032451Y0058055D02*
Y0057355D01*
X0032801D01*
X0032917Y0057471D01*
Y0057588D01*
X0032801Y0057705D01*
X0032451D01*
X0032801D01*
X0032917Y0057821D01*
Y0057938D01*
X0032801Y0058055D01*
X0032451D01*
X0028952Y0056677D02*
Y0055977D01*
X0029419D01*
X0029652Y0056677D02*
Y0056210D01*
X0029885Y0055977D01*
X0030118Y0056210D01*
Y0056677D01*
X0030352D02*
Y0055977D01*
X0030701D01*
X0030818Y0056094D01*
Y0056560D01*
X0030701Y0056677D01*
X0030352D01*
X0031518Y0056560D02*
X0031401Y0056677D01*
X0031168D01*
X0031051Y0056560D01*
Y0056444D01*
X0031168Y0056327D01*
X0031401D01*
X0031518Y0056210D01*
Y0056094D01*
X0031401Y0055977D01*
X0031168D01*
X0031051Y0056094D01*
X0031751Y0056327D02*
X0032218D01*
X0029419Y0026830D02*
X0028952D01*
Y0026130D01*
X0029419D01*
X0028952Y0026480D02*
X0029185D01*
X0029652Y0026596D02*
X0030118Y0026130D01*
X0029885Y0026363D01*
X0030118Y0026596D01*
X0029652Y0026130D01*
X0030468Y0026713D02*
Y0026596D01*
X0030352D01*
X0030585D01*
X0030468D01*
Y0026246D01*
X0030585Y0026130D01*
X0031634Y0026830D02*
X0032101D01*
X0031868D01*
Y0026130D01*
X0032334Y0026596D02*
Y0026130D01*
Y0026363D01*
X0032451Y0026480D01*
X0032568Y0026596D01*
X0032684D01*
X0033034Y0026130D02*
X0033267D01*
X0033151D01*
Y0026596D01*
X0033034D01*
X0033850Y0025897D02*
X0033967D01*
X0034084Y0026013D01*
Y0026596D01*
X0033734D01*
X0033617Y0026480D01*
Y0026246D01*
X0033734Y0026130D01*
X0034084D01*
X0028952Y0025452D02*
Y0024752D01*
X0029419D01*
X0029652Y0025452D02*
Y0024985D01*
X0029885Y0024752D01*
X0030118Y0024985D01*
Y0025452D01*
X0030352D02*
Y0024752D01*
X0030701D01*
X0030818Y0024869D01*
Y0025335D01*
X0030701Y0025452D01*
X0030352D01*
X0031518Y0025335D02*
X0031401Y0025452D01*
X0031168D01*
X0031051Y0025335D01*
Y0025219D01*
X0031168Y0025102D01*
X0031401D01*
X0031518Y0024985D01*
Y0024869D01*
X0031401Y0024752D01*
X0031168D01*
X0031051Y0024869D01*
X0031751Y0025102D02*
X0032218D01*
X0066319Y0079438D02*
X0066202Y0079555D01*
X0065969D01*
X0065852Y0079438D01*
Y0079321D01*
X0065969Y0079205D01*
X0066202D01*
X0066319Y0079088D01*
Y0078971D01*
X0066202Y0078855D01*
X0065969D01*
X0065852Y0078971D01*
X0066552Y0079321D02*
X0067018D01*
X0066552Y0078855D01*
X0067018D01*
X0067252Y0079321D02*
Y0078971D01*
X0067368Y0078855D01*
X0067718D01*
Y0078738D01*
X0067601Y0078622D01*
X0067485D01*
X0067718Y0078855D02*
Y0079321D01*
X0067951Y0078855D02*
Y0079321D01*
X0068068D01*
X0068185Y0079205D01*
Y0078855D01*
Y0079205D01*
X0068301Y0079321D01*
X0068418Y0079205D01*
Y0078855D01*
X0068768D02*
X0069001D01*
X0069118Y0078971D01*
Y0079205D01*
X0069001Y0079321D01*
X0068768D01*
X0068651Y0079205D01*
Y0078971D01*
X0068768Y0078855D01*
X0069351D02*
Y0079321D01*
X0069701D01*
X0069817Y0079205D01*
Y0078855D01*
X0071217Y0079555D02*
X0070984D01*
X0071100D01*
Y0078971D01*
X0070984Y0078855D01*
X0070867D01*
X0070750Y0078971D01*
X0071800Y0078855D02*
X0071567D01*
X0071450Y0078971D01*
Y0079205D01*
X0071567Y0079321D01*
X0071800D01*
X0071917Y0079205D01*
Y0079088D01*
X0071450D01*
X0072616Y0079555D02*
Y0078855D01*
X0072267D01*
X0072150Y0078971D01*
Y0079205D01*
X0072267Y0079321D01*
X0072616D01*
X0072850Y0078855D02*
X0073083D01*
X0072966D01*
Y0079555D01*
X0072850D01*
X0073433Y0078855D02*
X0073666D01*
X0073550D01*
Y0079321D01*
X0073433D01*
X0074016Y0078855D02*
Y0079321D01*
X0074366D01*
X0074483Y0079205D01*
Y0078855D01*
X0074716D02*
X0075066D01*
X0075182Y0078971D01*
X0075066Y0079088D01*
X0074832D01*
X0074716Y0079205D01*
X0074832Y0079321D01*
X0075182D01*
X0075416Y0078855D02*
Y0079555D01*
Y0079088D02*
X0075765Y0079321D01*
X0075416Y0079088D02*
X0075765Y0078855D01*
X0076115D02*
X0076349D01*
X0076232D01*
Y0079321D01*
X0076115D01*
X0065852Y0077477D02*
X0066085D01*
X0065969D01*
Y0078177D01*
X0065852Y0078060D01*
X0066902Y0078177D02*
X0066435D01*
Y0077827D01*
X0066668Y0077944D01*
X0066785D01*
X0066902Y0077827D01*
Y0077594D01*
X0066785Y0077477D01*
X0066552D01*
X0066435Y0077594D01*
X0067135Y0077477D02*
Y0077594D01*
X0067252D01*
Y0077477D01*
X0067135D01*
X0067718Y0078060D02*
X0067835Y0078177D01*
X0068068D01*
X0068185Y0078060D01*
Y0077594D01*
X0068068Y0077477D01*
X0067835D01*
X0067718Y0077594D01*
Y0078060D01*
X0068418D02*
X0068534Y0078177D01*
X0068768D01*
X0068884Y0078060D01*
Y0077944D01*
X0068768Y0077827D01*
X0068884Y0077710D01*
Y0077594D01*
X0068768Y0077477D01*
X0068534D01*
X0068418Y0077594D01*
Y0077710D01*
X0068534Y0077827D01*
X0068418Y0077944D01*
Y0078060D01*
X0068534Y0077827D02*
X0068768D01*
X0069118Y0077477D02*
Y0077594D01*
X0069234D01*
Y0077477D01*
X0069118D01*
X0070167D02*
X0069701D01*
X0070167Y0077944D01*
Y0078060D01*
X0070051Y0078177D01*
X0069817D01*
X0069701Y0078060D01*
X0070401D02*
X0070517Y0078177D01*
X0070750D01*
X0070867Y0078060D01*
Y0077594D01*
X0070750Y0077477D01*
X0070517D01*
X0070401Y0077594D01*
Y0078060D01*
X0071567Y0077477D02*
X0071100D01*
X0071567Y0077944D01*
Y0078060D01*
X0071450Y0078177D01*
X0071217D01*
X0071100Y0078060D01*
X0071800D02*
X0071917Y0078177D01*
X0072150D01*
X0072267Y0078060D01*
Y0077944D01*
X0072150Y0077827D01*
X0072033D01*
X0072150D01*
X0072267Y0077710D01*
Y0077594D01*
X0072150Y0077477D01*
X0071917D01*
X0071800Y0077594D01*
X0006927Y0038321D02*
X0007160D01*
X0007044D01*
Y0037622D01*
X0006927D01*
X0007160D01*
X0007510D02*
Y0038088D01*
X0007860D01*
X0007977Y0037972D01*
Y0037622D01*
X0008210Y0037388D02*
Y0038088D01*
X0008560D01*
X0008676Y0037972D01*
Y0037738D01*
X0008560Y0037622D01*
X0008210D01*
X0008910Y0038088D02*
Y0037738D01*
X0009026Y0037622D01*
X0009376D01*
Y0038088D01*
X0009726Y0038205D02*
Y0038088D01*
X0009609D01*
X0009843D01*
X0009726D01*
Y0037738D01*
X0009843Y0037622D01*
X0007393Y0036827D02*
X0007277Y0036944D01*
X0007044D01*
X0006927Y0036827D01*
Y0036710D01*
X0007044Y0036594D01*
X0007277D01*
X0007393Y0036477D01*
Y0036361D01*
X0007277Y0036244D01*
X0007044D01*
X0006927Y0036361D01*
X0007627Y0036244D02*
X0007860D01*
X0007743D01*
Y0036710D01*
X0007627D01*
X0008443Y0036011D02*
X0008560D01*
X0008676Y0036127D01*
Y0036710D01*
X0008327D01*
X0008210Y0036594D01*
Y0036361D01*
X0008327Y0036244D01*
X0008676D01*
X0008910D02*
Y0036710D01*
X0009260D01*
X0009376Y0036594D01*
Y0036244D01*
X0009726Y0036710D02*
X0009959D01*
X0010076Y0036594D01*
Y0036244D01*
X0009726D01*
X0009609Y0036361D01*
X0009726Y0036477D01*
X0010076D01*
X0010309Y0036244D02*
X0010542D01*
X0010426D01*
Y0036944D01*
X0010309D01*
X0003494Y0077135D02*
X0003027D01*
Y0076785D01*
X0003260Y0076902D01*
X0003377D01*
X0003494Y0076785D01*
Y0076552D01*
X0003377Y0076435D01*
X0003144D01*
X0003027Y0076552D01*
X0003727Y0077135D02*
Y0076669D01*
X0003960Y0076435D01*
X0004193Y0076669D01*
Y0077135D01*
X0005126Y0076435D02*
Y0077135D01*
X0005476D01*
X0005593Y0077018D01*
Y0076785D01*
X0005476Y0076669D01*
X0005126D01*
X0005943Y0076435D02*
X0006176D01*
X0006293Y0076552D01*
Y0076785D01*
X0006176Y0076902D01*
X0005943D01*
X0005826Y0076785D01*
Y0076552D01*
X0005943Y0076435D01*
X0006526Y0076902D02*
Y0076552D01*
X0006642Y0076435D01*
X0006759Y0076552D01*
X0006876Y0076435D01*
X0006992Y0076552D01*
Y0076902D01*
X0007576Y0076435D02*
X0007342D01*
X0007226Y0076552D01*
Y0076785D01*
X0007342Y0076902D01*
X0007576D01*
X0007692Y0076785D01*
Y0076669D01*
X0007226D01*
X0007925Y0076902D02*
Y0076435D01*
Y0076669D01*
X0008042Y0076785D01*
X0008159Y0076902D01*
X0008275D01*
X0009791Y0077018D02*
X0009675Y0077135D01*
X0009442D01*
X0009325Y0077018D01*
Y0076902D01*
X0009442Y0076785D01*
X0009675D01*
X0009791Y0076669D01*
Y0076552D01*
X0009675Y0076435D01*
X0009442D01*
X0009325Y0076552D01*
X0010025Y0076902D02*
Y0076552D01*
X0010141Y0076435D01*
X0010491D01*
Y0076902D01*
X0010725Y0076202D02*
Y0076902D01*
X0011074D01*
X0011191Y0076785D01*
Y0076552D01*
X0011074Y0076435D01*
X0010725D01*
X0011424Y0076202D02*
Y0076902D01*
X0011774D01*
X0011891Y0076785D01*
Y0076552D01*
X0011774Y0076435D01*
X0011424D01*
X0012124D02*
X0012357D01*
X0012241D01*
Y0077135D01*
X0012124D01*
X0012707Y0076902D02*
Y0076552D01*
X0012824Y0076435D01*
X0013174D01*
Y0076319D01*
X0013057Y0076202D01*
X0012940D01*
X0013174Y0076435D02*
Y0076902D01*
X0014107Y0077135D02*
X0014340D01*
X0014223D01*
Y0076435D01*
X0014107D01*
X0014340D01*
X0014690D02*
Y0076902D01*
X0015040D01*
X0015156Y0076785D01*
Y0076435D01*
X0015390Y0076202D02*
Y0076902D01*
X0015740D01*
X0015856Y0076785D01*
Y0076552D01*
X0015740Y0076435D01*
X0015390D01*
X0016089Y0076902D02*
Y0076552D01*
X0016206Y0076435D01*
X0016556D01*
Y0076902D01*
X0016906Y0077018D02*
Y0076902D01*
X0016789D01*
X0017022D01*
X0016906D01*
Y0076552D01*
X0017022Y0076435D01*
X0029419Y0042238D02*
X0029302Y0042355D01*
X0029069D01*
X0028952Y0042238D01*
Y0041771D01*
X0029069Y0041655D01*
X0029302D01*
X0029419Y0041771D01*
X0029768Y0041655D02*
X0030002D01*
X0030118Y0041771D01*
Y0042005D01*
X0030002Y0042121D01*
X0029768D01*
X0029652Y0042005D01*
Y0041771D01*
X0029768Y0041655D01*
X0030352D02*
Y0042121D01*
X0030468D01*
X0030585Y0042005D01*
Y0041655D01*
Y0042005D01*
X0030701Y0042121D01*
X0030818Y0042005D01*
Y0041655D01*
X0031051Y0041422D02*
Y0042121D01*
X0031401D01*
X0031518Y0042005D01*
Y0041771D01*
X0031401Y0041655D01*
X0031051D01*
X0031751Y0041538D02*
X0032218D01*
X0032451Y0041655D02*
Y0042121D01*
X0032684Y0042355D01*
X0032917Y0042121D01*
Y0041655D01*
Y0042005D01*
X0032451D01*
X0028952Y0040977D02*
Y0040277D01*
X0029419D01*
X0029652Y0040977D02*
Y0040510D01*
X0029885Y0040277D01*
X0030118Y0040510D01*
Y0040977D01*
X0030352D02*
Y0040277D01*
X0030701D01*
X0030818Y0040394D01*
Y0040860D01*
X0030701Y0040977D01*
X0030352D01*
X0031518Y0040860D02*
X0031401Y0040977D01*
X0031168D01*
X0031051Y0040860D01*
Y0040744D01*
X0031168Y0040627D01*
X0031401D01*
X0031518Y0040510D01*
Y0040394D01*
X0031401Y0040277D01*
X0031168D01*
X0031051Y0040394D01*
X0031751Y0040627D02*
X0032218D01*
X0093468Y0089861D02*
X0093934D01*
Y0089744D01*
X0093468Y0089278D01*
Y0089161D01*
X0093934D01*
X0094517D02*
X0094284D01*
X0094167Y0089278D01*
Y0089511D01*
X0094284Y0089628D01*
X0094517D01*
X0094634Y0089511D01*
Y0089394D01*
X0094167D01*
X0095334Y0089861D02*
Y0089161D01*
X0094984D01*
X0094867Y0089278D01*
Y0089511D01*
X0094984Y0089628D01*
X0095334D01*
X0095567Y0089861D02*
Y0089161D01*
X0095917D01*
X0096033Y0089278D01*
Y0089394D01*
Y0089511D01*
X0095917Y0089628D01*
X0095567D01*
X0096383Y0089161D02*
X0096617D01*
X0096733Y0089278D01*
Y0089511D01*
X0096617Y0089628D01*
X0096383D01*
X0096267Y0089511D01*
Y0089278D01*
X0096383Y0089161D01*
X0097083Y0089628D02*
X0097316D01*
X0097433Y0089511D01*
Y0089161D01*
X0097083D01*
X0096966Y0089278D01*
X0097083Y0089394D01*
X0097433D01*
X0097666Y0089628D02*
Y0089161D01*
Y0089394D01*
X0097783Y0089511D01*
X0097899Y0089628D01*
X0098016D01*
X0098832Y0089861D02*
Y0089161D01*
X0098483D01*
X0098366Y0089278D01*
Y0089511D01*
X0098483Y0089628D01*
X0098832D01*
X0093293Y0088600D02*
X0092943D01*
X0092826Y0088483D01*
Y0088250D01*
X0092943Y0088133D01*
X0093293D01*
X0093642D02*
X0093876D01*
X0093992Y0088250D01*
Y0088483D01*
X0093876Y0088600D01*
X0093642D01*
X0093526Y0088483D01*
Y0088250D01*
X0093642Y0088133D01*
X0094226D02*
Y0088600D01*
X0094576D01*
X0094692Y0088483D01*
Y0088133D01*
X0094925D02*
Y0088600D01*
X0095275D01*
X0095392Y0088483D01*
Y0088133D01*
X0095975D02*
X0095742D01*
X0095625Y0088250D01*
Y0088483D01*
X0095742Y0088600D01*
X0095975D01*
X0096092Y0088483D01*
Y0088367D01*
X0095625D01*
X0096791Y0088600D02*
X0096442D01*
X0096325Y0088483D01*
Y0088250D01*
X0096442Y0088133D01*
X0096791D01*
X0097141Y0088716D02*
Y0088600D01*
X0097025D01*
X0097258D01*
X0097141D01*
Y0088250D01*
X0097258Y0088133D01*
X0097725D02*
X0097958D01*
X0098074Y0088250D01*
Y0088483D01*
X0097958Y0088600D01*
X0097725D01*
X0097608Y0088483D01*
Y0088250D01*
X0097725Y0088133D01*
X0098308Y0088600D02*
Y0088133D01*
Y0088367D01*
X0098424Y0088483D01*
X0098541Y0088600D01*
X0098658D01*
X0099007Y0088133D02*
X0099357D01*
X0099474Y0088250D01*
X0099357Y0088367D01*
X0099124D01*
X0099007Y0088483D01*
X0099124Y0088600D01*
X0099474D01*
X0094342Y0085844D02*
Y0086544D01*
X0094692D01*
X0094809Y0086427D01*
Y0086194D01*
X0094692Y0086077D01*
X0094342D01*
X0095042Y0085844D02*
X0095275D01*
X0095159D01*
Y0086311D01*
X0095042D01*
X0095625Y0085844D02*
Y0086311D01*
X0095975D01*
X0096092Y0086194D01*
Y0085844D01*
X0096442D02*
X0096675D01*
X0096791Y0085961D01*
Y0086194D01*
X0096675Y0086311D01*
X0096442D01*
X0096325Y0086194D01*
Y0085961D01*
X0096442Y0085844D01*
X0097025Y0086311D02*
Y0085961D01*
X0097141Y0085844D01*
X0097491D01*
Y0086311D01*
X0097841Y0086427D02*
Y0086311D01*
X0097725D01*
X0097958D01*
X0097841D01*
Y0085961D01*
X0097958Y0085844D01*
X0047944Y0005930D02*
X0047477D01*
Y0005230D01*
X0047944D01*
X0047477Y0005580D02*
X0047710D01*
X0048177Y0005696D02*
X0048643Y0005230D01*
X0048410Y0005463D01*
X0048643Y0005696D01*
X0048177Y0005230D01*
X0048993Y0005813D02*
Y0005696D01*
X0048877D01*
X0049110D01*
X0048993D01*
Y0005346D01*
X0049110Y0005230D01*
X0050159Y0005930D02*
X0050626D01*
X0050393D01*
Y0005230D01*
X0050859Y0005696D02*
Y0005230D01*
Y0005463D01*
X0050976Y0005580D01*
X0051092Y0005696D01*
X0051209D01*
X0051559Y0005230D02*
X0051792D01*
X0051676D01*
Y0005696D01*
X0051559D01*
X0052375Y0004997D02*
X0052492D01*
X0052609Y0005113D01*
Y0005696D01*
X0052259D01*
X0052142Y0005580D01*
Y0005346D01*
X0052259Y0005230D01*
X0052609D01*
X0047477Y0004552D02*
Y0003852D01*
X0047944D01*
X0048177Y0004552D02*
Y0004085D01*
X0048410Y0003852D01*
X0048643Y0004085D01*
Y0004552D01*
X0048877D02*
Y0003852D01*
X0049226D01*
X0049343Y0003969D01*
Y0004435D01*
X0049226Y0004552D01*
X0048877D01*
X0050043Y0004435D02*
X0049926Y0004552D01*
X0049693D01*
X0049576Y0004435D01*
Y0004319D01*
X0049693Y0004202D01*
X0049926D01*
X0050043Y0004085D01*
Y0003969D01*
X0049926Y0003852D01*
X0049693D01*
X0049576Y0003969D01*
X0050276Y0004202D02*
X0050743D01*
X0050509Y0004435D02*
Y0003969D01*
X0007393Y0050330D02*
X0007277Y0050447D01*
X0007044D01*
X0006927Y0050330D01*
Y0050213D01*
X0007044Y0050097D01*
X0007277D01*
X0007393Y0049980D01*
Y0049864D01*
X0007277Y0049747D01*
X0007044D01*
X0006927Y0049864D01*
X0007977Y0049747D02*
X0007743D01*
X0007627Y0049864D01*
Y0050097D01*
X0007743Y0050213D01*
X0007977D01*
X0008093Y0050097D01*
Y0049980D01*
X0007627D01*
X0008327Y0049747D02*
Y0050213D01*
X0008676D01*
X0008793Y0050097D01*
Y0049747D01*
X0009026D02*
X0009376D01*
X0009493Y0049864D01*
X0009376Y0049980D01*
X0009143D01*
X0009026Y0050097D01*
X0009143Y0050213D01*
X0009493D01*
X0010076Y0049747D02*
X0009843D01*
X0009726Y0049864D01*
Y0050097D01*
X0009843Y0050213D01*
X0010076D01*
X0010193Y0050097D01*
Y0049980D01*
X0009726D01*
X0006927Y0049302D02*
X0007160D01*
X0007044D01*
Y0048602D01*
X0006927D01*
X0007160D01*
X0007510D02*
Y0049302D01*
X0007977Y0048602D01*
Y0049302D01*
X0008210Y0048952D02*
X0008676D01*
X0062998Y0078827D02*
X0062298D01*
Y0079177D01*
X0062415Y0079294D01*
X0062648D01*
X0062765Y0079177D01*
Y0078827D01*
X0062415Y0079527D02*
X0062298Y0079643D01*
Y0079877D01*
X0062415Y0079993D01*
X0062531D01*
X0062648Y0079877D01*
Y0079760D01*
Y0079877D01*
X0062765Y0079993D01*
X0062881D01*
X0062998Y0079877D01*
Y0079643D01*
X0062881Y0079527D01*
X0062298Y0080227D02*
X0062765D01*
X0062998Y0080460D01*
X0062765Y0080693D01*
X0062298D01*
X0062415Y0080926D02*
X0062298Y0081043D01*
Y0081276D01*
X0062415Y0081393D01*
X0062531D01*
X0062648Y0081276D01*
Y0081160D01*
Y0081276D01*
X0062765Y0081393D01*
X0062881D01*
X0062998Y0081276D01*
Y0081043D01*
X0062881Y0080926D01*
X0060723Y0078827D02*
X0060023D01*
Y0079177D01*
X0060140Y0079294D01*
X0060373D01*
X0060490Y0079177D01*
Y0078827D01*
X0060723Y0079993D02*
Y0079527D01*
X0060256Y0079993D01*
X0060140D01*
X0060023Y0079877D01*
Y0079643D01*
X0060140Y0079527D01*
X0060023Y0080227D02*
X0060490D01*
X0060723Y0080460D01*
X0060490Y0080693D01*
X0060023D01*
Y0081393D02*
Y0080926D01*
X0060373D01*
X0060256Y0081160D01*
Y0081276D01*
X0060373Y0081393D01*
X0060606D01*
X0060723Y0081276D01*
Y0081043D01*
X0060606Y0080926D01*
X0058523Y0078827D02*
X0057823D01*
Y0079177D01*
X0057940Y0079294D01*
X0058173D01*
X0058290Y0079177D01*
Y0078827D01*
X0057823Y0079993D02*
Y0079527D01*
X0058173D01*
X0058056Y0079760D01*
Y0079877D01*
X0058173Y0079993D01*
X0058406D01*
X0058523Y0079877D01*
Y0079643D01*
X0058406Y0079527D01*
X0057823Y0080227D02*
X0058290D01*
X0058523Y0080460D01*
X0058290Y0080693D01*
X0057823D01*
X0057940Y0080926D02*
X0057823Y0081043D01*
Y0081276D01*
X0057940Y0081393D01*
X0058406D01*
X0058523Y0081276D01*
Y0081043D01*
X0058406Y0080926D01*
X0057940D01*
X0056198Y0078827D02*
X0055498D01*
X0056198Y0079294D01*
X0055498D01*
X0056198Y0079993D02*
Y0079527D01*
X0055731Y0079993D01*
X0055615D01*
X0055498Y0079877D01*
Y0079643D01*
X0055615Y0079527D01*
X0055498Y0080227D02*
X0055965D01*
X0056198Y0080460D01*
X0055965Y0080693D01*
X0055498D01*
Y0081393D02*
Y0080926D01*
X0055848D01*
X0055731Y0081160D01*
Y0081276D01*
X0055848Y0081393D01*
X0056081D01*
X0056198Y0081276D01*
Y0081043D01*
X0056081Y0080926D01*
X0023967Y0089642D02*
X0024433D01*
X0024200D01*
Y0088942D01*
X0024667D02*
Y0089642D01*
X0025016D01*
X0025133Y0089526D01*
Y0089292D01*
X0025016Y0089176D01*
X0024667D01*
X0025366Y0089059D02*
X0025483Y0088942D01*
X0025716D01*
X0025833Y0089059D01*
Y0089526D01*
X0025716Y0089642D01*
X0025483D01*
X0025366Y0089526D01*
Y0089409D01*
X0025483Y0089292D01*
X0025833D01*
X0086142Y0052975D02*
X0086608D01*
X0086375D01*
Y0052275D01*
X0086842D02*
Y0052975D01*
X0087192D01*
X0087308Y0052858D01*
Y0052625D01*
X0087192Y0052508D01*
X0086842D01*
X0087542Y0052858D02*
X0087658Y0052975D01*
X0087891D01*
X0088008Y0052858D01*
Y0052742D01*
X0087891Y0052625D01*
X0088008Y0052508D01*
Y0052392D01*
X0087891Y0052275D01*
X0087658D01*
X0087542Y0052392D01*
Y0052508D01*
X0087658Y0052625D01*
X0087542Y0052742D01*
Y0052858D01*
X0087658Y0052625D02*
X0087891D01*
X0049110Y0091000D02*
X0049576D01*
X0049343D01*
Y0090300D01*
X0049810D02*
Y0091000D01*
X0050159D01*
X0050276Y0090883D01*
Y0090650D01*
X0050159Y0090533D01*
X0049810D01*
X0050509Y0091000D02*
X0050976D01*
Y0090883D01*
X0050509Y0090417D01*
Y0090300D01*
X0049436Y0084478D02*
X0049902D01*
X0049669D01*
Y0083778D01*
X0050136D02*
Y0084478D01*
X0050486D01*
X0050602Y0084361D01*
Y0084128D01*
X0050486Y0084011D01*
X0050136D01*
X0051302Y0084478D02*
X0051069Y0084361D01*
X0050835Y0084128D01*
Y0083895D01*
X0050952Y0083778D01*
X0051185D01*
X0051302Y0083895D01*
Y0084011D01*
X0051185Y0084128D01*
X0050835D01*
X0052006Y0071591D02*
X0052473D01*
X0052240D01*
Y0070891D01*
X0052706D02*
Y0071591D01*
X0053056D01*
X0053173Y0071474D01*
Y0071241D01*
X0053056Y0071125D01*
X0052706D01*
X0053872Y0071591D02*
X0053406D01*
Y0071241D01*
X0053639Y0071358D01*
X0053756D01*
X0053872Y0071241D01*
Y0071008D01*
X0053756Y0070891D01*
X0053523D01*
X0053406Y0071008D01*
X0046768Y0076161D02*
X0047235D01*
X0047002D01*
Y0075461D01*
X0047468D02*
Y0076161D01*
X0047818D01*
X0047935Y0076044D01*
Y0075811D01*
X0047818Y0075694D01*
X0047468D01*
X0048518Y0075461D02*
Y0076161D01*
X0048168Y0075811D01*
X0048634D01*
X0059551Y0054608D02*
X0060017D01*
X0059784D01*
Y0053908D01*
X0060250D02*
Y0054608D01*
X0060600D01*
X0060717Y0054492D01*
Y0054258D01*
X0060600Y0054142D01*
X0060250D01*
X0060950Y0053908D02*
X0061183D01*
X0061067D01*
Y0054608D01*
X0060950Y0054492D01*
X0061533Y0054025D02*
X0061650Y0053908D01*
X0061883D01*
X0062000Y0054025D01*
Y0054492D01*
X0061883Y0054608D01*
X0061650D01*
X0061533Y0054492D01*
Y0054375D01*
X0061650Y0054258D01*
X0062000D01*
X0062233Y0053792D02*
X0062700D01*
X0063399Y0053908D02*
X0062933D01*
X0063399Y0054375D01*
Y0054492D01*
X0063283Y0054608D01*
X0063049D01*
X0062933Y0054492D01*
X0079617Y0054583D02*
X0080084D01*
X0079851D01*
Y0053883D01*
X0080317D02*
Y0054583D01*
X0080667D01*
X0080784Y0054467D01*
Y0054233D01*
X0080667Y0054117D01*
X0080317D01*
X0081017Y0053883D02*
X0081250D01*
X0081133D01*
Y0054583D01*
X0081017Y0054467D01*
X0081600Y0054000D02*
X0081717Y0053883D01*
X0081950D01*
X0082066Y0054000D01*
Y0054467D01*
X0081950Y0054583D01*
X0081717D01*
X0081600Y0054467D01*
Y0054350D01*
X0081717Y0054233D01*
X0082066D01*
X0082300Y0053767D02*
X0082766D01*
X0082999Y0053883D02*
X0083233D01*
X0083116D01*
Y0054583D01*
X0082999Y0054467D01*
X0069626Y0063858D02*
X0070092D01*
X0069859D01*
Y0063158D01*
X0070325D02*
Y0063858D01*
X0070675D01*
X0070792Y0063742D01*
Y0063508D01*
X0070675Y0063392D01*
X0070325D01*
X0071025Y0063158D02*
X0071258D01*
X0071142D01*
Y0063858D01*
X0071025Y0063742D01*
X0071608D02*
X0071725Y0063858D01*
X0071958D01*
X0072075Y0063742D01*
Y0063625D01*
X0071958Y0063508D01*
X0072075Y0063392D01*
Y0063275D01*
X0071958Y0063158D01*
X0071725D01*
X0071608Y0063275D01*
Y0063392D01*
X0071725Y0063508D01*
X0071608Y0063625D01*
Y0063742D01*
X0071725Y0063508D02*
X0071958D01*
X0072308Y0063042D02*
X0072775D01*
X0073474Y0063158D02*
X0073008D01*
X0073474Y0063625D01*
Y0063742D01*
X0073358Y0063858D01*
X0073124D01*
X0073008Y0063742D01*
X0084092Y0054533D02*
X0084559D01*
X0084326D01*
Y0053833D01*
X0084792D02*
Y0054533D01*
X0085142D01*
X0085259Y0054417D01*
Y0054183D01*
X0085142Y0054067D01*
X0084792D01*
X0085492Y0053833D02*
X0085725D01*
X0085608D01*
Y0054533D01*
X0085492Y0054417D01*
X0086075D02*
X0086192Y0054533D01*
X0086425D01*
X0086541Y0054417D01*
Y0054300D01*
X0086425Y0054183D01*
X0086541Y0054067D01*
Y0053950D01*
X0086425Y0053833D01*
X0086192D01*
X0086075Y0053950D01*
Y0054067D01*
X0086192Y0054183D01*
X0086075Y0054300D01*
Y0054417D01*
X0086192Y0054183D02*
X0086425D01*
X0086775Y0053717D02*
X0087241D01*
X0087475Y0053833D02*
X0087708D01*
X0087591D01*
Y0054533D01*
X0087475Y0054417D01*
X0067326Y0067558D02*
X0067792D01*
X0067559D01*
Y0066858D01*
X0068025D02*
Y0067558D01*
X0068375D01*
X0068492Y0067442D01*
Y0067208D01*
X0068375Y0067092D01*
X0068025D01*
X0068725Y0066858D02*
X0068958D01*
X0068842D01*
Y0067558D01*
X0068725Y0067442D01*
X0069308Y0067558D02*
X0069775D01*
Y0067442D01*
X0069308Y0066975D01*
Y0066858D01*
X0070008Y0066742D02*
X0070475D01*
X0071174Y0066858D02*
X0070708D01*
X0071174Y0067325D01*
Y0067442D01*
X0071058Y0067558D01*
X0070825D01*
X0070708Y0067442D01*
X0087092Y0067433D02*
X0087559D01*
X0087326D01*
Y0066733D01*
X0087792D02*
Y0067433D01*
X0088142D01*
X0088259Y0067317D01*
Y0067083D01*
X0088142Y0066967D01*
X0087792D01*
X0088492Y0066733D02*
X0088725D01*
X0088608D01*
Y0067433D01*
X0088492Y0067317D01*
X0089075Y0067433D02*
X0089541D01*
Y0067317D01*
X0089075Y0066850D01*
Y0066733D01*
X0089775Y0066617D02*
X0090241D01*
X0090475Y0066733D02*
X0090708D01*
X0090591D01*
Y0067433D01*
X0090475Y0067317D01*
X0019850Y0020700D02*
X0020317D01*
X0020084D01*
Y0020000D01*
X0020550D02*
Y0020700D01*
X0020900D01*
X0021017Y0020583D01*
Y0020350D01*
X0020900Y0020233D01*
X0020550D01*
X0021250Y0020000D02*
X0021483D01*
X0021367D01*
Y0020700D01*
X0021250Y0020583D01*
X0022300Y0020700D02*
X0022066Y0020583D01*
X0021833Y0020350D01*
Y0020117D01*
X0021950Y0020000D01*
X0022183D01*
X0022300Y0020117D01*
Y0020233D01*
X0022183Y0020350D01*
X0021833D01*
X0086400Y0035400D02*
X0086867D01*
X0086634D01*
Y0034700D01*
X0087100D02*
Y0035400D01*
X0087450D01*
X0087567Y0035283D01*
Y0035050D01*
X0087450Y0034933D01*
X0087100D01*
X0087800Y0034700D02*
X0088033D01*
X0087917D01*
Y0035400D01*
X0087800Y0035283D01*
X0088850Y0035400D02*
X0088383D01*
Y0035050D01*
X0088616Y0035167D01*
X0088733D01*
X0088850Y0035050D01*
Y0034817D01*
X0088733Y0034700D01*
X0088500D01*
X0088383Y0034817D01*
X0067900Y0040250D02*
X0068367D01*
X0068134D01*
Y0039550D01*
X0068600D02*
Y0040250D01*
X0068950D01*
X0069067Y0040133D01*
Y0039900D01*
X0068950Y0039783D01*
X0068600D01*
X0069300Y0039550D02*
X0069533D01*
X0069417D01*
Y0040250D01*
X0069300Y0040133D01*
X0070233Y0039550D02*
Y0040250D01*
X0069883Y0039900D01*
X0070350D01*
X0086675Y0049800D02*
X0087142D01*
X0086909D01*
Y0049100D01*
X0087375D02*
Y0049800D01*
X0087725D01*
X0087842Y0049683D01*
Y0049450D01*
X0087725Y0049333D01*
X0087375D01*
X0088075Y0049100D02*
X0088308D01*
X0088192D01*
Y0049800D01*
X0088075Y0049683D01*
X0088658D02*
X0088775Y0049800D01*
X0089008D01*
X0089125Y0049683D01*
Y0049567D01*
X0089008Y0049450D01*
X0088891D01*
X0089008D01*
X0089125Y0049333D01*
Y0049217D01*
X0089008Y0049100D01*
X0088775D01*
X0088658Y0049217D01*
X0083225Y0035400D02*
X0083692D01*
X0083459D01*
Y0034700D01*
X0083925D02*
Y0035400D01*
X0084275D01*
X0084392Y0035283D01*
Y0035050D01*
X0084275Y0034933D01*
X0083925D01*
X0084625Y0034700D02*
X0084858D01*
X0084742D01*
Y0035400D01*
X0084625Y0035283D01*
X0085675Y0034700D02*
X0085208D01*
X0085675Y0035167D01*
Y0035283D01*
X0085558Y0035400D01*
X0085325D01*
X0085208Y0035283D01*
X0072517Y0046825D02*
X0072984D01*
X0072750D01*
Y0046125D01*
X0073217D02*
Y0046825D01*
X0073567D01*
X0073683Y0046708D01*
Y0046475D01*
X0073567Y0046358D01*
X0073217D01*
X0073917Y0046125D02*
X0074150D01*
X0074033D01*
Y0046825D01*
X0073917Y0046708D01*
X0074500Y0046125D02*
X0074733D01*
X0074616D01*
Y0046825D01*
X0074500Y0046708D01*
X0075839Y0048427D02*
X0076306D01*
X0076073D01*
Y0047727D01*
X0076539D02*
Y0048427D01*
X0076889D01*
X0077006Y0048310D01*
Y0048077D01*
X0076889Y0047960D01*
X0076539D01*
X0077239Y0047727D02*
X0077472D01*
X0077356D01*
Y0048427D01*
X0077239Y0048310D01*
X0077822D02*
X0077939Y0048427D01*
X0078172D01*
X0078289Y0048310D01*
Y0047843D01*
X0078172Y0047727D01*
X0077939D01*
X0077822Y0047843D01*
Y0048310D01*
X0050217Y0060508D02*
X0050684D01*
X0050450D01*
Y0059808D01*
X0050917D02*
Y0060508D01*
X0051267D01*
X0051383Y0060392D01*
Y0060158D01*
X0051267Y0060042D01*
X0050917D01*
X0051617Y0060392D02*
X0051733Y0060508D01*
X0051967D01*
X0052083Y0060392D01*
Y0060275D01*
X0051967Y0060158D01*
X0051850D01*
X0051967D01*
X0052083Y0060042D01*
Y0059925D01*
X0051967Y0059808D01*
X0051733D01*
X0051617Y0059925D01*
X0052317Y0059692D02*
X0052783D01*
X0053483Y0059808D02*
X0053016D01*
X0053483Y0060275D01*
Y0060392D01*
X0053366Y0060508D01*
X0053133D01*
X0053016Y0060392D01*
X0071184Y0058083D02*
X0071650D01*
X0071417D01*
Y0057383D01*
X0071884D02*
Y0058083D01*
X0072233D01*
X0072350Y0057967D01*
Y0057733D01*
X0072233Y0057617D01*
X0071884D01*
X0072583Y0057967D02*
X0072700Y0058083D01*
X0072933D01*
X0073050Y0057967D01*
Y0057850D01*
X0072933Y0057733D01*
X0072817D01*
X0072933D01*
X0073050Y0057617D01*
Y0057500D01*
X0072933Y0057383D01*
X0072700D01*
X0072583Y0057500D01*
X0073283Y0057267D02*
X0073750D01*
X0073983Y0057383D02*
X0074216D01*
X0074100D01*
Y0058083D01*
X0073983Y0057967D01*
X0068442Y0045225D02*
X0068908D01*
X0068675D01*
Y0044525D01*
X0069142D02*
Y0045225D01*
X0069492D01*
X0069608Y0045108D01*
Y0044875D01*
X0069492Y0044758D01*
X0069142D01*
X0070308Y0044525D02*
X0069842D01*
X0070308Y0044992D01*
Y0045108D01*
X0070191Y0045225D01*
X0069958D01*
X0069842Y0045108D01*
X0070359Y0048325D02*
X0070825D01*
X0070592D01*
Y0047625D01*
X0071058D02*
Y0048325D01*
X0071408D01*
X0071525Y0048208D01*
Y0047975D01*
X0071408Y0047858D01*
X0071058D01*
X0071758Y0047625D02*
X0071991D01*
X0071875D01*
Y0048325D01*
X0071758Y0048208D01*
D12*
X0092905Y0082364D02*
X0099205D01*
X0092918Y0079814D02*
X0099218D01*
X0092930Y0077289D02*
X0099230D01*
X0092980Y0074739D02*
X0099280D01*
X0093005Y0072164D02*
X0099305D01*
X0096005Y0070147D02*
Y0084439D01*
X0096075Y0054523D02*
Y0068815D01*
X0093075Y0056540D02*
X0099375D01*
X0093050Y0059115D02*
X0099350D01*
X0093000Y0061665D02*
X0099300D01*
X0092987Y0064190D02*
X0099287D01*
X0092975Y0066740D02*
X0099275D01*
X0062158Y0082899D02*
X0063158D01*
X0057508D02*
X0058508D01*
X0059833D02*
X0060833D01*
X0055219Y0082874D02*
X0056219D01*
X0021200Y0079675D02*
Y0090675D01*
X0003000D02*
X0021200D01*
X0003000Y0079675D02*
X0021200D01*
Y0063225D02*
Y0074225D01*
X0003000D02*
X0021200D01*
X0003000Y0063225D02*
X0021200D01*
X0066025Y0088197D02*
Y0087197D01*
X0066358Y0087530D01*
X0066691Y0087197D01*
Y0088197D01*
X0067025D02*
Y0087364D01*
X0067191Y0087197D01*
X0067525D01*
X0067691Y0087364D01*
Y0088197D01*
X0068024D02*
X0068691D01*
X0068358D01*
Y0087197D01*
X0070024Y0088197D02*
X0070357D01*
X0070190D01*
Y0087197D01*
X0070024D01*
X0070357D01*
X0071523Y0088030D02*
X0071357Y0088197D01*
X0071023D01*
X0070857Y0088030D01*
Y0087864D01*
X0071023Y0087697D01*
X0071357D01*
X0071523Y0087530D01*
Y0087364D01*
X0071357Y0087197D01*
X0071023D01*
X0070857Y0087364D01*
X0072523Y0088197D02*
X0071856D01*
Y0087197D01*
X0072523D01*
X0071856Y0087697D02*
X0072190D01*
X0066025Y0084838D02*
X0066691D01*
X0066358D01*
Y0083838D01*
X0067025D02*
X0067358D01*
X0067191D01*
Y0084504D01*
X0067025D01*
X0067858Y0083838D02*
Y0084504D01*
X0068024D01*
X0068191Y0084338D01*
Y0083838D01*
Y0084338D01*
X0068358Y0084504D01*
X0068524Y0084338D01*
Y0083838D01*
X0069357D02*
X0069024D01*
X0068857Y0084004D01*
Y0084338D01*
X0069024Y0084504D01*
X0069357D01*
X0069524Y0084338D01*
Y0084171D01*
X0068857D01*
X0071523Y0084671D02*
X0071357Y0084838D01*
X0071023D01*
X0070857Y0084671D01*
Y0084504D01*
X0071023Y0084338D01*
X0071357D01*
X0071523Y0084171D01*
Y0084004D01*
X0071357Y0083838D01*
X0071023D01*
X0070857Y0084004D01*
X0072023Y0084504D02*
X0072356D01*
X0072523Y0084338D01*
Y0083838D01*
X0072023D01*
X0071856Y0084004D01*
X0072023Y0084171D01*
X0072523D01*
X0072856Y0083838D02*
Y0084504D01*
X0073023D01*
X0073189Y0084338D01*
Y0083838D01*
Y0084338D01*
X0073356Y0084504D01*
X0073523Y0084338D01*
Y0083838D01*
X0073856Y0083505D02*
Y0084504D01*
X0074356D01*
X0074522Y0084338D01*
Y0084004D01*
X0074356Y0083838D01*
X0073856D01*
X0074855D02*
X0075189D01*
X0075022D01*
Y0084838D01*
X0074855D01*
X0075689Y0083838D02*
X0076022D01*
X0075855D01*
Y0084504D01*
X0075689D01*
X0076522Y0083838D02*
Y0084504D01*
X0077021D01*
X0077188Y0084338D01*
Y0083838D01*
X0077855Y0083505D02*
X0078021D01*
X0078188Y0083671D01*
Y0084504D01*
X0077688D01*
X0077521Y0084338D01*
Y0084004D01*
X0077688Y0083838D01*
X0078188D01*
X0080020Y0084838D02*
X0079687D01*
X0079521Y0084671D01*
Y0084004D01*
X0079687Y0083838D01*
X0080020D01*
X0080187Y0084004D01*
Y0084671D01*
X0080020Y0084838D01*
X0080520Y0083838D02*
X0081020D01*
X0081187Y0084004D01*
X0081020Y0084171D01*
X0080687D01*
X0080520Y0084338D01*
X0080687Y0084504D01*
X0081187D01*
X0082186D02*
X0081687D01*
X0081520Y0084338D01*
Y0084004D01*
X0081687Y0083838D01*
X0082186D01*
X0082520D02*
X0082853D01*
X0082686D01*
Y0084504D01*
X0082520D01*
X0083353Y0083838D02*
X0083686D01*
X0083519D01*
Y0084838D01*
X0083353D01*
X0084186Y0083838D02*
X0084519D01*
X0084352D01*
Y0084838D01*
X0084186D01*
X0085185Y0083838D02*
X0085519D01*
X0085685Y0084004D01*
Y0084338D01*
X0085519Y0084504D01*
X0085185D01*
X0085019Y0084338D01*
Y0084004D01*
X0085185Y0083838D01*
X0086019D02*
X0086518D01*
X0086685Y0084004D01*
X0086518Y0084171D01*
X0086185D01*
X0086019Y0084338D01*
X0086185Y0084504D01*
X0086685D01*
X0087685D02*
X0087185D01*
X0087018Y0084338D01*
Y0084004D01*
X0087185Y0083838D01*
X0087685D01*
X0088185D02*
X0088518D01*
X0088684Y0084004D01*
Y0084338D01*
X0088518Y0084504D01*
X0088185D01*
X0088018Y0084338D01*
Y0084004D01*
X0088185Y0083838D01*
X0089018Y0083505D02*
Y0084504D01*
X0089517D01*
X0089684Y0084338D01*
Y0084004D01*
X0089517Y0083838D01*
X0089018D01*
X0090517D02*
X0090184D01*
X0090017Y0084004D01*
Y0084338D01*
X0090184Y0084504D01*
X0090517D01*
X0090684Y0084338D01*
Y0084171D01*
X0090017D01*
X0066025Y0081825D02*
Y0082491D01*
X0066358Y0082825D01*
X0066691Y0082491D01*
Y0081825D01*
Y0082325D01*
X0066025D01*
X0067691Y0082825D02*
X0067025D01*
Y0082325D01*
X0067358D01*
X0067025D01*
Y0081825D01*
X0068691Y0082825D02*
X0068024D01*
Y0081825D01*
X0068691D01*
X0068024Y0082325D02*
X0068358D01*
X0070690Y0082658D02*
X0070524Y0082825D01*
X0070190D01*
X0070024Y0082658D01*
Y0082491D01*
X0070190Y0082325D01*
X0070524D01*
X0070690Y0082158D01*
Y0081992D01*
X0070524Y0081825D01*
X0070190D01*
X0070024Y0081992D01*
X0071023Y0082825D02*
Y0081825D01*
Y0082325D01*
X0071190Y0082491D01*
X0071523D01*
X0071690Y0082325D01*
Y0081825D01*
X0072023D02*
X0072356D01*
X0072190D01*
Y0082491D01*
X0072023D01*
X0073356Y0081825D02*
X0073023D01*
X0072856Y0081992D01*
Y0082325D01*
X0073023Y0082491D01*
X0073356D01*
X0073523Y0082325D01*
Y0082158D01*
X0072856D01*
X0073856Y0081825D02*
X0074189D01*
X0074022D01*
Y0082825D01*
X0073856D01*
X0075355D02*
Y0081825D01*
X0074855D01*
X0074689Y0081992D01*
Y0082325D01*
X0074855Y0082491D01*
X0075355D01*
X0076688D02*
Y0081825D01*
Y0082158D01*
X0076855Y0082325D01*
X0077021Y0082491D01*
X0077188D01*
X0078188Y0081825D02*
X0077855D01*
X0077688Y0081992D01*
Y0082325D01*
X0077855Y0082491D01*
X0078188D01*
X0078354Y0082325D01*
Y0082158D01*
X0077688D01*
X0078688Y0082491D02*
X0079021Y0081825D01*
X0079354Y0082491D01*
X0080687Y0081825D02*
X0081020D01*
X0080854D01*
Y0082825D01*
X0080687Y0082658D01*
X0081520Y0081825D02*
Y0081992D01*
X0081687D01*
Y0081825D01*
X0081520D01*
X0082353Y0082658D02*
X0082520Y0082825D01*
X0082853D01*
X0083020Y0082658D01*
Y0081992D01*
X0082853Y0081825D01*
X0082520D01*
X0082353Y0081992D01*
Y0082658D01*
D13*
X0037300Y0029390D02*
X0039300D01*
X0037300D02*
X0039300D01*
X0037300Y0022390D02*
X0039300D01*
X0037300D02*
X0039300D01*
X0034800Y0024890D02*
Y0026890D01*
Y0024890D02*
Y0026890D01*
X0041800Y0024890D02*
Y0026890D01*
Y0024890D02*
Y0026890D01*
X0050050Y0013900D02*
X0052050D01*
X0050050D02*
X0052050D01*
X0050050Y0006900D02*
X0052050D01*
X0050050D02*
X0052050D01*
X0047550Y0009400D02*
Y0011400D01*
Y0009400D02*
Y0011400D01*
X0054550Y0009400D02*
Y0011400D01*
Y0009400D02*
Y0011400D01*
X0037300Y0045015D02*
X0039300D01*
X0037300D02*
X0039300D01*
X0037300Y0038015D02*
X0039300D01*
X0037300D02*
X0039300D01*
X0034800Y0040515D02*
Y0042515D01*
Y0040515D02*
Y0042515D01*
X0041800Y0040515D02*
Y0042515D01*
Y0040515D02*
Y0042515D01*
X0050050Y0029525D02*
X0052050D01*
X0050050D02*
X0052050D01*
X0050050Y0022525D02*
X0052050D01*
X0050050D02*
X0052050D01*
X0047550Y0025025D02*
Y0027025D01*
Y0025025D02*
Y0027025D01*
X0054550Y0025025D02*
Y0027025D01*
Y0025025D02*
Y0027025D01*
X0008400Y0042100D02*
Y0042525D01*
Y0040675D02*
Y0041100D01*
X0009425Y0040625D02*
Y0040822D01*
X0009225Y0040625D02*
X0009425D01*
Y0042378D02*
Y0042575D01*
X0009225D02*
X0009425D01*
X0037300Y0060765D02*
X0039300D01*
X0037300D02*
X0039300D01*
X0037300Y0053765D02*
X0039300D01*
X0037300D02*
X0039300D01*
X0034800Y0056265D02*
Y0058265D01*
Y0056265D02*
Y0058265D01*
X0041800Y0056265D02*
Y0058265D01*
Y0056265D02*
Y0058265D01*
X0050050Y0045275D02*
X0052050D01*
X0050050D02*
X0052050D01*
X0050050Y0038275D02*
X0052050D01*
X0050050D02*
X0052050D01*
X0047550Y0040775D02*
Y0042775D01*
Y0040775D02*
Y0042775D01*
X0054550Y0040775D02*
Y0042775D01*
Y0040775D02*
Y0042775D01*
X0041250Y0091325D02*
X0043350D01*
X0041250Y0088225D02*
X0042300D01*
X0018570Y0048387D02*
Y0050487D01*
X0020670Y0048387D02*
Y0049437D01*
X0018595Y0032797D02*
Y0034897D01*
X0020695Y0032797D02*
Y0033847D01*
X0093650Y0073414D02*
Y0072914D01*
X0093983D01*
X0094150Y0073414D02*
Y0072914D01*
X0094400D01*
X0094483Y0072997D01*
Y0073330D01*
X0094400Y0073414D01*
X0094150D01*
X0094650Y0072914D02*
Y0073247D01*
X0094816Y0073414D01*
X0094983Y0073247D01*
Y0072914D01*
Y0073164D01*
X0094650D01*
X0095483Y0073330D02*
X0095400Y0073414D01*
X0095233D01*
X0095150Y0073330D01*
Y0072997D01*
X0095233Y0072914D01*
X0095400D01*
X0095483Y0072997D01*
X0094483Y0070805D02*
X0094400Y0070889D01*
X0094233D01*
X0094150Y0070805D01*
Y0070472D01*
X0094233Y0070389D01*
X0094400D01*
X0094483Y0070472D01*
X0094650Y0070889D02*
Y0070389D01*
X0094983D01*
X0095150D02*
Y0070889D01*
X0095400D01*
X0095483Y0070805D01*
Y0070639D01*
X0095400Y0070555D01*
X0095150D01*
X0095316D02*
X0095483Y0070389D01*
X0096556Y0083614D02*
X0096640Y0083697D01*
X0096806D01*
X0096890Y0083614D01*
Y0083530D01*
X0096806Y0083447D01*
X0096723D01*
X0096806D01*
X0096890Y0083364D01*
Y0083280D01*
X0096806Y0083197D01*
X0096640D01*
X0096556Y0083280D01*
X0097056Y0083697D02*
Y0083364D01*
X0097223Y0083197D01*
X0097389Y0083364D01*
Y0083697D01*
X0097556Y0083614D02*
X0097639Y0083697D01*
X0097806D01*
X0097889Y0083614D01*
Y0083530D01*
X0097806Y0083447D01*
X0097723D01*
X0097806D01*
X0097889Y0083364D01*
Y0083280D01*
X0097806Y0083197D01*
X0097639D01*
X0097556Y0083280D01*
X0098056Y0083114D02*
X0098389D01*
X0098889Y0083697D02*
X0098556D01*
Y0083197D01*
X0098889D01*
X0098556Y0083447D02*
X0098722D01*
X0099055Y0083697D02*
X0099389Y0083197D01*
Y0083697D02*
X0099055Y0083197D01*
X0099555Y0083697D02*
X0099889D01*
X0099722D01*
Y0083197D01*
X0096890Y0081105D02*
X0096806Y0081189D01*
X0096640D01*
X0096556Y0081105D01*
Y0080772D01*
X0096640Y0080689D01*
X0096806D01*
X0096890Y0080772D01*
Y0080939D01*
X0096723D01*
X0097056Y0080689D02*
Y0081189D01*
X0097389Y0080689D01*
Y0081189D01*
X0097556D02*
Y0080689D01*
X0097806D01*
X0097889Y0080772D01*
Y0081105D01*
X0097806Y0081189D01*
X0097556D01*
X0096556Y0078589D02*
Y0078089D01*
X0096806D01*
X0096890Y0078172D01*
Y0078505D01*
X0096806Y0078589D01*
X0096556D01*
X0097056D02*
X0097223D01*
X0097139D01*
Y0078089D01*
X0097056D01*
X0097223D01*
X0097473D02*
Y0078589D01*
X0097806Y0078089D01*
Y0078589D01*
X0096556Y0075564D02*
Y0076064D01*
X0096890Y0075564D01*
Y0076064D01*
X0097389Y0075980D02*
X0097306Y0076064D01*
X0097139D01*
X0097056Y0075980D01*
Y0075647D01*
X0097139Y0075564D01*
X0097306D01*
X0097389Y0075647D01*
X0094483Y0081105D02*
X0094400Y0081189D01*
X0094233D01*
X0094150Y0081105D01*
Y0080772D01*
X0094233Y0080689D01*
X0094400D01*
X0094483Y0080772D01*
Y0080939D01*
X0094317D01*
X0094650Y0080689D02*
Y0081189D01*
X0094983Y0080689D01*
Y0081189D01*
X0095150D02*
Y0080689D01*
X0095400D01*
X0095483Y0080772D01*
Y0081105D01*
X0095400Y0081189D01*
X0095150D01*
X0096556Y0072939D02*
Y0073439D01*
X0096890Y0072939D01*
Y0073439D01*
X0097389Y0073355D02*
X0097306Y0073439D01*
X0097139D01*
X0097056Y0073355D01*
Y0073022D01*
X0097139Y0072939D01*
X0097306D01*
X0097389Y0073022D01*
X0096556Y0070414D02*
Y0070914D01*
X0096890Y0070414D01*
Y0070914D01*
X0097389Y0070830D02*
X0097306Y0070914D01*
X0097139D01*
X0097056Y0070830D01*
Y0070497D01*
X0097139Y0070414D01*
X0097306D01*
X0097389Y0070497D01*
X0093983Y0078330D02*
X0093900Y0078414D01*
X0093733D01*
X0093650Y0078330D01*
Y0078247D01*
X0093733Y0078164D01*
X0093900D01*
X0093983Y0078080D01*
Y0077997D01*
X0093900Y0077914D01*
X0093733D01*
X0093650Y0077997D01*
X0094483Y0078330D02*
X0094400Y0078414D01*
X0094233D01*
X0094150Y0078330D01*
Y0077997D01*
X0094233Y0077914D01*
X0094400D01*
X0094483Y0077997D01*
X0094650Y0078414D02*
Y0077914D01*
X0094983D01*
X0095150Y0078414D02*
Y0077914D01*
Y0078080D01*
X0095483Y0078414D01*
X0095233Y0078164D01*
X0095483Y0077914D01*
X0093983Y0075805D02*
X0093900Y0075889D01*
X0093733D01*
X0093650Y0075805D01*
Y0075722D01*
X0093733Y0075639D01*
X0093900D01*
X0093983Y0075555D01*
Y0075472D01*
X0093900Y0075389D01*
X0093733D01*
X0093650Y0075472D01*
X0094150Y0075889D02*
Y0075805D01*
X0094317Y0075639D01*
X0094483Y0075805D01*
Y0075889D01*
X0094317Y0075639D02*
Y0075389D01*
X0094650D02*
Y0075889D01*
X0094983Y0075389D01*
Y0075889D01*
X0095483Y0075805D02*
X0095400Y0075889D01*
X0095233D01*
X0095150Y0075805D01*
Y0075472D01*
X0095233Y0075389D01*
X0095400D01*
X0095483Y0075472D01*
X0092151Y0083614D02*
X0092234Y0083697D01*
X0092401D01*
X0092484Y0083614D01*
Y0083530D01*
X0092401Y0083447D01*
X0092317D01*
X0092401D01*
X0092484Y0083364D01*
Y0083280D01*
X0092401Y0083197D01*
X0092234D01*
X0092151Y0083280D01*
X0092650Y0083697D02*
Y0083364D01*
X0092817Y0083197D01*
X0092984Y0083364D01*
Y0083697D01*
X0093150Y0083614D02*
X0093234Y0083697D01*
X0093400D01*
X0093484Y0083614D01*
Y0083530D01*
X0093400Y0083447D01*
X0093317D01*
X0093400D01*
X0093484Y0083364D01*
Y0083280D01*
X0093400Y0083197D01*
X0093234D01*
X0093150Y0083280D01*
X0093650Y0083114D02*
X0093983D01*
X0094483Y0083697D02*
X0094150D01*
Y0083197D01*
X0094483D01*
X0094150Y0083447D02*
X0094317D01*
X0094650Y0083697D02*
X0094983Y0083197D01*
Y0083697D02*
X0094650Y0083197D01*
X0095150Y0083697D02*
X0095483D01*
X0095316D01*
Y0083197D01*
X0092151Y0067990D02*
X0092234Y0068073D01*
X0092401D01*
X0092484Y0067990D01*
Y0067907D01*
X0092401Y0067823D01*
X0092317D01*
X0092401D01*
X0092484Y0067740D01*
Y0067657D01*
X0092401Y0067573D01*
X0092234D01*
X0092151Y0067657D01*
X0092650Y0068073D02*
Y0067740D01*
X0092817Y0067573D01*
X0092984Y0067740D01*
Y0068073D01*
X0093150Y0067990D02*
X0093234Y0068073D01*
X0093400D01*
X0093484Y0067990D01*
Y0067907D01*
X0093400Y0067823D01*
X0093317D01*
X0093400D01*
X0093484Y0067740D01*
Y0067657D01*
X0093400Y0067573D01*
X0093234D01*
X0093150Y0067657D01*
X0093650Y0067490D02*
X0093983D01*
X0094483Y0068073D02*
X0094150D01*
Y0067573D01*
X0094483D01*
X0094150Y0067823D02*
X0094317D01*
X0094650Y0068073D02*
X0094983Y0067573D01*
Y0068073D02*
X0094650Y0067573D01*
X0095150Y0068073D02*
X0095483D01*
X0095316D01*
Y0067573D01*
X0091984Y0060348D02*
X0091901Y0060432D01*
X0091734D01*
X0091651Y0060348D01*
Y0060015D01*
X0091734Y0059932D01*
X0091901D01*
X0091984Y0060015D01*
X0092234Y0059932D02*
X0092401D01*
X0092484Y0060015D01*
Y0060182D01*
X0092401Y0060265D01*
X0092234D01*
X0092151Y0060182D01*
Y0060015D01*
X0092234Y0059932D01*
X0092650D02*
Y0060265D01*
X0092734D01*
X0092817Y0060182D01*
Y0059932D01*
Y0060182D01*
X0092900Y0060265D01*
X0092984Y0060182D01*
Y0059932D01*
X0093150Y0059765D02*
Y0060265D01*
X0093400D01*
X0093484Y0060182D01*
Y0060015D01*
X0093400Y0059932D01*
X0093150D01*
X0093650Y0059848D02*
X0093983D01*
X0094150Y0060432D02*
Y0059932D01*
X0094400D01*
X0094483Y0060015D01*
Y0060098D01*
X0094400Y0060182D01*
X0094150D01*
X0094400D01*
X0094483Y0060265D01*
Y0060348D01*
X0094400Y0060432D01*
X0094150D01*
X0094650Y0059848D02*
X0094983D01*
X0095150Y0059932D02*
Y0060432D01*
X0095400D01*
X0095483Y0060348D01*
Y0060182D01*
X0095400Y0060098D01*
X0095150D01*
X0091984Y0062873D02*
X0091901Y0062957D01*
X0091734D01*
X0091651Y0062873D01*
Y0062540D01*
X0091734Y0062457D01*
X0091901D01*
X0091984Y0062540D01*
X0092234Y0062457D02*
X0092401D01*
X0092484Y0062540D01*
Y0062707D01*
X0092401Y0062790D01*
X0092234D01*
X0092151Y0062707D01*
Y0062540D01*
X0092234Y0062457D01*
X0092650D02*
Y0062790D01*
X0092734D01*
X0092817Y0062707D01*
Y0062457D01*
Y0062707D01*
X0092900Y0062790D01*
X0092984Y0062707D01*
Y0062457D01*
X0093150Y0062290D02*
Y0062790D01*
X0093400D01*
X0093484Y0062707D01*
Y0062540D01*
X0093400Y0062457D01*
X0093150D01*
X0093650Y0062373D02*
X0093983D01*
X0094150Y0062957D02*
Y0062457D01*
X0094400D01*
X0094483Y0062540D01*
Y0062623D01*
X0094400Y0062707D01*
X0094150D01*
X0094400D01*
X0094483Y0062790D01*
Y0062873D01*
X0094400Y0062957D01*
X0094150D01*
X0094650Y0062373D02*
X0094983D01*
X0095150Y0062457D02*
Y0062957D01*
X0095483Y0062457D01*
Y0062957D01*
X0096626Y0055457D02*
X0096959D01*
X0096792D01*
Y0054957D01*
X0097126Y0055290D02*
Y0054957D01*
Y0055123D01*
X0097209Y0055207D01*
X0097292Y0055290D01*
X0097375D01*
X0097625Y0054957D02*
X0097792D01*
X0097709D01*
Y0055290D01*
X0097625D01*
X0098209Y0054790D02*
X0098292D01*
X0098375Y0054873D01*
Y0055290D01*
X0098125D01*
X0098042Y0055207D01*
Y0055040D01*
X0098125Y0054957D01*
X0098375D01*
X0098542Y0054873D02*
X0098875D01*
X0099042Y0054957D02*
Y0055457D01*
X0099291D01*
X0099375Y0055373D01*
Y0055207D01*
X0099291Y0055123D01*
X0099042D01*
X0096626Y0057982D02*
X0096959D01*
X0096792D01*
Y0057482D01*
X0097126Y0057815D02*
Y0057482D01*
Y0057648D01*
X0097209Y0057732D01*
X0097292Y0057815D01*
X0097375D01*
X0097625Y0057482D02*
X0097792D01*
X0097709D01*
Y0057815D01*
X0097625D01*
X0098209Y0057315D02*
X0098292D01*
X0098375Y0057398D01*
Y0057815D01*
X0098125D01*
X0098042Y0057732D01*
Y0057565D01*
X0098125Y0057482D01*
X0098375D01*
X0098542Y0057398D02*
X0098875D01*
X0099042Y0057482D02*
Y0057982D01*
X0099375Y0057482D01*
Y0057982D01*
X0094483Y0065442D02*
X0094400Y0065525D01*
X0094233D01*
X0094150Y0065442D01*
Y0065108D01*
X0094233Y0065025D01*
X0094400D01*
X0094483Y0065108D01*
Y0065275D01*
X0094317D01*
X0094650Y0065025D02*
Y0065525D01*
X0094983Y0065025D01*
Y0065525D01*
X0095150D02*
Y0065025D01*
X0095400D01*
X0095483Y0065108D01*
Y0065442D01*
X0095400Y0065525D01*
X0095150D01*
X0096626Y0059940D02*
Y0060440D01*
X0096959Y0059940D01*
Y0060440D01*
X0097459Y0060357D02*
X0097375Y0060440D01*
X0097209D01*
X0097126Y0060357D01*
Y0060023D01*
X0097209Y0059940D01*
X0097375D01*
X0097459Y0060023D01*
X0096626Y0062465D02*
Y0062965D01*
X0096959Y0062465D01*
Y0062965D01*
X0097459Y0062882D02*
X0097375Y0062965D01*
X0097209D01*
X0097126Y0062882D01*
Y0062548D01*
X0097209Y0062465D01*
X0097375D01*
X0097459Y0062548D01*
X0096959Y0065482D02*
X0096876Y0065565D01*
X0096709D01*
X0096626Y0065482D01*
Y0065148D01*
X0096709Y0065065D01*
X0096876D01*
X0096959Y0065148D01*
Y0065315D01*
X0096792D01*
X0097126Y0065065D02*
Y0065565D01*
X0097459Y0065065D01*
Y0065565D01*
X0097625D02*
Y0065065D01*
X0097875D01*
X0097959Y0065148D01*
Y0065482D01*
X0097875Y0065565D01*
X0097625D01*
X0096626Y0067990D02*
X0096709Y0068073D01*
X0096876D01*
X0096959Y0067990D01*
Y0067907D01*
X0096876Y0067823D01*
X0096792D01*
X0096876D01*
X0096959Y0067740D01*
Y0067657D01*
X0096876Y0067573D01*
X0096709D01*
X0096626Y0067657D01*
X0097126Y0068073D02*
Y0067740D01*
X0097292Y0067573D01*
X0097459Y0067740D01*
Y0068073D01*
X0097625Y0067990D02*
X0097709Y0068073D01*
X0097875D01*
X0097959Y0067990D01*
Y0067907D01*
X0097875Y0067823D01*
X0097792D01*
X0097875D01*
X0097959Y0067740D01*
Y0067657D01*
X0097875Y0067573D01*
X0097709D01*
X0097625Y0067657D01*
X0098125Y0067490D02*
X0098458D01*
X0098958Y0068073D02*
X0098625D01*
Y0067573D01*
X0098958D01*
X0098625Y0067823D02*
X0098792D01*
X0099125Y0068073D02*
X0099458Y0067573D01*
Y0068073D02*
X0099125Y0067573D01*
X0099625Y0068073D02*
X0099958D01*
X0099791D01*
Y0067573D01*
X0091984Y0055348D02*
X0091901Y0055432D01*
X0091734D01*
X0091651Y0055348D01*
Y0055015D01*
X0091734Y0054932D01*
X0091901D01*
X0091984Y0055015D01*
X0092234Y0054932D02*
X0092401D01*
X0092484Y0055015D01*
Y0055182D01*
X0092401Y0055265D01*
X0092234D01*
X0092151Y0055182D01*
Y0055015D01*
X0092234Y0054932D01*
X0092650D02*
Y0055265D01*
X0092734D01*
X0092817Y0055182D01*
Y0054932D01*
Y0055182D01*
X0092900Y0055265D01*
X0092984Y0055182D01*
Y0054932D01*
X0093150Y0054765D02*
Y0055265D01*
X0093400D01*
X0093484Y0055182D01*
Y0055015D01*
X0093400Y0054932D01*
X0093150D01*
X0093650Y0054848D02*
X0093983D01*
X0094150Y0054932D02*
Y0055265D01*
X0094317Y0055432D01*
X0094483Y0055265D01*
Y0054932D01*
Y0055182D01*
X0094150D01*
X0094650Y0054848D02*
X0094983D01*
X0095150Y0054932D02*
Y0055432D01*
X0095400D01*
X0095483Y0055348D01*
Y0055182D01*
X0095400Y0055098D01*
X0095150D01*
X0091984Y0057873D02*
X0091901Y0057957D01*
X0091734D01*
X0091651Y0057873D01*
Y0057540D01*
X0091734Y0057457D01*
X0091901D01*
X0091984Y0057540D01*
X0092234Y0057457D02*
X0092401D01*
X0092484Y0057540D01*
Y0057707D01*
X0092401Y0057790D01*
X0092234D01*
X0092151Y0057707D01*
Y0057540D01*
X0092234Y0057457D01*
X0092650D02*
Y0057790D01*
X0092734D01*
X0092817Y0057707D01*
Y0057457D01*
Y0057707D01*
X0092900Y0057790D01*
X0092984Y0057707D01*
Y0057457D01*
X0093150Y0057290D02*
Y0057790D01*
X0093400D01*
X0093484Y0057707D01*
Y0057540D01*
X0093400Y0057457D01*
X0093150D01*
X0093650Y0057373D02*
X0093983D01*
X0094150Y0057457D02*
Y0057790D01*
X0094317Y0057957D01*
X0094483Y0057790D01*
Y0057457D01*
Y0057707D01*
X0094150D01*
X0094650Y0057373D02*
X0094983D01*
X0095150Y0057457D02*
Y0057957D01*
X0095483Y0057457D01*
Y0057957D01*
M02*
