G04*
G04 #@! TF.GenerationSoftware,Altium Limited,Altium Designer,23.7.1 (13)*
G04*
G04 Layer_Physical_Order=4*
G04 Layer_Color=16711680*
%FSAX43Y43*%
%MOMM*%
G71*
G04*
G04 #@! TF.SameCoordinates,32F7D0E7-751F-4841-97B5-8499A226923E*
G04*
G04*
G04 #@! TF.FilePolarity,Positive*
G04*
G01*
G75*
%ADD12C,0.200*%
%ADD14R,4.900X1.600*%
%ADD41C,2.550*%
%ADD42C,2.250*%
%ADD43C,2.910*%
%ADD45C,0.300*%
%ADD49P,1.414X4X360.0*%
%ADD52C,0.150*%
%ADD56C,1.680*%
%ADD57C,6.600*%
%ADD58C,0.650*%
%ADD59C,0.250*%
D12*
X0025500Y0002700D02*
X0027400D01*
X0025500Y0004600D02*
X0027400D01*
Y0002700D02*
Y0004600D01*
X0025500Y0002700D02*
Y0004600D01*
D14*
X0002750Y0049671D02*
D03*
Y0058191D02*
D03*
Y0025060D02*
D03*
Y0033580D02*
D03*
Y0037315D02*
D03*
Y0045835D02*
D03*
Y0012855D02*
D03*
Y0021375D02*
D03*
D41*
X0035760Y0028430D02*
D03*
X0040840D02*
D03*
Y0023350D02*
D03*
X0035760D02*
D03*
X0048510Y0012940D02*
D03*
X0053590D02*
D03*
Y0007860D02*
D03*
X0048510D02*
D03*
X0035760Y0044055D02*
D03*
X0040840D02*
D03*
Y0038975D02*
D03*
X0035760D02*
D03*
X0048510Y0028565D02*
D03*
X0053590D02*
D03*
Y0023485D02*
D03*
X0048510D02*
D03*
X0035760Y0059805D02*
D03*
X0040840D02*
D03*
Y0054725D02*
D03*
X0035760D02*
D03*
X0048510Y0044315D02*
D03*
X0053590D02*
D03*
Y0039235D02*
D03*
X0048510D02*
D03*
D42*
X0038300Y0025890D02*
D03*
X0051050Y0010400D02*
D03*
X0038300Y0041515D02*
D03*
X0051050Y0026025D02*
D03*
X0038300Y0057265D02*
D03*
X0051050Y0041775D02*
D03*
D43*
X0002250Y0085475D02*
D03*
X0017550D02*
D03*
X0002250Y0069025D02*
D03*
X0017550D02*
D03*
D45*
X0002434Y0012872D02*
Y0014280D01*
X0002434Y0012872D02*
X0002434Y0012872D01*
Y0011555D02*
Y0012872D01*
X0002450Y0012855D02*
X0005409D01*
X0002434Y0012872D02*
X0002434Y0012872D01*
X0002450Y0012855D01*
X0002434Y0021392D02*
Y0022800D01*
X0002434Y0021392D02*
X0002434Y0021392D01*
Y0020075D02*
Y0021392D01*
X0002450Y0021375D02*
X0005409D01*
X0002434Y0021392D02*
X0002434Y0021392D01*
X0002450Y0021375D01*
X0002434Y0025076D02*
Y0026485D01*
X0002434Y0025076D02*
X0002434Y0025076D01*
Y0023760D02*
Y0025076D01*
X0002450Y0025060D02*
X0005409D01*
X0002434Y0025076D02*
X0002434Y0025076D01*
X0002450Y0025060D01*
X0002434Y0033596D02*
Y0035005D01*
X0002434Y0033596D02*
X0002434Y0033596D01*
Y0032280D02*
Y0033596D01*
X0002450Y0033580D02*
X0005409D01*
X0002434Y0033596D02*
X0002434Y0033596D01*
X0002450Y0033580D01*
X0002434Y0037331D02*
Y0038740D01*
X0002434Y0037331D02*
X0002434Y0037331D01*
Y0036015D02*
Y0037331D01*
X0002450Y0037315D02*
X0005409D01*
X0002434Y0037331D02*
X0002434Y0037331D01*
X0002450Y0037315D01*
X0002434Y0045851D02*
Y0047260D01*
X0002434Y0045851D02*
X0002434Y0045851D01*
Y0044535D02*
Y0045851D01*
X0002450Y0045835D02*
X0005409D01*
X0002434Y0045851D02*
X0002434Y0045851D01*
X0002450Y0045835D01*
X0002434Y0049687D02*
Y0051096D01*
X0002434Y0049687D02*
X0002434Y0049687D01*
Y0048371D02*
Y0049687D01*
X0002450Y0049671D02*
X0005409D01*
X0002434Y0049687D02*
X0002434Y0049687D01*
X0002450Y0049671D01*
X0002450Y0058191D02*
X0002466Y0058175D01*
X0002450Y0058191D02*
X0002450Y0058191D01*
X0002466Y0058175D02*
X0005425D01*
X0002450Y0056875D02*
Y0058191D01*
X0002450Y0058191D02*
X0002450Y0058191D01*
Y0059600D01*
X0086400Y0058075D02*
X0087550Y0056925D01*
X0078825Y0056950D02*
X0079950Y0058075D01*
X0086400D01*
X0067400Y0056950D02*
X0078825D01*
X0067400Y0048050D02*
Y0056950D01*
Y0048050D02*
X0071450Y0044000D01*
X0074334Y0045050D02*
X0075700D01*
X0073284Y0044000D02*
X0074334Y0045050D01*
X0071450Y0044000D02*
X0073284D01*
X0072075Y0044925D02*
X0072995D01*
X0076275Y0048205D01*
X0047400Y0051350D02*
X0053725Y0057675D01*
X0029500Y0051350D02*
X0047400D01*
X0056612Y0060550D02*
X0056625D01*
X0053737Y0057675D02*
X0056612Y0060550D01*
X0053725Y0057675D02*
X0053737D01*
X0058675Y0060500D02*
X0072825D01*
X0047625Y0049450D02*
X0058675Y0060500D01*
X0076762Y0060513D02*
X0076775Y0060525D01*
X0072838Y0060513D02*
X0076762D01*
X0072825Y0060500D02*
X0072838Y0060513D01*
X0076275Y0050675D02*
X0079000Y0053400D01*
X0081175D02*
X0083200Y0055425D01*
X0079000Y0053400D02*
X0081175D01*
X0076275Y0048205D02*
Y0050675D01*
X0063050Y0050300D02*
X0070375Y0042975D01*
X0072075D01*
X0016300Y0048325D02*
X0026475D01*
X0029500Y0051350D01*
X0015425Y0035750D02*
Y0040350D01*
X0016900Y0041825D02*
X0027475D01*
X0015425Y0040350D02*
X0016900Y0041825D01*
X0015425Y0035750D02*
X0016300Y0034875D01*
X0035100Y0049450D02*
X0047625D01*
X0027475Y0041825D02*
X0035100Y0049450D01*
X0063050Y0050300D02*
Y0056850D01*
X0083200Y0055425D02*
Y0056825D01*
D49*
X0091425Y0091175D02*
D03*
X0090800Y0007075D02*
D03*
X0012400Y0007800D02*
D03*
D52*
X0086575Y0039725D02*
Y0045400D01*
X0084700Y0037850D02*
X0086575Y0039725D01*
D56*
X0100375Y0050214D02*
D03*
Y0040054D02*
D03*
Y0027214D02*
D03*
Y0017054D02*
D03*
D57*
X0097000Y0095000D02*
D03*
Y0005000D02*
D03*
X0004900Y0095000D02*
D03*
Y0005000D02*
D03*
D58*
X0084700Y0037850D02*
D03*
X0086575Y0045400D02*
D03*
X0090550Y0025925D02*
D03*
X0092250Y0025000D02*
D03*
Y0026900D02*
D03*
X0094100Y0025925D02*
D03*
X0095975Y0024950D02*
D03*
X0095950Y0026875D02*
D03*
X0097675Y0025950D02*
D03*
Y0048950D02*
D03*
X0095950Y0049875D02*
D03*
X0095975Y0047950D02*
D03*
X0094100Y0048925D02*
D03*
X0092250Y0049900D02*
D03*
Y0048000D02*
D03*
X0090550Y0048925D02*
D03*
X0024700Y0079075D02*
D03*
X0023225Y0079050D02*
D03*
X0075075Y0042700D02*
D03*
X0072075Y0044925D02*
D03*
X0008900Y0040075D02*
D03*
Y0043125D02*
D03*
X0002434Y0014280D02*
D03*
Y0011555D02*
D03*
X0005409Y0012855D02*
D03*
X0002434Y0022800D02*
D03*
Y0020075D02*
D03*
X0005409Y0021375D02*
D03*
X0002434Y0026485D02*
D03*
Y0023760D02*
D03*
X0005409Y0025060D02*
D03*
X0002434Y0035005D02*
D03*
Y0032280D02*
D03*
X0005409Y0033580D02*
D03*
X0002434Y0038740D02*
D03*
Y0036015D02*
D03*
X0005409Y0037315D02*
D03*
X0002434Y0047260D02*
D03*
Y0044535D02*
D03*
X0005409Y0045835D02*
D03*
X0002434Y0051096D02*
D03*
Y0048371D02*
D03*
X0005409Y0049671D02*
D03*
X0005425Y0058175D02*
D03*
X0002450Y0056875D02*
D03*
Y0059600D02*
D03*
X0041050Y0084425D02*
D03*
X0050625Y0067550D02*
D03*
X0048625D02*
D03*
X0049600Y0067525D02*
D03*
X0049575Y0068425D02*
D03*
X0048600Y0068450D02*
D03*
X0047947Y0084697D02*
D03*
X0045722D02*
D03*
X0046872D02*
D03*
X0046875Y0083850D02*
D03*
X0045725D02*
D03*
X0047750Y0091350D02*
D03*
X0046750Y0091325D02*
D03*
X0045675Y0091300D02*
D03*
X0045650Y0090400D02*
D03*
X0046725D02*
D03*
X0045500Y0076575D02*
D03*
X0043725D02*
D03*
X0042000D02*
D03*
X0040250Y0076550D02*
D03*
X0055711Y0082650D02*
D03*
X0062650Y0082675D02*
D03*
X0060325D02*
D03*
X0058000D02*
D03*
X0055686Y0090050D02*
D03*
X0062650Y0090075D02*
D03*
X0060325D02*
D03*
X0058000D02*
D03*
X0050600Y0068450D02*
D03*
X0050625Y0072300D02*
D03*
X0048600Y0072325D02*
D03*
X0046475Y0073175D02*
D03*
X0046450Y0071125D02*
D03*
X0039275Y0071150D02*
D03*
Y0073150D02*
D03*
X0042550Y0071725D02*
D03*
X0039800Y0090450D02*
D03*
X0041050Y0079875D02*
D03*
X0039925Y0081950D02*
D03*
X0047950Y0083850D02*
D03*
X0047750Y0090400D02*
D03*
X0040500Y0092775D02*
D03*
X0047950Y0080075D02*
D03*
X0045750Y0080050D02*
D03*
X0042075Y0081950D02*
D03*
X0038700Y0080050D02*
D03*
X0036700Y0080025D02*
D03*
X0047775Y0086475D02*
D03*
X0045625Y0086425D02*
D03*
X0042300Y0091550D02*
D03*
Y0088000D02*
D03*
X0038625Y0086350D02*
D03*
X0036625Y0086325D02*
D03*
X0036150Y0072300D02*
D03*
X0034175Y0072275D02*
D03*
X0023975Y0079075D02*
D03*
X0053725Y0057675D02*
D03*
X0072825Y0060500D02*
D03*
X0016300Y0034875D02*
D03*
Y0048325D02*
D03*
X0072075Y0042975D02*
D03*
X0058350Y0063125D02*
D03*
Y0058275D02*
D03*
X0066100Y0065775D02*
D03*
X0067675Y0063725D02*
D03*
X0058325Y0065200D02*
D03*
Y0056150D02*
D03*
X0066125Y0067800D02*
D03*
X0067400Y0056950D02*
D03*
X0065200Y0056875D02*
D03*
X0063050Y0056850D02*
D03*
X0060875Y0056825D02*
D03*
X0065324Y0063169D02*
D03*
X0056625Y0060550D02*
D03*
X0083200Y0056825D02*
D03*
X0087550Y0056925D02*
D03*
X0075700Y0045050D02*
D03*
X0085350Y0056850D02*
D03*
X0081025Y0056800D02*
D03*
X0076775Y0060525D02*
D03*
X0085474Y0063144D02*
D03*
X0087825Y0063700D02*
D03*
X0086250Y0065750D02*
D03*
X0086275Y0067775D02*
D03*
X0078500Y0058250D02*
D03*
X0078475Y0056125D02*
D03*
X0078500Y0063100D02*
D03*
X0078475Y0065175D02*
D03*
X0084000Y0051200D02*
D03*
X0081950D02*
D03*
X0079500Y0049450D02*
D03*
X0079475Y0051375D02*
D03*
Y0050725D02*
D03*
X0072950Y0049625D02*
D03*
X0077450Y0049450D02*
D03*
X0074950Y0049600D02*
D03*
X0071975Y0052300D02*
D03*
X0071600Y0038450D02*
D03*
X0073450Y0038425D02*
D03*
X0079200Y0045000D02*
D03*
X0080125Y0045825D02*
D03*
X0081925D02*
D03*
X0083775Y0045850D02*
D03*
X0040200Y0020850D02*
D03*
X0038550D02*
D03*
X0040200Y0015475D02*
D03*
X0038550Y0015450D02*
D03*
X0024050Y0014975D02*
D03*
X0026650Y0022050D02*
D03*
Y0019925D02*
D03*
X0023100Y0020200D02*
D03*
X0022200Y0015325D02*
D03*
X0015950D02*
D03*
X0016750Y0019350D02*
D03*
Y0021425D02*
D03*
X0043250Y0014150D02*
D03*
X0043275Y0012600D02*
D03*
X0046200Y0022250D02*
D03*
X0046175Y0023900D02*
D03*
X0043250Y0029775D02*
D03*
X0043275Y0028225D02*
D03*
X0046200Y0037875D02*
D03*
X0046175Y0039525D02*
D03*
X0011950Y0015025D02*
D03*
X0019425Y0027935D02*
D03*
Y0029960D02*
D03*
X0018525Y0031085D02*
D03*
X0021025Y0039735D02*
D03*
Y0037735D02*
D03*
X0022000Y0036510D02*
D03*
X0022975Y0029685D02*
D03*
X0017425Y0037935D02*
D03*
Y0030735D02*
D03*
X0025000Y0036685D02*
D03*
X0026700Y0031260D02*
D03*
Y0036685D02*
D03*
X0017425Y0036935D02*
D03*
X0020400Y0035760D02*
D03*
X0025025Y0031285D02*
D03*
X0018500Y0046675D02*
D03*
X0019400Y0045550D02*
D03*
Y0043525D02*
D03*
X0022950Y0045275D02*
D03*
X0017400Y0046325D02*
D03*
Y0052525D02*
D03*
X0026675Y0046850D02*
D03*
X0025000Y0046875D02*
D03*
X0024975Y0052275D02*
D03*
X0026675D02*
D03*
X0020375Y0051350D02*
D03*
X0021975Y0052100D02*
D03*
X0021000Y0053325D02*
D03*
Y0055325D02*
D03*
X0017400Y0053525D02*
D03*
X0046200Y0053625D02*
D03*
X0046175Y0055275D02*
D03*
X0043275Y0043975D02*
D03*
X0043250Y0045525D02*
D03*
D59*
X0026365Y0003148D02*
Y0004147D01*
X0026865Y0003647D01*
X0026198D01*
M02*
