M48
;Layer_Color=9474304
;FILE_FORMAT=4:3
METRIC
;TYPE=PLATED
T01F00S00C0.300
T02F00S00C1.500
T03F00S00C1.700
T04F00S00C2.000
T05F00S00C3.200
;TYPE=NON_PLATED
T06F00S00C1.950
%
T01
X0002434Y0011555
X0043275Y0012600
X0090550Y0025925
X0092250Y0025000
Y0026900
X0094100Y0025925
X0095950Y0026875
X0095975Y0024950
X0097675Y0025950
Y0048950
X0095950Y0049875
X0095975Y0047950
X0094100Y0048925
X0092250Y0048000
Y0049900
X0090550Y0048925
X0086575Y0045400
X0083775Y0045850
X0081925Y0045825
X0080125
X0079200Y0045000
X0079500Y0049450
X0079475Y0050725
Y0051375
X0081950Y0051200
X0084000
X0084700Y0037850
X0073450Y0038425
X0071600Y0038450
X0072075Y0042975
Y0044925
X0075700Y0045050
X0075075Y0042700
X0074950Y0049600
X0072950Y0049625
X0071975Y0052300
X0077450Y0049450
X0043250Y0045525
X0043275Y0043975
X0046175Y0039525
X0046200Y0037875
X0043250Y0029775
X0043275Y0028225
X0046175Y0023900
X0046200Y0022250
X0040200Y0020850
X0038550
Y0015450
X0040200Y0015475
X0043250Y0014150
X0024050Y0014975
X0022200Y0015325
X0023100Y0020200
X0026650Y0019925
Y0022050
X0026700Y0031260
X0025025Y0031285
X0022975Y0029685
X0019425Y0029960
X0018525Y0031085
X0017425Y0030735
X0019425Y0027935
X0020400Y0035760
X0022000Y0036510
X0021025Y0037735
Y0039735
X0017425Y0037935
Y0036935
X0016300Y0034875
X0025000Y0036685
X0026700
X0026675Y0046850
X0025000Y0046875
X0022950Y0045275
X0019400Y0045550
X0018500Y0046675
X0017400Y0046325
X0016300Y0048325
X0020375Y0051350
X0021975Y0052100
X0024975Y0052275
X0026675
X0019400Y0043525
X0008900Y0043125
Y0040075
X0005409Y0037315
Y0033580
X0002434Y0032280
Y0035005
Y0036015
Y0038740
Y0044535
Y0047260
Y0048371
Y0051096
X0005409Y0049671
Y0045835
Y0025060
Y0021375
X0002434Y0020075
Y0022800
Y0023760
Y0026485
Y0014280
X0005409Y0012855
X0011950Y0015025
X0015950Y0015325
X0016750Y0019350
Y0021425
X0017400Y0052525
Y0053525
X0021000Y0053325
Y0055325
X0005425Y0058175
X0002450Y0056875
Y0059600
X0023225Y0079050
X0023975Y0079075
X0024700
X0036700Y0080025
X0036625Y0086325
X0036150Y0072300
X0034175Y0072275
X0039275Y0073150
Y0071150
X0042550Y0071725
X0046450Y0071125
X0046475Y0073175
X0048600Y0072325
X0050625Y0072300
X0050600Y0068450
X0050625Y0067550
X0049600Y0067525
X0049575Y0068425
X0048600Y0068450
X0048625Y0067550
X0058325Y0065200
X0058350Y0063125
X0056625Y0060550
X0058350Y0058275
X0058325Y0056150
X0060875Y0056825
X0063050Y0056850
X0065200Y0056875
X0067400Y0056950
X0067675Y0063725
X0065324Y0063169
X0066100Y0065775
X0066125Y0067800
X0072825Y0060500
X0076775Y0060525
X0053725Y0057675
X0046175Y0055275
X0046200Y0053625
X0045500Y0076575
X0043725
X0042000
X0040250Y0076550
X0041050Y0079875
X0038700Y0080050
X0039925Y0081950
X0042075
X0041050Y0084425
X0038625Y0086350
X0039800Y0090450
X0042300Y0091550
Y0088000
X0045625Y0086425
X0045722Y0084697
X0045725Y0083850
X0046875
X0046872Y0084697
X0047947
X0047950Y0083850
X0047775Y0086475
X0047750Y0090400
X0047750Y0091350
X0046750Y0091325
X0046725Y0090400
X0045650
X0045675Y0091300
X0055686Y0090050
X0058000Y0090075
X0060325
X0062650
Y0082675
X0060325
X0058000
X0055711Y0082650
X0047950Y0080075
X0045750Y0080050
X0078475Y0065175
X0078500Y0063100
Y0058250
X0078475Y0056125
X0081025Y0056800
X0083200Y0056825
X0085350Y0056850
X0087550Y0056925
X0087825Y0063700
X0085474Y0063144
X0086250Y0065750
X0086275Y0067775
X0040500Y0092775
T02
X0051050Y0010400
X0051050Y0026025
X0038300Y0025890
X0038300Y0041515
X0051050Y0041775
X0038300Y0057265
T03
X0048510Y0007860
X0053590
Y0012940
X0048510
X0048510Y0023485
Y0028565
X0053590
Y0023485
X0040840Y0023350
Y0028430
X0040840Y0038975
Y0044055
X0048510Y0044315
X0053590
Y0039235
X0048510
X0035760Y0038975
Y0044055
X0035760Y0028430
Y0023350
X0035760Y0054725
Y0059805
X0040840
Y0054725
T04
X0002250Y0069025
X0017550
Y0085475
X0002250
T05
X0004900Y0005000
X0097000
Y0095000
X0004900
T06
X0100375Y0017054
Y0027214
Y0040054
Y0050214
M30
